<svg xmlns="http://www.w3.org/2000/svg" xmlns:xlink="http://www.w3.org/1999/xlink" width="1080" zoomAndPan="magnify" viewBox="0 0 810 809.999993" height="1080" preserveAspectRatio="xMidYMid meet" version="1.0"><defs><clipPath id="25e80b95c7"><path d="M 258.679688 30.222656 L 551 30.222656 L 551 779.472656 L 258.679688 779.472656 Z M 258.679688 30.222656 " clip-rule="nonzero"/></clipPath></defs><g clip-path="url(#25e80b95c7)"><path fill="#6d1f1f" d="M 550.191406 244.148438 C 549.996094 243.472656 549.730469 242.824219 549.398438 242.203125 C 549.054688 241.597656 548.808594 240.953125 548.660156 240.273438 C 548.632812 239.375 548.769531 238.503906 549.074219 237.65625 C 549.339844 237.117188 549.511719 236.546875 549.589844 235.949219 C 549.667969 235.351562 549.648438 234.757812 549.53125 234.167969 C 549.414062 233.574219 549.207031 233.019531 548.90625 232.496094 C 548.605469 231.972656 548.226562 231.511719 547.777344 231.113281 C 547.367188 230.707031 547.023438 230.25 546.75 229.742188 C 546.542969 229.25 546.40625 228.738281 546.332031 228.210938 C 546.222656 227.34375 545.960938 226.527344 545.539062 225.757812 C 545.058594 225.101562 544.472656 224.558594 543.785156 224.121094 C 543.097656 223.6875 542.355469 223.390625 541.554688 223.234375 C 540.277344 222.910156 538.976562 222.707031 537.660156 222.621094 C 538.382812 221.410156 538.957031 220.128906 539.375 218.78125 C 539.816406 217.421875 539.996094 216.03125 539.914062 214.605469 C 539.828125 213.179688 539.488281 211.820312 538.886719 210.523438 C 538.195312 209.21875 537.363281 208.019531 536.382812 206.917969 C 535.722656 206.160156 535.121094 205.363281 534.578125 204.519531 C 534.335938 204.027344 534.183594 203.511719 534.128906 202.96875 C 534.105469 202.222656 533.90625 201.53125 533.527344 200.890625 C 533.152344 200.25 532.640625 199.738281 532 199.363281 C 531.382812 199.09375 530.742188 198.980469 530.070312 199.019531 C 529.726562 199.042969 529.390625 199 529.0625 198.894531 C 528.6875 198.652344 528.386719 198.339844 528.160156 197.957031 C 527.96875 197.617188 527.734375 197.3125 527.453125 197.046875 C 527.171875 196.777344 526.859375 196.558594 526.511719 196.382812 C 526.164062 196.210938 525.800781 196.089844 525.417969 196.027344 C 525.035156 195.964844 524.648438 195.957031 524.265625 196.007812 C 523.847656 196.058594 523.4375 196.015625 523.039062 195.882812 C 522.769531 195.710938 522.527344 195.507812 522.316406 195.269531 C 522.089844 195.03125 521.851562 194.808594 521.597656 194.601562 C 520.871094 194.082031 520.0625 193.785156 519.171875 193.714844 C 518.28125 193.640625 517.4375 193.804688 516.636719 194.207031 C 515.167969 194.949219 514.078125 196.066406 513.375 197.558594 L 513.121094 198.101562 C 512.914062 198.691406 512.578125 199.195312 512.113281 199.613281 C 511.625 199.835938 511.113281 199.9375 510.582031 199.921875 L 509.40625 200.046875 C 508.449219 200.292969 507.5625 200.703125 506.746094 201.269531 C 505.933594 201.835938 505.246094 202.53125 504.683594 203.347656 C 504.683594 203.113281 504.683594 202.878906 504.683594 202.644531 C 504.625 201.53125 504.445312 200.4375 504.144531 199.363281 C 503.9375 198.503906 503.546875 197.746094 502.972656 197.078125 C 502.394531 196.414062 501.699219 195.917969 500.878906 195.59375 C 500.070312 195.34375 499.238281 195.242188 498.390625 195.289062 C 497.714844 195.347656 497.058594 195.25 496.425781 195 C 496.042969 194.753906 495.691406 194.464844 495.378906 194.132812 C 495.007812 193.640625 494.539062 193.257812 493.976562 192.996094 C 493.417969 192.730469 492.828125 192.609375 492.207031 192.636719 C 491.511719 192.757812 490.910156 193.0625 490.40625 193.554688 C 489.679688 194.199219 489.085938 194.945312 488.621094 195.796875 C 488.160156 196.648438 487.859375 197.554688 487.71875 198.515625 L 487.71875 198.964844 C 487.707031 199.355469 487.625 199.726562 487.464844 200.082031 C 487.160156 200.605469 486.292969 200.769531 485.390625 200.949219 L 484.417969 201.148438 C 482.105469 201.929688 480.140625 203.234375 478.523438 205.058594 C 477.175781 206.25 476.054688 207.617188 475.152344 209.171875 C 474.730469 210.015625 474.445312 210.902344 474.300781 211.835938 C 474.152344 212.769531 474.152344 213.703125 474.296875 214.636719 C 474.4375 215.570312 474.722656 216.460938 475.140625 217.304688 C 475.5625 218.152344 476.097656 218.914062 476.753906 219.589844 L 476.753906 219.878906 L 477.007812 220.222656 C 477.335938 220.722656 477.605469 221.25 477.820312 221.808594 C 478.035156 222.277344 478.253906 222.765625 478.503906 223.199219 C 479.28125 224.460938 480.285156 225.507812 481.515625 226.335938 L 481.371094 226.335938 L 483.714844 227.777344 L 484.074219 227.992188 L 485.085938 228.605469 C 485.398438 229.0625 485.765625 229.472656 486.183594 229.832031 C 486.558594 230.148438 486.949219 230.4375 487.359375 230.699219 C 487.625 230.851562 487.875 231.027344 488.113281 231.222656 C 488.75 231.726562 489.277344 232.328125 489.703125 233.023438 C 490.28125 233.964844 490.695312 234.976562 490.945312 236.054688 C 491.148438 237.050781 491.257812 238.0625 491.269531 239.082031 C 491.269531 239.480469 491.269531 239.875 491.269531 240.289062 C 491.007812 240.707031 490.71875 241.101562 490.40625 241.480469 C 489.988281 241.972656 489.632812 242.507812 489.339844 243.085938 C 488.773438 244.472656 488.507812 245.914062 488.546875 247.414062 C 488.519531 249.808594 489.023438 252.085938 490.0625 254.246094 C 441.378906 278.800781 406.746094 304.640625 384.910156 332.53125 C 387.253906 320.8125 393.925781 309.09375 404.976562 296.851562 C 406.222656 295.5 407.519531 294.164062 408.800781 292.828125 C 412.699219 289.144531 416.058594 285.023438 418.878906 280.460938 C 422.304688 273.777344 424.765625 266.757812 426.269531 259.402344 C 429.28125 246.164062 430.332031 232.773438 429.425781 219.230469 L 429.839844 219.230469 C 430.152344 219.277344 430.464844 219.308594 430.777344 219.320312 C 431.09375 219.328125 431.40625 219.320312 431.71875 219.292969 C 432.03125 219.269531 432.34375 219.222656 432.652344 219.160156 C 432.957031 219.09375 433.261719 219.015625 433.558594 218.914062 C 433.859375 218.816406 434.148438 218.699219 434.433594 218.5625 C 434.71875 218.429688 434.992188 218.277344 435.257812 218.113281 C 435.523438 217.945312 435.78125 217.761719 436.023438 217.566406 C 436.269531 217.367188 436.503906 217.15625 436.722656 216.933594 C 436.941406 216.707031 437.148438 216.46875 437.339844 216.222656 C 437.53125 215.972656 437.707031 215.710938 437.867188 215.441406 C 438.027344 215.171875 438.171875 214.894531 438.296875 214.605469 C 438.425781 214.320312 438.535156 214.023438 438.628906 213.722656 C 438.71875 213.425781 438.792969 213.121094 438.851562 212.808594 C 438.90625 212.5 438.945312 212.1875 438.964844 211.875 C 438.984375 211.5625 438.984375 211.25 438.964844 210.933594 C 438.949219 210.621094 438.910156 210.308594 438.855469 210 L 439.46875 211.171875 C 443.542969 209.039062 447.269531 206.414062 450.648438 203.292969 C 454.027344 200.175781 456.941406 196.671875 459.394531 192.78125 L 459.394531 192.566406 C 459.945312 191.300781 460.242188 189.980469 460.285156 188.601562 C 460.324219 187.222656 460.105469 185.890625 459.628906 184.59375 C 459.15625 183.53125 458.507812 182.589844 457.683594 181.769531 C 456.859375 180.945312 455.914062 180.300781 454.847656 179.835938 C 449.222656 177.347656 441.183594 183.082031 436.691406 186.902344 C 436.53125 182.738281 436.152344 178.429688 435.628906 173.8125 C 435.589844 173.421875 435.515625 173.035156 435.40625 172.65625 C 435.296875 172.277344 435.15625 171.910156 434.980469 171.558594 C 434.804688 171.203125 434.601562 170.871094 434.367188 170.554688 C 434.128906 170.238281 433.871094 169.945312 433.582031 169.675781 C 433.292969 169.40625 432.984375 169.164062 432.652344 168.949219 C 432.320312 168.734375 431.976562 168.550781 431.609375 168.402344 C 431.246094 168.25 430.871094 168.132812 430.488281 168.046875 C 430.101562 167.960938 429.710938 167.914062 429.320312 167.898438 C 428.246094 167.90625 427.21875 168.125 426.238281 168.566406 C 425.257812 169.003906 424.410156 169.625 423.691406 170.421875 C 422.265625 172.257812 421.488281 174.339844 421.367188 176.660156 L 421.097656 178.265625 C 420.628906 180.671875 420.175781 183.015625 419.746094 185.296875 L 419.3125 187.570312 C 417.878906 186.316406 416.246094 185.445312 414.40625 184.957031 C 410.40625 183.839844 404.871094 184.144531 402.164062 187.5 C 398.269531 192.3125 401.425781 199.144531 406.003906 203.4375 C 408.058594 205.289062 410.355469 206.757812 412.894531 207.839844 C 415.4375 208.925781 418.085938 209.566406 420.84375 209.765625 C 420.757812 210.1875 420.710938 210.613281 420.699219 211.046875 C 420.722656 211.589844 420.796875 212.125 420.925781 212.65625 C 421.050781 213.183594 421.222656 213.699219 421.445312 214.195312 C 421.667969 214.691406 421.9375 215.164062 422.25 215.609375 C 422.5625 216.054688 422.910156 216.46875 423.300781 216.847656 C 423.691406 217.226562 424.113281 217.566406 424.570312 217.863281 C 425.023438 218.164062 425.503906 218.417969 426.003906 218.628906 C 426.507812 218.835938 427.027344 218.996094 427.558594 219.105469 C 428.089844 219.21875 428.628906 219.277344 429.175781 219.285156 L 427.136719 219.394531 C 428.023438 232.730469 426.988281 245.917969 424.035156 258.953125 C 422.566406 266.113281 420.164062 272.949219 416.824219 279.453125 C 415.277344 282.050781 413.476562 284.453125 411.414062 286.664062 L 409.613281 259.851562 C 406.941406 242.347656 402.128906 232.609375 393.980469 228.265625 L 392.375 227.398438 L 392.375 272.65625 C 392.953125 279.992188 394.753906 289.097656 403.191406 295.335938 L 403.085938 295.445312 C 390.464844 309.398438 383.449219 322.761719 381.84375 336.265625 C 376.796875 343.082031 372.398438 350.292969 368.648438 357.902344 C 365.882812 326.320312 365.203125 294.699219 366.605469 263.03125 C 368.007812 231.359375 371.484375 199.921875 377.03125 168.710938 L 378.835938 168.566406 C 383.160156 168.222656 387.667969 167.882812 391.816406 165.5 C 399.949219 160.8125 406.636719 153.945312 412.101562 147.8125 C 415.554688 143.949219 418.683594 139.835938 421.492188 135.480469 C 422.863281 133.335938 424.199219 131.101562 425.441406 128.828125 C 425.53125 128.648438 425.800781 128.070312 426.128906 127.332031 C 426.773438 125.824219 427.496094 124.351562 428.289062 122.914062 L 427.605469 122.101562 L 427.605469 121.003906 C 417.183594 121.203125 406.132812 129.835938 395.601562 138.761719 L 379.140625 156.902344 C 383.035156 136.46875 387.78125 116.03125 393.382812 95.597656 C 394.308594 95.765625 395.238281 95.851562 396.179688 95.851562 C 397.886719 95.855469 399.5625 95.632812 401.210938 95.183594 C 402.480469 94.839844 403.679688 94.335938 404.816406 93.667969 C 404.976562 93.5625 405.445312 93.164062 405.96875 92.730469 L 407.160156 91.738281 L 407.863281 91.738281 C 412.296875 92.011719 415.453125 92.695312 418.480469 95.347656 C 418.785156 95.582031 419.03125 95.863281 419.222656 96.195312 C 419.425781 97.054688 419.269531 97.839844 418.753906 98.554688 L 417.886719 100.179688 L 420.628906 100.179688 C 421.703125 100.167969 422.699219 99.886719 423.621094 99.332031 C 424.964844 100.203125 426.429688 100.738281 428.019531 100.9375 C 428.546875 101.007812 429.074219 101.042969 429.605469 101.042969 C 431.464844 101.007812 433.265625 100.679688 435.015625 100.050781 C 436.375 99.765625 437.617188 99.222656 438.746094 98.414062 C 439.875 97.609375 440.796875 96.609375 441.507812 95.417969 C 441.613281 95.203125 441.703125 94.96875 441.796875 94.75 C 441.9375 94.339844 442.148438 93.96875 442.425781 93.632812 C 442.742188 93.386719 443.089844 93.207031 443.472656 93.09375 L 443.921875 92.914062 C 447.527344 91.414062 450.757812 86.511719 449.65625 82.453125 C 449.457031 81.773438 449.191406 81.117188 448.863281 80.488281 C 448.515625 79.890625 448.269531 79.253906 448.125 78.578125 C 448.09375 77.679688 448.234375 76.808594 448.539062 75.964844 C 448.804688 75.421875 448.976562 74.851562 449.054688 74.253906 C 449.132812 73.65625 449.113281 73.0625 448.996094 72.472656 C 448.878906 71.878906 448.667969 71.324219 448.367188 70.800781 C 448.070312 70.277344 447.691406 69.816406 447.242188 69.417969 C 446.375 68.644531 445.894531 67.675781 445.796875 66.515625 C 445.6875 65.648438 445.421875 64.832031 445.003906 64.0625 C 444.527344 63.402344 443.945312 62.855469 443.253906 62.417969 C 442.566406 61.980469 441.820312 61.6875 441.019531 61.539062 C 439.742188 61.207031 438.445312 61.003906 437.125 60.925781 C 437.847656 59.707031 438.417969 58.421875 438.839844 57.066406 C 439.28125 55.714844 439.460938 54.324219 439.375 52.902344 C 439.292969 51.480469 438.949219 50.121094 438.351562 48.828125 C 437.65625 47.53125 436.820312 46.328125 435.84375 45.222656 C 435.183594 44.476562 434.582031 43.683594 434.042969 42.84375 C 433.796875 42.351562 433.648438 41.835938 433.589844 41.292969 C 433.605469 41.023438 433.59375 40.757812 433.550781 40.496094 C 433.511719 40.230469 433.441406 39.972656 433.34375 39.722656 C 433.246094 39.476562 433.121094 39.238281 432.972656 39.015625 C 432.824219 38.792969 432.65625 38.589844 432.460938 38.402344 C 432.269531 38.21875 432.058594 38.054688 431.832031 37.914062 C 431.601562 37.773438 431.363281 37.660156 431.109375 37.570312 C 430.859375 37.484375 430.597656 37.421875 430.332031 37.390625 C 430.066406 37.359375 429.800781 37.355469 429.535156 37.378906 C 429.191406 37.394531 428.855469 37.351562 428.523438 37.253906 C 428.15625 37.007812 427.855469 36.695312 427.625 36.316406 C 427.4375 35.984375 427.210938 35.6875 426.9375 35.421875 C 426.664062 35.160156 426.363281 34.941406 426.023438 34.765625 C 425.6875 34.589844 425.335938 34.46875 424.960938 34.398438 C 424.589844 34.328125 424.214844 34.3125 423.835938 34.351562 C 423.421875 34.390625 423.011719 34.347656 422.609375 34.222656 C 422.339844 34.054688 422.101562 33.851562 421.890625 33.609375 C 421.664062 33.375 421.421875 33.152344 421.167969 32.945312 C 420.441406 32.425781 419.636719 32.128906 418.746094 32.054688 C 417.859375 31.980469 417.011719 32.140625 416.210938 32.527344 C 414.695312 33.269531 413.578125 34.398438 412.855469 35.917969 L 412.605469 36.460938 C 412.394531 37.050781 412.058594 37.554688 411.59375 37.972656 C 411.109375 38.195312 410.597656 38.300781 410.0625 38.28125 C 409.664062 38.28125 409.269531 38.28125 408.890625 38.40625 C 407.929688 38.652344 407.039062 39.058594 406.226562 39.625 C 405.414062 40.195312 404.726562 40.886719 404.167969 41.707031 C 404.167969 41.472656 404.167969 41.238281 404.167969 41.003906 C 404.109375 39.890625 403.925781 38.796875 403.625 37.722656 C 403.421875 36.867188 403.03125 36.105469 402.453125 35.4375 C 401.878906 34.773438 401.179688 34.277344 400.363281 33.953125 C 399.550781 33.707031 398.722656 33.601562 397.875 33.648438 C 397.199219 33.695312 396.542969 33.601562 395.910156 33.359375 C 395.523438 33.113281 395.175781 32.824219 394.863281 32.492188 C 394.488281 32 394.019531 31.621094 393.460938 31.355469 C 392.898438 31.09375 392.308594 30.972656 391.691406 30.996094 C 391 31.121094 390.398438 31.421875 389.886719 31.898438 C 389.160156 32.542969 388.566406 33.292969 388.105469 34.148438 C 387.640625 35.003906 387.339844 35.914062 387.199219 36.875 L 387.199219 37.324219 C 387.191406 37.714844 387.105469 38.085938 386.949219 38.441406 C 386.640625 38.964844 385.777344 39.128906 384.875 39.289062 C 384.550781 39.289062 384.207031 39.417969 383.902344 39.507812 C 381.585938 40.28125 379.621094 41.585938 378.003906 43.417969 C 376.65625 44.605469 375.53125 45.976562 374.632812 47.53125 C 374.210938 48.375 373.925781 49.265625 373.78125 50.195312 C 373.636719 51.128906 373.632812 52.0625 373.777344 52.996094 C 373.921875 53.929688 374.203125 54.820312 374.621094 55.664062 C 375.042969 56.511719 375.582031 57.273438 376.238281 57.953125 L 376.238281 58.238281 L 376.488281 58.582031 C 376.820312 59.082031 377.089844 59.609375 377.300781 60.167969 C 377.519531 60.636719 377.734375 61.105469 377.988281 61.558594 C 378.71875 62.835938 379.679688 63.90625 380.871094 64.765625 L 380.726562 64.765625 L 383.070312 66.191406 L 383.433594 66.425781 L 384.441406 67.039062 C 384.757812 67.496094 385.121094 67.902344 385.542969 68.265625 C 385.914062 68.574219 386.304688 68.855469 386.714844 69.113281 C 386.976562 69.277344 387.226562 69.457031 387.46875 69.652344 C 388.105469 70.160156 388.632812 70.761719 389.058594 71.457031 C 389.640625 72.398438 390.054688 73.40625 390.300781 74.484375 C 390.503906 75.484375 390.613281 76.496094 390.625 77.515625 C 390.625 77.910156 390.625 78.308594 390.625 78.722656 C 390.363281 79.136719 390.074219 79.535156 389.761719 79.914062 C 389.339844 80.398438 388.988281 80.925781 388.695312 81.5 C 388.128906 82.890625 387.867188 84.339844 387.902344 85.84375 C 387.902344 88.621094 388.535156 93.054688 391.507812 94.859375 C 371.28125 168.78125 362.101562 242.707031 364.121094 315.167969 C 341.386719 293.28125 326.980469 265.515625 319.949219 228.859375 L 319.949219 228.480469 C 319.78125 227.03125 319.515625 225.601562 319.15625 224.191406 C 315.855469 203.679688 314.429688 183.042969 314.882812 162.273438 C 315.695312 162.007812 316.449219 161.621094 317.140625 161.121094 C 317.835938 160.621094 318.4375 160.023438 318.949219 159.335938 C 319.457031 158.648438 319.851562 157.902344 320.128906 157.089844 C 320.410156 156.28125 320.558594 155.449219 320.578125 154.59375 C 320.558594 154.273438 320.523438 153.953125 320.46875 153.636719 L 321.082031 154.808594 C 325.175781 152.671875 328.917969 150.039062 332.308594 146.90625 C 335.699219 143.777344 338.625 140.253906 341.078125 136.347656 L 341.1875 136.113281 C 341.738281 134.851562 342.035156 133.535156 342.078125 132.160156 C 342.117188 130.785156 341.898438 129.453125 341.421875 128.160156 C 340.949219 127.09375 340.304688 126.148438 339.480469 125.324219 C 338.65625 124.5 337.710938 123.855469 336.644531 123.382812 C 331 120.914062 322.957031 126.628906 318.488281 130.449219 C 318.324219 126.304688 317.945312 121.976562 317.421875 117.359375 C 317.382812 116.96875 317.304688 116.585938 317.195312 116.207031 C 317.085938 115.828125 316.941406 115.464844 316.765625 115.109375 C 316.59375 114.757812 316.386719 114.425781 316.152344 114.109375 C 315.917969 113.792969 315.65625 113.5 315.367188 113.230469 C 315.082031 112.960938 314.773438 112.71875 314.441406 112.503906 C 314.109375 112.292969 313.765625 112.109375 313.402344 111.957031 C 313.039062 111.804688 312.664062 111.683594 312.28125 111.597656 C 311.894531 111.515625 311.507812 111.464844 311.113281 111.445312 C 310.035156 111.449219 309.007812 111.667969 308.027344 112.113281 C 307.046875 112.554688 306.199219 113.179688 305.488281 113.988281 C 304.058594 115.820312 303.285156 117.890625 303.160156 120.210938 C 303.070312 120.75 302.980469 121.292969 302.875 121.8125 C 302.40625 124.175781 301.972656 126.554688 301.519531 128.917969 L 301.105469 131.117188 C 299.675781 129.863281 298.042969 129 296.203125 128.523438 C 292.199219 127.386719 286.664062 127.691406 283.960938 131.046875 C 280.066406 135.859375 283.21875 142.691406 287.800781 146.984375 C 289.851562 148.835938 292.148438 150.304688 294.691406 151.386719 C 297.234375 152.472656 299.882812 153.113281 302.640625 153.3125 C 302.554688 153.734375 302.507812 154.164062 302.496094 154.59375 C 302.519531 155.160156 302.601562 155.71875 302.734375 156.273438 C 302.871094 156.824219 303.058594 157.359375 303.296875 157.871094 C 303.539062 158.386719 303.828125 158.875 304.160156 159.332031 C 304.496094 159.792969 304.875 160.214844 305.292969 160.597656 C 305.710938 160.984375 306.160156 161.324219 306.648438 161.621094 C 307.132812 161.917969 307.640625 162.164062 308.175781 162.359375 C 308.707031 162.554688 309.253906 162.699219 309.816406 162.785156 C 310.378906 162.875 310.941406 162.910156 311.507812 162.886719 C 311.90625 162.886719 312.285156 162.886719 312.664062 162.777344 C 312.378906 180.46875 313.378906 198.082031 315.65625 215.625 C 311.546875 208.703125 305.234375 203.492188 299.050781 198.40625 C 297.464844 197.109375 295.878906 195.808594 294.417969 194.546875 C 287.726562 187.5 280.894531 187.425781 275.394531 187.335938 L 273.285156 187.335938 L 290.199219 211.621094 C 297.535156 223.882812 305.882812 229.886719 315.601562 229.886719 C 316.378906 229.886719 317.171875 229.886719 317.964844 229.726562 C 325.285156 267.460938 340.375 295.894531 364.300781 318.269531 C 364.769531 332.515625 365.617188 346.703125 366.953125 360.820312 C 354.332031 393.277344 339.90625 430.183594 345.894531 459.121094 L 358.386719 524.445312 C 356.730469 521.324219 355.050781 518.207031 353.320312 515.125 L 353.320312 515.035156 C 342.195312 495.199219 329.773438 476.195312 317.820312 458.257812 C 314.636719 453.707031 311.101562 449.445312 307.21875 445.472656 C 307.859375 444.816406 308.460938 444.125 309.019531 443.398438 C 311.992188 439.3125 314.050781 434.8125 315.207031 429.894531 C 316.984375 423.160156 317.382812 416.34375 316.394531 409.449219 C 316.132812 408.113281 315.597656 406.898438 314.785156 405.804688 C 313.972656 404.710938 312.964844 403.847656 311.761719 403.210938 C 311.007812 402.859375 310.214844 402.714844 309.386719 402.773438 C 308.554688 402.828125 307.792969 403.085938 307.09375 403.535156 C 305.421875 404.691406 304.003906 406.101562 302.839844 407.769531 C 301.675781 409.433594 300.839844 411.25 300.332031 413.21875 C 298.015625 407.949219 294.769531 403.332031 290.59375 399.371094 L 290.199219 399.136719 C 286.140625 397.785156 283.167969 397.785156 281.183594 399.136719 C 280.292969 399.796875 279.59375 400.621094 279.085938 401.605469 C 278.574219 402.589844 278.308594 403.636719 278.28125 404.742188 L 278.28125 416.085938 C 276.753906 415.269531 275.15625 414.636719 273.484375 414.191406 L 272.582031 413.9375 C 269.15625 413.019531 263.964844 411.613281 261.078125 414.101562 C 258.753906 416.085938 258.609375 419.761719 259.511719 422.519531 C 259.976562 423.734375 260.625 424.84375 261.457031 425.839844 C 262.292969 426.835938 263.265625 427.671875 264.378906 428.34375 C 265.101562 428.855469 265.789062 429.402344 266.453125 429.984375 C 268.109375 431.480469 269.824219 432.90625 271.554688 434.347656 C 268.078125 434.761719 264.789062 435.785156 261.691406 437.414062 C 260.972656 437.792969 258.824219 438.929688 258.664062 441.019531 C 258.679688 441.726562 258.84375 442.394531 259.160156 443.027344 C 259.476562 443.65625 259.910156 444.191406 260.464844 444.625 C 266.667969 450.339844 275.359375 451.585938 283.21875 451.585938 C 284.898438 451.585938 286.519531 451.585938 288.089844 451.460938 C 293.632812 451.261719 298.964844 450.089844 304.082031 447.945312 C 304.652344 447.664062 305.195312 447.332031 305.703125 446.953125 C 309.507812 450.832031 312.96875 454.996094 316.089844 459.445312 C 326.402344 474.933594 337.074219 491.179688 346.9375 508.128906 C 340.445312 501.792969 333.125 496.632812 324.976562 492.640625 L 291.515625 485.898438 L 317.765625 517.054688 C 320.703125 519.597656 323.839844 521.867188 327.179688 523.855469 C 330.515625 525.84375 334.003906 527.523438 337.640625 528.894531 C 341.277344 530.265625 345.007812 531.304688 348.828125 532.015625 C 352.648438 532.722656 356.503906 533.09375 360.390625 533.117188 C 366.746094 559.277344 376.011719 584.363281 388.191406 608.375 C 386.675781 681.503906 364.625 736.859375 320.742188 777.589844 L 322.238281 779.191406 C 366.628906 737.992188 388.949219 682.046875 390.375 608.03125 L 389.777344 600.910156 C 389.4375 574.988281 391.101562 549.191406 394.773438 523.527344 C 395.789062 523.660156 396.8125 523.730469 397.835938 523.742188 C 407.554688 523.742188 415.867188 517.738281 423.222656 505.53125 L 440.171875 481.191406 L 438.042969 481.191406 C 432.636719 481.191406 425.730469 481.335938 419.113281 488.3125 C 417.5625 489.648438 415.992188 490.945312 414.40625 492.242188 C 406.890625 498.410156 399.171875 504.773438 395.476562 514.203125 C 398.867188 476.59375 412.660156 442.082031 438.351562 406.925781 C 439.179688 407.171875 440.027344 407.296875 440.894531 407.304688 C 441.460938 407.324219 442.023438 407.292969 442.585938 407.203125 C 443.144531 407.113281 443.691406 406.972656 444.226562 406.777344 C 444.757812 406.582031 445.265625 406.335938 445.75 406.039062 C 446.234375 405.746094 446.6875 405.40625 447.105469 405.019531 C 447.523438 404.636719 447.898438 404.21875 448.234375 403.757812 C 448.570312 403.300781 448.859375 402.816406 449.097656 402.300781 C 449.339844 401.789062 449.527344 401.253906 449.664062 400.703125 C 449.800781 400.152344 449.882812 399.59375 449.910156 399.027344 C 449.890625 398.707031 449.855469 398.386719 449.800781 398.070312 L 450.414062 399.226562 C 454.507812 397.089844 458.253906 394.457031 461.648438 391.324219 C 465.042969 388.195312 467.96875 384.671875 470.425781 380.761719 L 470.535156 380.546875 C 471.078125 379.28125 471.371094 377.960938 471.414062 376.585938 C 471.453125 375.207031 471.238281 373.871094 470.769531 372.578125 C 470.292969 371.511719 469.644531 370.570312 468.816406 369.75 C 467.988281 368.929688 467.042969 368.285156 465.972656 367.816406 C 460.347656 365.347656 452.308594 371.0625 447.816406 374.886719 C 447.671875 370.71875 447.277344 366.394531 446.753906 361.796875 C 446.714844 361.402344 446.640625 361.019531 446.53125 360.640625 C 446.421875 360.261719 446.28125 359.894531 446.105469 359.539062 C 445.929688 359.1875 445.726562 358.851562 445.488281 358.535156 C 445.253906 358.21875 444.992188 357.925781 444.707031 357.65625 C 444.417969 357.386719 444.109375 357.144531 443.777344 356.929688 C 443.445312 356.71875 443.097656 356.535156 442.734375 356.382812 C 442.371094 356.230469 441.996094 356.113281 441.613281 356.027344 C 441.226562 355.945312 440.835938 355.894531 440.441406 355.882812 C 439.367188 355.882812 438.339844 356.105469 437.363281 356.546875 C 436.382812 356.984375 435.535156 357.605469 434.816406 358.40625 C 433.390625 360.242188 432.613281 362.320312 432.492188 364.644531 C 432.402344 365.183594 432.3125 365.726562 432.222656 366.230469 C 431.753906 368.574219 431.300781 370.9375 430.867188 373.28125 L 430.4375 375.535156 C 429.007812 374.28125 427.371094 373.414062 425.53125 372.9375 C 421.53125 371.820312 415.992188 372.125 413.289062 375.480469 C 409.394531 380.292969 412.550781 387.109375 417.128906 391.417969 C 419.183594 393.269531 421.480469 394.734375 424.023438 395.8125 C 426.5625 396.894531 429.214844 397.535156 431.96875 397.730469 C 431.882812 398.15625 431.835938 398.589844 431.824219 399.027344 C 431.839844 399.761719 431.949219 400.476562 432.15625 401.179688 C 432.367188 401.882812 432.664062 402.546875 433.050781 403.167969 C 433.4375 403.789062 433.902344 404.347656 434.441406 404.847656 C 434.976562 405.34375 435.574219 405.757812 436.222656 406.09375 C 408.621094 444.066406 394.753906 481.191406 392.699219 522.226562 C 390.113281 540.535156 388.460938 558.925781 387.742188 577.398438 L 369.261719 362.265625 C 378.507812 341.765625 394.050781 322.398438 416.136719 303.882812 C 419.359375 305.589844 422.742188 306.867188 426.289062 307.714844 C 429.832031 308.5625 433.425781 308.957031 437.070312 308.894531 C 439.769531 308.886719 442.457031 308.707031 445.128906 308.355469 L 445.363281 308.355469 C 463.179688 301.792969 477.277344 294.578125 488.476562 286.285156 L 491.125 284.300781 L 442.445312 284.300781 C 458.195312 273.902344 474.519531 264.496094 491.414062 256.085938 C 492.074219 256.675781 492.835938 257.066406 493.703125 257.257812 C 494.769531 257.472656 495.84375 257.574219 496.929688 257.5625 C 498.636719 257.566406 500.316406 257.34375 501.960938 256.894531 C 503.230469 256.554688 504.433594 256.046875 505.566406 255.382812 C 505.730469 255.273438 506.199219 254.894531 506.722656 254.445312 C 507.246094 253.992188 507.625 253.6875 507.910156 253.46875 L 508.613281 253.46875 C 513.050781 253.742188 516.207031 254.425781 519.234375 257.078125 C 519.53125 257.316406 519.777344 257.597656 519.972656 257.921875 C 520.179688 258.78125 520.023438 259.570312 519.503906 260.285156 L 518.640625 261.910156 L 521.417969 261.910156 C 522.488281 261.882812 523.488281 261.59375 524.410156 261.042969 C 525.753906 261.914062 527.21875 262.449219 528.808594 262.648438 C 529.335938 262.71875 529.863281 262.757812 530.394531 262.757812 C 532.253906 262.722656 534.054688 262.390625 535.804688 261.765625 C 537.105469 261.441406 538.292969 260.878906 539.363281 260.070312 C 540.4375 259.261719 541.304688 258.277344 541.972656 257.113281 C 542.078125 256.894531 542.167969 256.660156 542.277344 256.445312 C 542.40625 256.03125 542.609375 255.660156 542.890625 255.328125 C 543.210938 255.089844 543.558594 254.910156 543.9375 254.785156 L 544.386719 254.605469 C 548.011719 253.109375 551.292969 248.222656 550.191406 244.148438 Z M 454.054688 181.835938 C 454.855469 182.199219 455.566406 182.6875 456.1875 183.308594 C 456.808594 183.929688 457.300781 184.640625 457.660156 185.441406 C 458.019531 186.464844 458.175781 187.515625 458.132812 188.59375 C 458.089844 189.675781 457.847656 190.710938 457.410156 191.699219 C 455.085938 195.378906 452.324219 198.695312 449.128906 201.652344 C 445.9375 204.605469 442.414062 207.101562 438.566406 209.132812 C 438.085938 207.316406 437.09375 205.835938 435.59375 204.699219 C 436.488281 199.75 436.890625 194.761719 436.800781 189.734375 C 442.445312 184.667969 449.820312 179.980469 454.054688 181.835938 Z M 422.035156 185.695312 C 422.46875 183.371094 422.917969 181.023438 423.367188 178.699219 C 423.476562 178.140625 423.566406 177.582031 423.65625 177.003906 C 423.761719 175.140625 424.363281 173.449219 425.460938 171.9375 C 425.960938 171.382812 426.554688 170.949219 427.230469 170.636719 C 427.910156 170.324219 428.625 170.15625 429.371094 170.136719 C 429.910156 170.148438 430.429688 170.257812 430.925781 170.460938 C 431.425781 170.664062 431.871094 170.949219 432.265625 171.316406 C 432.660156 171.683594 432.976562 172.109375 433.214844 172.589844 C 433.449219 173.074219 433.59375 173.582031 433.644531 174.121094 C 434.871094 185.0625 435.339844 194.351562 433.644531 203.597656 C 432.429688 203.078125 431.164062 202.8125 429.839844 202.804688 C 428.15625 202.804688 426.578125 203.226562 425.117188 204.066406 L 421.890625 192.113281 C 421.777344 191.351562 421.550781 190.621094 421.203125 189.933594 C 421.457031 188.488281 421.710938 187.082031 422.035156 185.695312 Z M 407.609375 201.921875 C 404.382812 198.894531 400.757812 192.90625 404.003906 188.941406 C 405.808594 186.757812 409.953125 186 413.957031 187.136719 C 417.292969 188.074219 419.367188 190.039062 419.78125 192.546875 L 423.277344 205.472656 C 422.617188 206.113281 422.082031 206.847656 421.671875 207.675781 C 419.066406 207.519531 416.554688 206.9375 414.144531 205.929688 C 411.730469 204.921875 409.554688 203.542969 407.609375 201.796875 Z M 394.773438 272.636719 L 394.773438 231.167969 C 399.460938 234.285156 404.742188 240.976562 407.664062 260.125 L 409.613281 288.972656 L 407.230469 291.441406 C 406.472656 292.21875 405.734375 293.011719 404.976562 293.804688 C 396.992188 288.015625 395.296875 279.414062 394.753906 272.5625 Z M 397.40625 140.386719 C 406.816406 132.398438 416.734375 124.589844 425.894531 123.402344 C 425.53125 124.160156 425.0625 125.203125 424.46875 126.484375 C 424.160156 127.152344 423.925781 127.675781 423.835938 127.835938 C 422.628906 130.070312 421.332031 132.253906 419.980469 134.34375 C 417.230469 138.609375 414.171875 142.636719 410.800781 146.425781 C 405.390625 152.410156 398.902344 159.046875 390.96875 163.664062 C 387.253906 165.808594 383.199219 166.113281 378.90625 166.4375 L 377.609375 166.546875 C 377.933594 164.746094 378.238281 162.941406 378.582031 161.136719 Z M 443.128906 65.164062 C 443.417969 65.730469 443.59375 66.332031 443.652344 66.96875 C 443.75 67.691406 443.945312 68.390625 444.246094 69.058594 C 444.617188 69.726562 445.074219 70.328125 445.617188 70.859375 C 446.085938 71.3125 446.453125 71.835938 446.71875 72.429688 C 446.917969 73.4375 446.824219 74.417969 446.429688 75.367188 C 446.035156 76.492188 445.878906 77.644531 445.960938 78.832031 C 446.121094 79.757812 446.433594 80.628906 446.898438 81.445312 C 447.167969 81.9375 447.386719 82.457031 447.546875 82.996094 C 448.320312 85.898438 445.742188 89.757812 443.058594 90.875 L 442.679688 91.035156 C 441.980469 91.222656 441.375 91.570312 440.859375 92.078125 C 440.34375 92.585938 439.988281 93.191406 439.792969 93.886719 C 439.792969 94.085938 439.632812 94.265625 439.542969 94.445312 C 439 95.351562 438.300781 96.113281 437.453125 96.742188 C 436.601562 97.367188 435.664062 97.800781 434.636719 98.050781 C 432.671875 98.78125 430.648438 99.046875 428.5625 98.84375 C 427.410156 98.707031 426.335938 98.347656 425.332031 97.761719 C 425.402344 97.597656 425.457031 97.429688 425.496094 97.257812 L 425.496094 97.113281 C 425.550781 96.863281 425.585938 96.609375 425.605469 96.355469 L 425.605469 96.101562 C 425.605469 95.921875 425.605469 95.742188 425.605469 95.5625 L 425.605469 95.238281 C 425.605469 95.09375 425.605469 94.929688 425.515625 94.769531 C 425.523438 94.660156 425.523438 94.554688 425.515625 94.445312 C 425.472656 94.292969 425.425781 94.140625 425.371094 93.992188 C 425.320312 93.890625 425.277344 93.78125 425.242188 93.667969 L 425.027344 93.21875 L 424.882812 92.949219 C 424.757812 92.714844 424.613281 92.496094 424.46875 92.28125 C 424.109375 91.777344 423.730469 91.308594 423.332031 90.839844 C 422.5625 90.035156 421.960938 89.121094 421.53125 88.097656 C 421.382812 87.613281 421.273438 87.121094 421.203125 86.621094 C 421.152344 85.246094 420.667969 84.046875 419.761719 83.011719 C 419.035156 82.390625 418.203125 81.964844 417.273438 81.734375 C 416.671875 81.601562 416.125 81.347656 415.632812 80.976562 C 415.449219 80.753906 415.28125 80.519531 415.128906 80.273438 C 414.878906 79.859375 414.585938 79.480469 414.246094 79.136719 C 414.019531 78.945312 413.78125 78.777344 413.523438 78.632812 L 413.253906 78.507812 C 413.089844 78.507812 412.929688 78.34375 412.765625 78.289062 L 412.945312 78.164062 L 413.253906 78.019531 C 414.003906 77.617188 414.785156 77.289062 415.597656 77.027344 C 416.492188 76.734375 417.398438 76.488281 418.320312 76.289062 C 419.203125 76.070312 420.121094 75.855469 420.953125 75.585938 C 423.355469 74.773438 425.46875 73.484375 427.300781 71.726562 L 428.21875 70.953125 C 430.738281 68.894531 433.015625 66.597656 435.050781 64.0625 C 435.324219 63.703125 435.59375 63.359375 435.84375 63 C 437.4375 63 439 63.210938 440.53125 63.632812 C 441.597656 63.808594 442.460938 64.320312 443.128906 65.164062 Z M 405.664062 43.292969 C 406.070312 42.625 406.585938 42.058594 407.207031 41.585938 C 407.832031 41.109375 408.515625 40.765625 409.269531 40.550781 C 409.570312 40.488281 409.878906 40.453125 410.1875 40.445312 C 410.675781 40.480469 411.152344 40.433594 411.621094 40.304688 C 412.089844 40.171875 412.523438 39.96875 412.921875 39.6875 C 413.320312 39.40625 413.660156 39.0625 413.941406 38.664062 C 414.21875 38.265625 414.421875 37.832031 414.550781 37.363281 L 414.785156 36.875 C 415.261719 35.832031 416.007812 35.042969 417.023438 34.511719 C 417.453125 34.296875 417.914062 34.203125 418.394531 34.230469 C 418.878906 34.257812 419.324219 34.40625 419.726562 34.675781 C 419.90625 34.824219 420.078125 34.984375 420.230469 35.160156 C 420.667969 35.695312 421.207031 36.082031 421.851562 36.328125 C 422.496094 36.570312 423.15625 36.640625 423.835938 36.53125 C 424.257812 36.488281 424.664062 36.535156 425.0625 36.675781 C 425.421875 36.921875 425.714844 37.226562 425.945312 37.597656 C 426.394531 38.308594 426.996094 38.855469 427.75 39.238281 C 428.332031 39.457031 428.933594 39.558594 429.554688 39.542969 C 429.902344 39.523438 430.246094 39.5625 430.582031 39.667969 C 431.121094 39.941406 431.285156 40.605469 431.5 41.6875 C 431.597656 42.492188 431.839844 43.25 432.222656 43.960938 C 432.816406 44.890625 433.46875 45.773438 434.1875 46.609375 C 435.0625 47.578125 435.820312 48.628906 436.457031 49.765625 C 436.925781 50.816406 437.1875 51.914062 437.25 53.0625 C 437.308594 54.207031 437.15625 55.328125 436.800781 56.417969 C 436.242188 58.160156 435.425781 59.773438 434.347656 61.25 C 434.007812 61.738281 433.664062 62.226562 433.285156 62.695312 C 431.355469 65.113281 429.191406 67.300781 426.792969 69.257812 L 425.855469 70.03125 C 424.242188 71.589844 422.378906 72.742188 420.265625 73.492188 C 419.457031 73.746094 418.609375 73.945312 417.761719 74.144531 C 416.914062 74.339844 415.832031 74.613281 414.875 74.917969 C 414.050781 75.207031 413.246094 75.542969 412.460938 75.929688 L 412.171875 76.070312 C 411.429688 76.460938 410.714844 76.890625 410.027344 77.371094 L 409.828125 77.496094 C 409.296875 77.140625 408.859375 76.699219 408.511719 76.164062 C 408.078125 75.464844 407.535156 74.863281 406.890625 74.359375 C 405.902344 73.734375 404.84375 73.265625 403.714844 72.953125 C 403.175781 72.773438 402.707031 72.574219 402.21875 72.375 C 402.21875 72.230469 402.21875 72.085938 402.21875 71.941406 C 402.058594 70.933594 401.875 69.90625 401.679688 68.914062 C 401.535156 68.210938 401.40625 67.542969 401.28125 66.859375 C 400.890625 65.015625 400.667969 63.148438 400.617188 61.265625 C 400.5625 59.382812 400.679688 57.507812 400.964844 55.644531 C 401.25 53.78125 401.703125 51.957031 402.320312 50.175781 C 402.9375 48.394531 403.707031 46.683594 404.636719 45.042969 C 404.832031 44.464844 405.230469 43.871094 405.664062 43.292969 Z M 379.753906 60.457031 C 379.539062 60.078125 379.355469 59.664062 379.175781 59.269531 C 378.941406 58.675781 378.652344 58.109375 378.3125 57.574219 C 378.261719 57.132812 378.078125 56.757812 377.753906 56.457031 C 377.25 55.941406 376.832031 55.363281 376.507812 54.722656 C 376.183594 54.082031 375.960938 53.40625 375.847656 52.695312 C 375.730469 51.984375 375.722656 51.273438 375.828125 50.5625 C 375.929688 49.847656 376.140625 49.167969 376.453125 48.523438 C 377.253906 47.160156 378.246094 45.960938 379.429688 44.914062 C 380.765625 43.359375 382.402344 42.234375 384.332031 41.542969 L 385.164062 41.382812 C 385.867188 41.363281 386.535156 41.195312 387.164062 40.882812 C 387.796875 40.566406 388.332031 40.132812 388.769531 39.578125 C 389.105469 38.953125 389.285156 38.285156 389.308594 37.578125 L 389.308594 37.179688 C 389.519531 35.738281 390.175781 34.535156 391.273438 33.574219 C 391.457031 33.390625 391.675781 33.257812 391.925781 33.179688 C 392.265625 33.179688 392.664062 33.484375 393.257812 34.0625 C 393.707031 34.546875 394.21875 34.957031 394.789062 35.289062 C 395.746094 35.738281 396.75 35.921875 397.800781 35.847656 C 398.414062 35.804688 399.015625 35.863281 399.605469 36.027344 C 400.085938 36.253906 400.496094 36.574219 400.832031 36.988281 C 401.164062 37.402344 401.394531 37.871094 401.515625 38.390625 C 401.75 39.320312 401.894531 40.261719 401.949219 41.21875 L 402.058594 42.300781 C 402.136719 42.992188 402.25 43.679688 402.398438 44.355469 C 402.183594 44.699219 402.003906 45.097656 401.804688 45.457031 C 401.605469 45.816406 401.390625 46.214844 401.210938 46.609375 C 401.027344 47.007812 400.8125 47.53125 400.613281 48 L 400.128906 49.207031 C 399.964844 49.710938 399.820312 50.21875 399.675781 50.722656 C 399.53125 51.226562 399.425781 51.550781 399.316406 51.964844 C 399.207031 52.378906 399.082031 53.046875 398.992188 53.589844 C 398.902344 54.128906 398.8125 54.417969 398.738281 54.851562 C 398.667969 55.285156 398.613281 56.003906 398.539062 56.652344 C 398.46875 57.300781 398.539062 57.484375 398.414062 57.914062 C 398.289062 58.347656 398.414062 59.160156 398.414062 59.71875 C 398.414062 60.277344 398.414062 60.511719 398.414062 60.925781 C 398.414062 61.628906 398.414062 62.351562 398.539062 63.074219 C 398.539062 63.414062 398.539062 63.757812 398.539062 64.082031 C 398.648438 65.164062 398.792969 66.226562 398.992188 67.308594 C 399.117188 68.011719 399.246094 68.699219 399.386719 69.402344 C 399.386719 69.652344 399.480469 69.90625 399.53125 70.15625 C 399.347656 69.820312 399.210938 69.464844 399.117188 69.09375 L 399.027344 68.699219 C 398.929688 68.179688 398.761719 67.6875 398.523438 67.21875 C 398.355469 66.917969 398.148438 66.65625 397.890625 66.425781 L 397.695312 66.246094 C 397.492188 66.070312 397.269531 65.925781 397.027344 65.8125 L 396.847656 65.703125 C 396.542969 65.578125 396.230469 65.484375 395.910156 65.417969 L 393.671875 65.417969 C 393.386719 65.453125 393.105469 65.503906 392.824219 65.578125 L 391.886719 65.832031 C 390.808594 66.277344 389.695312 66.382812 388.550781 66.15625 C 388.09375 65.941406 387.660156 65.683594 387.253906 65.378906 C 386.804688 65.027344 386.324219 64.730469 385.8125 64.480469 C 385.554688 64.351562 385.285156 64.261719 385 64.207031 C 384.6875 64.171875 384.375 64.171875 384.0625 64.207031 L 383.953125 64.207031 C 382.242188 63.308594 380.839844 62.058594 379.753906 60.457031 Z M 389.472656 68.390625 L 389.761719 68.390625 C 390.09375 68.375 390.425781 68.335938 390.75 68.265625 L 391.167969 68.265625 L 392.410156 67.957031 L 393.277344 67.722656 C 394.554688 67.398438 396.070312 67.453125 396.539062 68.335938 C 396.671875 68.617188 396.761719 68.914062 396.808594 69.21875 L 396.9375 69.707031 C 397.066406 70.191406 397.238281 70.660156 397.460938 71.113281 C 397.699219 71.566406 397.972656 71.992188 398.289062 72.394531 C 398.804688 73.007812 399.40625 73.523438 400.089844 73.945312 L 400.613281 74.214844 L 402.417969 75.132812 L 402.417969 74.9375 L 402.886719 75.097656 C 403.820312 75.351562 404.695312 75.730469 405.519531 76.234375 C 405.957031 76.585938 406.335938 76.996094 406.65625 77.460938 C 407.027344 77.996094 407.453125 78.480469 407.933594 78.921875 L 407.609375 79.191406 L 409.628906 79.804688 L 410.171875 79.964844 L 410.820312 80.128906 C 411.480469 80.179688 412.082031 80.394531 412.621094 80.777344 C 412.835938 80.996094 413.015625 81.234375 413.164062 81.5 C 413.394531 81.886719 413.671875 82.242188 413.992188 82.5625 C 414.714844 83.203125 415.542969 83.632812 416.480469 83.859375 C 416.851562 83.898438 417.199219 84.003906 417.523438 84.179688 C 417.851562 84.359375 418.128906 84.59375 418.359375 84.882812 C 418.589844 85.171875 418.757812 85.496094 418.855469 85.855469 C 418.957031 86.214844 418.980469 86.574219 418.933594 86.945312 C 419.011719 87.558594 419.140625 88.160156 419.328125 88.746094 C 419.835938 90.042969 420.5625 91.195312 421.511719 92.207031 C 421.871094 92.625 422.214844 93.054688 422.539062 93.488281 C 423.332031 94.625 423.835938 96.265625 423.007812 97.257812 C 422.597656 97.632812 422.117188 97.863281 421.566406 97.941406 C 421.8125 97.0625 421.757812 96.203125 421.402344 95.363281 C 421.089844 94.75 420.660156 94.226562 420.121094 93.796875 C 418.449219 92.410156 416.589844 91.359375 414.539062 90.644531 C 412.488281 89.925781 410.375 89.589844 408.207031 89.628906 C 407.808594 89.628906 407.449219 89.539062 407.070312 89.503906 C 401.660156 88.171875 397.945312 86.492188 395.65625 84.402344 C 394.867188 83.585938 394.195312 82.683594 393.636719 81.699219 C 393.351562 81.171875 393.160156 80.613281 393.058594 80.019531 C 392.972656 79.621094 392.910156 79.21875 392.878906 78.8125 C 392.878906 78.324219 392.878906 77.855469 392.878906 77.351562 C 392.859375 76.199219 392.730469 75.058594 392.5 73.925781 C 392.1875 72.640625 391.675781 71.4375 390.96875 70.320312 C 390.554688 69.605469 390.054688 68.957031 389.472656 68.375 Z M 335.777344 125.332031 C 336.578125 125.691406 337.289062 126.183594 337.910156 126.804688 C 338.53125 127.425781 339.023438 128.136719 339.382812 128.9375 C 339.738281 129.957031 339.890625 131.007812 339.847656 132.089844 C 339.804688 133.167969 339.566406 134.203125 339.132812 135.191406 C 336.804688 138.871094 334.042969 142.183594 330.847656 145.140625 C 327.65625 148.097656 324.136719 150.59375 320.289062 152.628906 C 319.84375 150.847656 318.898438 149.386719 317.460938 148.246094 C 318.355469 143.292969 318.757812 138.296875 318.667969 133.261719 C 324.167969 128.160156 331.539062 123.472656 335.777344 125.332031 Z M 289.316406 145.34375 C 286.085938 142.316406 282.464844 136.328125 285.707031 132.363281 C 287.511719 130.199219 291.660156 129.421875 295.660156 130.558594 C 298.980469 131.496094 301.160156 133.480469 301.484375 135.96875 L 304.984375 148.894531 C 304.316406 149.542969 303.773438 150.28125 303.359375 151.113281 C 300.761719 150.96875 298.257812 150.402344 295.851562 149.410156 C 293.445312 148.421875 291.265625 147.066406 289.316406 145.34375 Z M 306.820312 147.507812 L 303.59375 135.570312 C 303.488281 134.800781 303.257812 134.066406 302.910156 133.371094 L 303.683594 129.277344 C 304.136719 126.917969 304.566406 124.554688 305.035156 122.191406 C 305.144531 121.632812 305.234375 121.074219 305.324219 120.5 C 305.4375 118.636719 306.039062 116.945312 307.128906 115.433594 C 307.636719 114.878906 308.230469 114.449219 308.914062 114.136719 C 309.59375 113.824219 310.308594 113.65625 311.058594 113.628906 C 311.597656 113.640625 312.117188 113.75 312.613281 113.953125 C 313.113281 114.15625 313.558594 114.441406 313.953125 114.808594 C 314.347656 115.175781 314.660156 115.601562 314.898438 116.085938 C 315.136719 116.566406 315.28125 117.078125 315.332031 117.613281 C 316.558594 128.558594 317.027344 137.859375 315.332031 147.09375 C 314.652344 146.796875 313.949219 146.582031 313.21875 146.449219 C 312.488281 146.316406 311.753906 146.273438 311.011719 146.3125 C 310.269531 146.351562 309.546875 146.480469 308.835938 146.691406 C 308.125 146.902344 307.445312 147.191406 306.804688 147.5625 Z M 292.019531 210.414062 L 277.59375 189.589844 C 279.039062 189.546875 280.46875 189.65625 281.890625 189.921875 C 283.308594 190.191406 284.683594 190.605469 286.011719 191.171875 C 287.34375 191.734375 288.59375 192.4375 289.773438 193.273438 C 290.949219 194.109375 292.023438 195.066406 292.992188 196.132812 C 294.542969 197.46875 296.148438 198.785156 297.734375 200.101562 C 306.246094 207.078125 314.304688 213.75 317.082031 224.460938 C 317.261719 225.503906 317.441406 226.550781 317.640625 227.597656 C 307.832031 228.425781 299.429688 222.835938 292.019531 210.414062 Z M 308.101562 405.355469 C 308.492188 405.09375 308.925781 404.949219 309.394531 404.914062 C 309.863281 404.882812 310.3125 404.96875 310.734375 405.175781 C 311.609375 405.664062 312.339844 406.3125 312.929688 407.121094 C 313.519531 407.933594 313.910156 408.828125 314.105469 409.808594 C 315.023438 416.394531 314.640625 422.90625 312.953125 429.335938 C 311.855469 433.964844 309.914062 438.210938 307.128906 442.066406 C 306.675781 442.660156 306.191406 443.273438 305.667969 443.867188 L 305.578125 443.777344 L 302.117188 440.082031 C 301.070312 438.855469 299.96875 437.648438 298.886719 436.476562 L 300.222656 424.902344 C 300.996094 418.15625 302.042969 409.140625 308.101562 405.355469 Z M 280.246094 404.777344 C 280.234375 404.027344 280.386719 403.3125 280.703125 402.632812 C 281.019531 401.953125 281.46875 401.375 282.046875 400.902344 C 283.472656 399.984375 285.816406 400.074219 289.042969 401.101562 C 293.574219 405.496094 296.957031 410.648438 299.195312 416.554688 C 298.582031 419.402344 298.238281 422.214844 297.96875 424.613281 L 296.832031 434.3125 L 294.328125 431.625 L 293.335938 430.582031 C 292.144531 429.316406 291.007812 428.003906 289.875 426.6875 C 287.039062 423.148438 283.796875 420.027344 280.15625 417.328125 Z M 273.917969 433.628906 C 271.824219 431.824219 269.734375 430.128906 267.695312 428.21875 C 266.976562 427.585938 266.21875 427.011719 265.480469 426.414062 C 264.546875 425.875 263.730469 425.199219 263.027344 424.386719 C 262.320312 423.574219 261.769531 422.671875 261.367188 421.671875 C 260.71875 419.671875 260.738281 416.894531 262.289062 415.578125 C 264.308594 413.777344 268.996094 415.109375 271.789062 415.867188 L 272.707031 416.121094 C 279.46875 417.921875 283.761719 422.808594 288.304688 428.039062 C 289.476562 429.371094 290.628906 430.707031 291.910156 431.988281 L 292.902344 433.03125 L 295.191406 435.484375 L 290.8125 435.105469 L 287.90625 434.871094 C 285.851562 434.710938 283.726562 434.546875 281.652344 434.277344 C 279.257812 433.976562 276.851562 433.863281 274.441406 433.933594 Z M 303.035156 445.941406 C 298.179688 447.976562 293.117188 449.082031 287.855469 449.257812 C 279.378906 449.691406 268.742188 449.386719 261.820312 443.003906 C 260.988281 442.246094 260.609375 441.613281 260.648438 441.199219 C 260.683594 440.785156 261.3125 439.972656 262.449219 439.398438 C 266.582031 437.253906 270.976562 436.222656 275.628906 436.3125 C 277.519531 436.320312 279.398438 436.449219 281.273438 436.691406 C 283.382812 436.945312 285.546875 437.125 287.621094 437.289062 L 290.523438 437.523438 L 297.285156 438.117188 C 298.347656 439.269531 299.410156 440.460938 300.4375 441.722656 C 301.46875 442.984375 302.78125 444.230469 303.953125 445.472656 C 303.660156 445.652344 303.355469 445.808594 303.035156 445.941406 Z M 465 369.800781 C 465.804688 370.15625 466.515625 370.648438 467.136719 371.269531 C 467.757812 371.890625 468.25 372.601562 468.605469 373.40625 C 468.96875 374.425781 469.128906 375.476562 469.085938 376.558594 C 469.039062 377.640625 468.796875 378.675781 468.355469 379.664062 C 466.03125 383.347656 463.273438 386.667969 460.078125 389.625 C 456.882812 392.585938 453.363281 395.082031 449.511719 397.117188 C 449.03125 395.296875 448.039062 393.816406 446.539062 392.679688 C 447.433594 387.730469 447.835938 382.742188 447.746094 377.714844 C 453.386719 372.632812 460.761719 367.945312 464.980469 369.800781 Z M 432.851562 373.660156 C 433.285156 371.316406 433.734375 368.988281 434.203125 366.644531 C 434.3125 366.105469 434.402344 365.527344 434.476562 364.96875 C 434.574219 363.101562 435.175781 361.414062 436.277344 359.902344 C 436.78125 359.347656 437.371094 358.914062 438.050781 358.601562 C 438.730469 358.289062 439.441406 358.121094 440.191406 358.097656 C 440.726562 358.113281 441.246094 358.21875 441.742188 358.421875 C 442.238281 358.625 442.683594 358.90625 443.078125 359.273438 C 443.472656 359.636719 443.789062 360.0625 444.027344 360.542969 C 444.265625 361.023438 444.410156 361.53125 444.464844 362.066406 C 445.707031 373.011719 446.160156 382.3125 444.464844 391.5625 C 443.25 391.03125 441.984375 390.769531 440.660156 390.769531 C 438.976562 390.773438 437.402344 391.1875 435.933594 392.015625 L 432.851562 380.023438 C 432.753906 379.257812 432.523438 378.527344 432.167969 377.84375 C 432.382812 376.4375 432.636719 375.046875 432.851562 373.660156 Z M 418.429688 389.886719 C 415.199219 386.839844 411.578125 380.871094 414.820312 376.90625 C 416.625 374.722656 420.773438 373.964844 424.773438 375.101562 C 428.109375 376.039062 430.183594 378.003906 430.617188 380.511719 L 434.097656 393.4375 C 433.441406 394.082031 432.90625 394.816406 432.492188 395.636719 C 429.902344 395.480469 427.410156 394.902344 425.015625 393.902344 C 422.621094 392.90625 420.453125 391.542969 418.519531 389.8125 Z M 415.652344 493.882812 C 417.238281 492.585938 418.824219 491.269531 420.464844 489.863281 C 425.460938 484.617188 430.257812 483.605469 435.792969 483.390625 L 421.242188 504.289062 C 413.8125 516.675781 405.429688 522.316406 395.65625 521.398438 C 397.53125 508.796875 406.328125 501.566406 415.652344 493.882812 Z M 367.367188 365.726562 L 387.453125 600.875 C 387.453125 601.363281 387.453125 601.847656 387.453125 602.351562 C 376.71875 580.140625 368.414062 557.058594 362.535156 533.097656 L 362.914062 533.097656 L 362.15625 531.601562 C 361.976562 530.898438 361.796875 530.195312 361.632812 529.511719 L 348.109375 458.671875 C 342.414062 431.554688 355.214844 396.9375 367.367188 365.742188 Z M 319.261719 515.519531 L 297.15625 489.285156 L 324.09375 494.695312 C 329.378906 497.300781 334.332031 500.425781 338.960938 504.074219 C 343.585938 507.71875 347.785156 511.804688 351.554688 516.332031 C 354.242188 521.144531 356.875 526.03125 359.378906 530.9375 C 355.71875 530.859375 352.089844 530.46875 348.492188 529.765625 C 344.898438 529.058594 341.390625 528.050781 337.972656 526.738281 C 334.554688 525.421875 331.273438 523.824219 328.132812 521.941406 C 324.988281 520.058594 322.03125 517.917969 319.261719 515.519531 Z M 506.199219 205.023438 C 506.605469 204.355469 507.121094 203.789062 507.746094 203.3125 C 508.367188 202.839844 509.054688 202.496094 509.804688 202.28125 C 510.09375 202.28125 510.417969 202.28125 510.722656 202.175781 C 511.210938 202.210938 511.6875 202.164062 512.15625 202.035156 C 512.628906 201.902344 513.0625 201.699219 513.460938 201.417969 C 513.855469 201.136719 514.195312 200.792969 514.476562 200.394531 C 514.753906 199.996094 514.960938 199.5625 515.085938 199.089844 L 515.320312 198.605469 C 515.796875 197.566406 516.542969 196.785156 517.558594 196.261719 C 517.988281 196.039062 518.445312 195.9375 518.929688 195.964844 C 519.414062 195.988281 519.859375 196.136719 520.261719 196.40625 C 520.4375 196.558594 520.609375 196.71875 520.765625 196.890625 C 521.203125 197.425781 521.742188 197.8125 522.386719 198.058594 C 523.03125 198.300781 523.691406 198.371094 524.375 198.261719 C 524.792969 198.226562 525.199219 198.277344 525.597656 198.40625 C 525.957031 198.652344 526.253906 198.957031 526.484375 199.324219 C 526.929688 200.039062 527.53125 200.585938 528.285156 200.964844 C 528.867188 201.195312 529.464844 201.296875 530.089844 201.273438 C 530.4375 201.261719 530.78125 201.304688 531.117188 201.398438 C 531.675781 201.667969 531.820312 202.335938 532.035156 203.417969 C 532.132812 204.222656 532.375 204.980469 532.757812 205.691406 C 533.347656 206.621094 534.003906 207.503906 534.722656 208.339844 C 535.585938 209.3125 536.339844 210.363281 536.976562 211.496094 C 537.445312 212.546875 537.707031 213.644531 537.765625 214.789062 C 537.824219 215.9375 537.675781 217.058594 537.320312 218.148438 C 536.757812 219.894531 535.941406 221.511719 534.867188 223 C 534.523438 223.484375 534.179688 223.953125 533.804688 224.421875 C 531.871094 226.839844 529.707031 229.027344 527.3125 230.988281 L 526.375 231.761719 C 524.765625 233.328125 522.902344 234.480469 520.785156 235.222656 C 519.972656 235.476562 519.125 235.675781 518.277344 235.871094 C 517.429688 236.070312 516.351562 236.339844 515.394531 236.667969 C 514.566406 236.941406 513.761719 237.273438 512.976562 237.65625 L 512.691406 237.800781 C 511.945312 238.191406 511.230469 238.621094 510.542969 239.101562 L 510.347656 239.226562 C 509.8125 238.878906 509.378906 238.4375 509.046875 237.890625 C 508.597656 237.226562 508.050781 236.65625 507.40625 236.179688 C 506.417969 235.546875 505.363281 235.074219 504.234375 234.753906 C 503.691406 234.574219 503.222656 234.375 502.738281 234.179688 C 502.738281 234.035156 502.738281 233.890625 502.738281 233.746094 C 502.570312 232.734375 502.386719 231.726562 502.195312 230.714844 C 502.050781 230.03125 501.925781 229.347656 501.800781 228.660156 C 501.410156 226.816406 501.1875 224.953125 501.136719 223.066406 C 501.085938 221.183594 501.203125 219.308594 501.492188 217.445312 C 501.78125 215.582031 502.234375 213.757812 502.851562 211.976562 C 503.46875 210.195312 504.242188 208.484375 505.171875 206.84375 C 505.371094 206.195312 505.765625 205.601562 506.199219 205.023438 Z M 480.289062 222.1875 C 480.074219 221.808594 479.894531 221.394531 479.710938 221 C 479.476562 220.410156 479.195312 219.84375 478.863281 219.304688 C 478.8125 218.859375 478.621094 218.488281 478.289062 218.183594 C 477.785156 217.671875 477.371094 217.09375 477.046875 216.453125 C 476.722656 215.808594 476.5 215.132812 476.386719 214.425781 C 476.269531 213.714844 476.261719 213.003906 476.367188 212.292969 C 476.46875 211.578125 476.675781 210.898438 476.988281 210.253906 C 477.789062 208.890625 478.78125 207.691406 479.964844 206.644531 C 481.304688 205.097656 482.941406 203.972656 484.867188 203.273438 L 485.699219 203.113281 C 486.402344 203.09375 487.070312 202.925781 487.703125 202.613281 C 488.332031 202.296875 488.867188 201.863281 489.304688 201.308594 C 489.640625 200.683594 489.824219 200.019531 489.84375 199.308594 L 489.84375 198.910156 C 490.058594 197.46875 490.710938 196.265625 491.8125 195.304688 C 491.996094 195.121094 492.210938 194.988281 492.460938 194.910156 C 492.785156 194.910156 493.199219 195.214844 493.792969 195.808594 C 494.246094 196.285156 494.757812 196.6875 495.328125 197.019531 C 496.28125 197.46875 497.285156 197.652344 498.335938 197.578125 C 498.949219 197.535156 499.550781 197.59375 500.140625 197.757812 C 500.621094 197.984375 501.03125 198.304688 501.367188 198.71875 C 501.703125 199.132812 501.929688 199.601562 502.050781 200.121094 C 502.285156 201.050781 502.429688 201.992188 502.484375 202.949219 L 502.59375 204.03125 C 502.671875 204.722656 502.785156 205.40625 502.933594 206.085938 C 502.71875 206.449219 502.539062 206.828125 502.339844 207.1875 C 502.140625 207.546875 501.925781 207.945312 501.746094 208.339844 C 501.566406 208.738281 501.347656 209.277344 501.148438 209.730469 C 500.953125 210.179688 500.824219 210.539062 500.679688 210.957031 C 500.539062 211.371094 500.355469 211.945312 500.210938 212.453125 C 500.070312 212.957031 499.960938 213.28125 499.851562 213.695312 C 499.742188 214.109375 499.617188 214.777344 499.527344 215.320312 C 499.4375 215.859375 499.347656 216.148438 499.273438 216.582031 C 499.203125 217.011719 499.148438 217.734375 499.078125 218.382812 C 499.003906 219.03125 499.078125 219.214844 498.949219 219.644531 C 498.824219 220.078125 498.949219 220.890625 498.949219 221.449219 C 498.949219 222.007812 498.949219 222.242188 498.949219 222.65625 C 498.949219 223.378906 498.949219 224.097656 499.078125 224.820312 L 499.078125 225.832031 C 499.183594 226.894531 499.328125 227.957031 499.527344 229.039062 C 499.652344 229.742188 499.78125 230.429688 499.925781 231.132812 C 499.925781 231.367188 500.015625 231.617188 500.070312 231.871094 C 499.882812 231.535156 499.746094 231.179688 499.652344 230.804688 L 499.5625 230.410156 C 499.472656 229.898438 499.300781 229.410156 499.058594 228.949219 C 498.894531 228.644531 498.683594 228.375 498.425781 228.136719 L 498.230469 227.957031 C 498.023438 227.789062 497.800781 227.644531 497.5625 227.523438 L 497.382812 227.433594 C 497.085938 227.296875 496.78125 227.195312 496.460938 227.128906 L 496.210938 227.128906 C 495.945312 227.109375 495.679688 227.109375 495.417969 227.128906 L 494.207031 227.128906 C 493.921875 227.164062 493.640625 227.21875 493.359375 227.289062 L 492.421875 227.542969 C 491.34375 227.988281 490.234375 228.097656 489.089844 227.867188 C 488.625 227.660156 488.191406 227.402344 487.789062 227.09375 C 487.339844 226.742188 486.859375 226.441406 486.347656 226.191406 C 486.089844 226.0625 485.820312 225.972656 485.535156 225.921875 C 485.222656 225.882812 484.910156 225.882812 484.597656 225.921875 L 484.492188 225.921875 C 482.78125 225.027344 481.378906 223.78125 480.289062 222.1875 Z M 484.4375 286.449219 C 472.054688 294.738281 458.832031 301.347656 444.769531 306.28125 C 434.367188 307.578125 425.585938 306.28125 417.996094 302.421875 C 424.523438 297.050781 431.621094 291.75 439.289062 286.519531 Z M 521.976562 257.039062 C 521.660156 256.425781 521.234375 255.902344 520.695312 255.472656 C 519.023438 254.085938 517.160156 253.035156 515.109375 252.320312 C 513.058594 251.601562 510.949219 251.265625 508.777344 251.308594 C 508.378906 251.308594 508.019531 251.214844 507.640625 251.179688 C 502.230469 249.847656 498.519531 248.167969 496.226562 246.078125 C 495.4375 245.261719 494.765625 244.363281 494.207031 243.375 C 493.921875 242.847656 493.730469 242.289062 493.632812 241.695312 C 493.542969 241.296875 493.484375 240.894531 493.453125 240.488281 C 493.453125 240 493.453125 239.53125 493.363281 239.027344 C 493.339844 237.875 493.214844 236.734375 492.984375 235.601562 C 492.679688 234.285156 492.167969 233.054688 491.449219 231.90625 C 491.042969 231.246094 490.5625 230.644531 490.007812 230.101562 L 490.296875 230.101562 C 490.636719 230.089844 490.972656 230.046875 491.304688 229.976562 L 491.703125 229.976562 L 492.945312 229.671875 L 493.8125 229.4375 C 495.09375 229.113281 496.605469 229.183594 497.074219 230.050781 C 497.207031 230.332031 497.296875 230.625 497.347656 230.933594 L 497.472656 231.417969 C 497.601562 231.90625 497.773438 232.375 497.996094 232.824219 C 498.234375 233.277344 498.511719 233.703125 498.824219 234.105469 C 499.34375 234.71875 499.941406 235.238281 500.628906 235.65625 L 501.152344 235.925781 L 502.953125 236.847656 L 502.953125 236.648438 L 503.441406 236.8125 C 504.367188 237.066406 505.238281 237.445312 506.054688 237.945312 C 506.488281 238.304688 506.867188 238.710938 507.191406 239.171875 C 507.5625 239.707031 507.988281 240.195312 508.472656 240.632812 L 508.128906 240.902344 L 510.148438 241.535156 L 510.6875 241.695312 L 511.335938 241.859375 C 512 241.910156 512.597656 242.125 513.140625 242.507812 C 513.351562 242.722656 513.53125 242.964844 513.679688 243.230469 C 513.914062 243.617188 514.191406 243.972656 514.511719 244.292969 C 515.234375 244.933594 516.0625 245.363281 517 245.589844 C 517.367188 245.628906 517.714844 245.734375 518.042969 245.910156 C 518.367188 246.089844 518.648438 246.324219 518.878906 246.613281 C 519.109375 246.902344 519.273438 247.226562 519.375 247.585938 C 519.472656 247.941406 519.5 248.304688 519.449219 248.675781 C 519.535156 249.285156 519.667969 249.886719 519.847656 250.476562 C 520.351562 251.769531 521.078125 252.925781 522.027344 253.9375 C 522.390625 254.359375 522.730469 254.792969 523.058594 255.238281 C 523.285156 255.488281 523.46875 255.769531 523.613281 256.078125 C 523.753906 256.386719 523.847656 256.710938 523.886719 257.046875 C 523.929688 257.382812 523.917969 257.71875 523.859375 258.054688 C 523.796875 258.386719 523.683594 258.707031 523.527344 259.003906 C 523.109375 259.371094 522.628906 259.59375 522.082031 259.671875 C 522.363281 258.78125 522.328125 257.90625 521.976562 257.039062 Z M 543.609375 252.585938 L 543.234375 252.75 C 542.5625 252.957031 541.964844 253.289062 541.429688 253.742188 C 540.9375 254.265625 540.5625 254.867188 540.3125 255.542969 C 540.222656 255.742188 540.148438 255.921875 540.058594 256.101562 C 539.515625 257.007812 538.820312 257.773438 537.96875 258.398438 C 537.121094 259.023438 536.179688 259.460938 535.15625 259.707031 C 533.191406 260.441406 531.164062 260.703125 529.078125 260.503906 C 527.929688 260.367188 526.851562 260.003906 525.851562 259.421875 C 525.925781 259.257812 525.980469 259.089844 526.015625 258.914062 L 526.015625 258.769531 C 526.066406 258.519531 526.105469 258.269531 526.121094 258.015625 L 526.121094 257.6875 C 526.121094 257.507812 526.121094 257.328125 526.121094 257.148438 L 526.121094 256.84375 C 526.101562 256.683594 526.074219 256.527344 526.03125 256.375 C 526.011719 256.257812 525.984375 256.140625 525.941406 256.03125 C 525.902344 255.878906 525.855469 255.726562 525.796875 255.578125 C 525.796875 255.472656 525.707031 255.363281 525.671875 255.273438 L 525.453125 254.804688 L 525.3125 254.535156 C 525.183594 254.300781 525.039062 254.082031 524.894531 253.867188 C 524.535156 253.363281 524.15625 252.894531 523.761719 252.425781 C 522.988281 251.621094 522.390625 250.707031 521.957031 249.683594 C 521.808594 249.199219 521.707031 248.707031 521.652344 248.207031 C 521.582031 246.835938 521.09375 245.632812 520.191406 244.597656 C 519.460938 243.976562 518.632812 243.550781 517.703125 243.320312 C 517.097656 243.1875 516.550781 242.933594 516.0625 242.5625 C 515.878906 242.339844 515.710938 242.105469 515.554688 241.859375 C 515.308594 241.445312 515.011719 241.066406 514.671875 240.722656 C 514.449219 240.53125 514.207031 240.363281 513.953125 240.21875 L 513.679688 240.09375 L 513.195312 239.875 L 513.375 239.75 L 513.679688 239.605469 C 514.4375 239.210938 515.21875 238.878906 516.023438 238.613281 C 516.921875 238.320312 517.828125 238.074219 518.746094 237.875 C 519.632812 237.65625 520.550781 237.460938 521.378906 237.171875 C 523.78125 236.355469 525.898438 235.070312 527.726562 233.3125 L 528.644531 232.539062 C 531.167969 230.484375 533.449219 228.1875 535.480469 225.648438 C 535.75 225.289062 536.019531 224.945312 536.273438 224.585938 C 537.863281 224.59375 539.425781 224.804688 540.960938 225.21875 C 542.058594 225.386719 542.953125 225.902344 543.648438 226.769531 C 543.9375 227.335938 544.109375 227.9375 544.171875 228.570312 C 544.265625 229.296875 544.464844 229.992188 544.765625 230.664062 C 545.132812 231.328125 545.589844 231.929688 546.136719 232.464844 C 546.605469 232.917969 546.972656 233.4375 547.234375 234.035156 C 547.4375 235.042969 547.339844 236.023438 546.945312 236.972656 C 546.554688 238.101562 546.398438 239.261719 546.476562 240.453125 C 546.640625 241.371094 546.953125 242.238281 547.414062 243.050781 C 547.6875 243.542969 547.902344 244.058594 548.066406 244.597656 C 548.859375 247.609375 546.261719 251.46875 543.59375 252.585938 Z M 543.609375 252.585938 " fill-opacity="1" fill-rule="nonzero"/></g></svg>