<svg xmlns="http://www.w3.org/2000/svg" xmlns:xlink="http://www.w3.org/1999/xlink" width="1080" zoomAndPan="magnify" viewBox="0 0 810 809.999993" height="1080" preserveAspectRatio="xMidYMid meet" version="1.0"><defs><clipPath id="9e94f4e4fa"><path d="M 225.320312 48 L 577.820312 48 L 577.820312 776.660156 L 225.320312 776.660156 Z M 225.320312 48 " clip-rule="nonzero"/></clipPath></defs><g clip-path="url(#9e94f4e4fa)"><path fill="#6d1f1f" d="M 577.679688 515.964844 C 577.636719 513.914062 577.515625 511.871094 577.273438 509.828125 C 576.457031 502.945312 574.0625 495.449219 567.878906 491.570312 C 566.90625 490.960938 565.871094 490.46875 564.800781 490.085938 C 563.28125 489.539062 561.675781 489.222656 560.058594 489.09375 C 557.4375 488.886719 554.78125 489.15625 552.214844 489.714844 C 546.324219 490.980469 540.710938 493.199219 534.984375 495.035156 C 534.132812 495.308594 533.269531 495.558594 532.40625 495.820312 C 531.90625 495.976562 531.414062 496.140625 530.898438 496.28125 C 530.386719 496.421875 529.875 496.53125 529.359375 496.664062 C 528.476562 496.882812 527.589844 497.101562 526.714844 497.308594 C 525.941406 497.484375 525.152344 497.636719 524.378906 497.800781 C 522.792969 498.136719 521.210938 498.476562 519.625 498.828125 C 515.683594 499.699219 511.75 500.628906 507.839844 501.621094 C 495.863281 504.691406 484.054688 508.539062 472.902344 513.925781 C 470.507812 515.082031 468.128906 516.285156 465.789062 517.539062 C 461.792969 519.679688 457.878906 522.074219 454.492188 525.109375 C 453.683594 525.84375 452.921875 526.617188 452.144531 527.394531 C 450.988281 528.550781 449.839844 529.722656 448.714844 530.902344 C 444.234375 535.566406 440.03125 540.546875 436.6875 546.097656 C 435.8125 547.5625 435.003906 549.078125 434.21875 550.585938 C 432.449219 553.953125 430.777344 557.382812 428.863281 560.671875 C 426.953125 563.949219 424.746094 566.996094 422.246094 569.835938 C 419.90625 570.71875 417.625 571.738281 415.492188 573.027344 C 413.886719 573.996094 412.347656 575.101562 410.914062 576.335938 C 409.835938 577.265625 408.839844 578.28125 407.824219 579.285156 C 406.558594 580.554688 405.277344 581.820312 404.011719 583.085938 C 399.804688 587.316406 395.6875 591.628906 391.808594 596.140625 C 392.496094 593.335938 393.175781 590.515625 393.863281 587.707031 C 396.726562 576.195312 399.761719 564.734375 402.503906 553.1875 C 405.386719 541.050781 408.066406 528.867188 410.621094 516.667969 C 411.878906 510.691406 413.132812 504.726562 414.257812 498.71875 C 415.917969 489.792969 417.316406 480.8125 418.378906 471.800781 C 418.640625 469.601562 418.878906 467.40625 419.097656 465.210938 C 419.242188 463.703125 419.382812 462.207031 419.558594 460.710938 C 420.039062 456.753906 420.628906 452.8125 420.8125 448.835938 C 426.15625 451.414062 431.816406 453.371094 437.453125 455.148438 C 445.097656 457.5625 452.964844 459.574219 461.015625 459.695312 C 467.929688 459.804688 474.75 458.449219 481.25 456.175781 C 483.773438 455.292969 486.261719 454.308594 488.664062 453.140625 C 493.867188 450.628906 498.683594 447.339844 502.769531 443.242188 C 509.292969 436.71875 514.132812 428.636719 517.867188 420.246094 C 520.992188 413.234375 523.363281 405.878906 525.089844 398.398438 C 526.695312 391.425781 527.753906 384.304688 528.09375 377.148438 C 528.222656 374.320312 528.265625 371.480469 528.070312 368.660156 C 527.796875 364.816406 527.230469 361.011719 527.207031 357.15625 C 527.207031 355.550781 527.328125 353.933594 527.46875 352.328125 C 527.722656 349.453125 528.101562 346.59375 528.410156 343.730469 C 529 338.289062 529.402344 332.707031 528.265625 327.300781 C 527.917969 325.640625 527.40625 324.011719 526.769531 322.4375 C 526.105469 320.777344 525.296875 319.183594 524.289062 317.707031 C 523.035156 315.851562 521.460938 314.234375 519.648438 312.933594 C 517.582031 311.460938 515.257812 310.398438 512.863281 309.582031 C 510.972656 308.9375 509.007812 308.464844 507.03125 308.191406 C 505.160156 307.929688 503.292969 307.84375 501.449219 307.910156 C 501.273438 307.875 501.097656 307.886719 500.914062 307.929688 C 492.816406 308.3125 484.996094 311.460938 477.863281 315.207031 C 472.410156 318.070312 467.210938 321.355469 461.910156 324.480469 C 455.914062 328.011719 449.839844 331.386719 443.753906 334.75 C 438.5 337.65625 433.222656 340.550781 428.011719 343.554688 C 426.320312 344.527344 424.636719 345.53125 422.953125 346.515625 C 421.5 347.367188 420.027344 348.21875 418.574219 349.09375 C 418.628906 347.9375 418.660156 346.765625 418.652344 345.597656 C 418.605469 339.65625 417.953125 333.746094 417.644531 327.8125 C 417.414062 323.34375 417.144531 318.878906 416.761719 314.410156 C 416.804688 311.515625 416.835938 308.617188 416.761719 305.722656 C 416.664062 301.363281 416.390625 297.007812 416.683594 292.648438 C 416.878906 289.808594 417.351562 287.011719 418.136719 284.289062 C 419.414062 280.816406 421.371094 277.679688 423.621094 274.742188 C 425.71875 272 427.925781 269.3125 430.535156 267.050781 C 432.261719 265.554688 434.183594 264.199219 436.28125 263.269531 C 437.265625 262.835938 438.292969 262.507812 439.339844 262.289062 C 445.65625 260.957031 451.851562 264.058594 457.191406 267.0625 C 458.230469 267.640625 459.257812 268.242188 460.285156 268.84375 C 461.539062 269.574219 462.808594 270.304688 464.085938 271.003906 C 465.757812 271.921875 467.429688 272.796875 469.210938 273.484375 C 472.015625 274.554688 474.964844 275.277344 477.925781 275.78125 C 481.542969 276.390625 485.234375 276.699219 488.90625 276.589844 C 491.179688 276.523438 493.449219 276.28125 495.691406 275.945312 C 499.644531 275.355469 503.554688 274.390625 507.347656 273.101562 C 529.972656 265.359375 547.023438 245.945312 556.058594 224.28125 C 557.46875 220.917969 558.714844 217.476562 559.761719 213.980469 C 561.304688 208.890625 562.472656 203.667969 563.148438 198.390625 C 564.15625 190.589844 563.804688 182.617188 562.210938 174.925781 C 561.640625 172.183594 560.933594 169.460938 560.023438 166.820312 C 558.320312 161.78125 555.796875 157.085938 553.753906 152.191406 C 553.523438 151.644531 553.273438 151.097656 553.066406 150.539062 C 552.804688 149.839844 552.574219 149.121094 552.324219 148.410156 C 551.984375 147.425781 551.679688 146.464844 551.460938 145.449219 C 550.355469 140.425781 550.039062 134.417969 545.878906 130.789062 C 545.375 130.351562 544.828125 129.957031 544.238281 129.632812 C 543.222656 129.050781 542.109375 128.660156 540.984375 128.375 C 537.421875 127.480469 533.785156 127.949219 530.199219 128.441406 C 528.921875 128.617188 527.65625 128.757812 526.378906 128.886719 C 523.417969 129.183594 520.433594 129.46875 517.5625 130.285156 C 513.597656 131.421875 510.054688 133.507812 506.253906 135.0625 C 501.183594 137.125 495.722656 137.703125 490.402344 138.773438 C 489.59375 138.9375 488.785156 139.136719 487.976562 139.308594 C 487.476562 139.417969 486.960938 139.519531 486.460938 139.648438 C 485.804688 139.824219 485.160156 140.054688 484.515625 140.261719 C 483.882812 140.457031 483.238281 140.644531 482.613281 140.863281 C 481.574219 141.222656 480.558594 141.679688 479.566406 142.152344 C 477.316406 143.222656 475.175781 144.464844 472.945312 145.570312 C 471.449219 146.3125 469.863281 146.804688 468.347656 147.515625 C 467.058594 148.117188 465.832031 148.878906 464.699219 149.742188 C 461.757812 151.992188 459.53125 154.964844 456.808594 157.445312 C 456.164062 158.035156 455.488281 158.582031 454.820312 159.148438 C 453.585938 160.199219 452.375 161.28125 451.183594 162.382812 C 448.179688 165.191406 445.371094 168.226562 443.023438 171.613281 C 441.601562 173.644531 440.390625 175.808594 439.375 178.082031 C 438.007812 181.152344 437.015625 184.375 436.019531 187.574219 C 435.410156 189.53125 434.773438 191.464844 434.25 193.441406 C 433.539062 196.128906 432.984375 198.859375 432.570312 201.613281 C 431.0625 211.585938 431.453125 221.734375 432.46875 231.742188 C 432.644531 233.402344 432.808594 235.074219 432.929688 236.746094 C 433.167969 240.21875 433.34375 243.761719 434.238281 247.148438 C 434.578125 248.425781 435.039062 249.660156 435.574219 250.871094 C 436.164062 252.214844 436.808594 253.546875 437.167969 254.980469 C 436.863281 256.957031 435.496094 258.640625 434.019531 260.058594 C 429.726562 262.125 426.078125 265.554688 423.042969 269.191406 C 420.375 272.394531 417.820312 275.734375 415.941406 279.472656 C 414.816406 281.722656 413.976562 284.105469 413.375 286.539062 C 412.214844 279.066406 410.871094 271.640625 409.363281 264.242188 C 408.601562 260.507812 407.769531 256.792969 406.875 253.089844 C 404.765625 244.394531 402.472656 235.699219 401.542969 226.785156 C 401.183594 223.363281 401.0625 219.921875 401.171875 216.480469 C 401.695312 199.996094 407.046875 184.210938 412.152344 168.6875 C 413.582031 164.339844 415.789062 160.261719 416.878906 155.796875 C 417.308594 154.046875 417.644531 152.257812 417.941406 150.476562 C 418.5625 146.738281 418.933594 142.960938 419.097656 139.179688 C 419.296875 134.667969 419.140625 130.144531 418.683594 125.65625 C 417.558594 114.871094 414.542969 104.21875 409.417969 94.652344 C 399.304688 75.742188 381.375 62.46875 362.117188 53.835938 C 357.375 51.71875 352.339844 50.023438 347.269531 48.953125 C 343.882812 48.230469 340.300781 47.695312 336.859375 48.339844 C 335.570312 48.582031 334.292969 48.964844 333.089844 49.5 C 328.152344 51.652344 324.90625 56 322.753906 60.785156 C 321.945312 62.585938 321.28125 64.445312 320.699219 66.324219 C 320.101562 68.269531 319.585938 70.246094 319.160156 72.234375 C 318.503906 75.28125 318.046875 78.375 317.402344 81.433594 C 317.097656 82.875 316.757812 84.316406 316.320312 85.738281 C 315.554688 88.183594 314.628906 90.597656 314.199219 93.132812 C 313.828125 95.328125 313.753906 97.589844 313.773438 99.808594 C 313.808594 104.15625 314.386719 108.523438 315.5 112.71875 C 315.949219 114.425781 316.527344 116.09375 317.085938 117.777344 C 317.859375 120.105469 318.691406 122.410156 319.542969 124.703125 C 322.382812 132.273438 325.714844 139.703125 329.976562 146.585938 C 333.285156 151.9375 337.285156 156.789062 341.171875 161.726562 C 342.539062 163.464844 343.871094 165.222656 345.171875 167.003906 C 347.238281 169.855469 349.324219 172.730469 351.902344 175.144531 C 353.003906 176.167969 354.152344 177.140625 355.308594 178.101562 C 357.40625 179.863281 359.582031 181.554688 361.753906 183.226562 C 368.191406 188.152344 374.800781 192.882812 380.773438 198.378906 C 386.402344 203.558594 391.46875 209.511719 394.484375 216.613281 C 394.933594 217.660156 395.316406 218.730469 395.664062 219.8125 C 396.089844 221.5625 396.472656 223.320312 396.867188 225.078125 C 397.183594 226.5 397.535156 227.917969 397.90625 229.328125 C 398.886719 237.085938 400.800781 244.6875 402.644531 252.28125 C 403.597656 256.191406 404.523438 260.113281 405.34375 264.058594 C 408.390625 278.894531 410.816406 293.871094 412.347656 308.945312 C 412.992188 315.304688 413.429688 321.671875 413.757812 328.054688 C 414.148438 335.820312 415.15625 343.589844 414.542969 351.378906 C 414.542969 351.488281 414.542969 351.585938 414.542969 351.695312 C 412.523438 353.058594 410.566406 354.523438 408.773438 356.195312 C 407.265625 357.605469 405.859375 359.113281 404.535156 360.683594 C 400.339844 354.65625 395.796875 348.832031 392.136719 342.441406 C 390.257812 339.152344 388.707031 335.710938 387.382812 332.171875 C 385.320312 326.632812 383.78125 320.898438 382.445312 315.140625 C 381.714844 311.941406 381.003906 308.71875 380.402344 305.496094 C 379.824219 302.371094 379.398438 299.214844 378.796875 296.089844 C 378.359375 293.804688 377.804688 291.554688 377.105469 289.335938 C 371.652344 272.011719 360.117188 256.878906 345.171875 246.621094 C 340.582031 243.476562 335.691406 240.765625 330.542969 238.648438 C 326.121094 236.832031 321.5 235.414062 316.777344 234.648438 C 314.5625 234.289062 312.320312 234.089844 310.082031 234.027344 C 298.425781 233.675781 287.019531 236.691406 275.417969 237.207031 C 272.972656 237.3125 270.515625 237.269531 268.054688 237.28125 C 262.496094 237.3125 256.738281 237.554688 251.527344 239.730469 C 250.53125 240.144531 249.570312 240.625 248.652344 241.171875 C 247.507812 241.859375 246.4375 242.644531 245.453125 243.542969 C 239.105469 249.277344 237.523438 258.050781 235.511719 265.949219 C 235.152344 267.355469 234.835938 268.765625 234.570312 270.1875 C 234.089844 272.722656 233.742188 275.277344 233.195312 277.800781 C 232.671875 280.246094 231.9375 282.664062 231.578125 285.140625 C 231.425781 286.167969 231.347656 287.207031 231.339844 288.234375 C 231.339844 289.273438 231.382812 290.296875 231.535156 291.324219 C 232.203125 296.066406 233.90625 300.566406 236.363281 304.652344 C 239.402344 309.699219 243.433594 314.046875 247.300781 318.460938 C 253.855469 325.933594 260.472656 333.625 269.09375 338.78125 C 271.210938 340.050781 273.441406 341.140625 275.714844 342.125 C 283.066406 345.316406 290.933594 347.140625 298.875 348.101562 C 301.660156 348.4375 304.457031 348.667969 307.265625 348.820312 C 309.644531 348.964844 312.027344 349.039062 314.410156 349.160156 C 323.257812 349.585938 332.148438 350.164062 340.964844 348.972656 C 345.304688 348.382812 349.574219 347.433594 353.945312 347.039062 C 356.261719 346.832031 358.585938 346.777344 360.914062 346.703125 C 363.742188 346.59375 366.574219 346.460938 369.402344 346.199219 C 370.679688 346.078125 371.949219 345.925781 373.226562 345.816406 C 374.011719 345.75 374.800781 345.695312 375.585938 345.640625 C 376.035156 345.609375 376.492188 345.566406 376.953125 345.542969 C 377.714844 345.511719 378.480469 345.523438 379.246094 345.523438 C 379.695312 345.523438 380.164062 345.511719 380.609375 345.523438 C 382.632812 345.554688 384.675781 345.839844 386.621094 346.351562 C 388.050781 346.734375 389.425781 347.257812 390.761719 347.925781 C 390.816406 347.957031 390.871094 347.949219 390.925781 347.96875 C 394.398438 353.429688 398.332031 358.597656 401.992188 363.941406 C 399.554688 367.238281 397.402344 370.746094 395.425781 374.332031 C 393.621094 377.574219 391.6875 380.785156 390.519531 384.335938 C 389.570312 387.222656 389.121094 390.289062 388.859375 393.304688 C 388.695312 395.183594 388.617188 397.074219 388.640625 398.964844 C 388.664062 400.855469 388.792969 402.746094 389.046875 404.613281 C 389.242188 406.023438 389.546875 407.398438 389.851562 408.785156 C 390.3125 410.839844 390.835938 412.871094 391.382812 414.902344 C 391.503906 415.351562 391.632812 415.800781 391.753906 416.246094 C 391.820312 416.476562 391.753906 416.246094 392.039062 417.328125 C 392.113281 417.601562 392.234375 417.855469 392.398438 418.0625 C 392.53125 418.476562 392.671875 418.957031 392.835938 419.40625 C 393.128906 420.160156 393.449219 420.878906 393.796875 421.613281 C 395.863281 425.894531 398.648438 429.914062 401.628906 433.605469 C 404.492188 437.15625 407.636719 440.523438 411.289062 443.253906 C 408.402344 449.773438 403.300781 454.910156 399.25 460.699219 C 395.90625 465.484375 393.503906 470.816406 390.75 475.9375 C 386.269531 484.296875 381.375 492.753906 380.765625 502.441406 C 380.675781 503.785156 380.621094 505.117188 380.589844 506.460938 C 380.492188 510.492188 380.664062 514.515625 381.375 518.492188 C 381.648438 520 382.007812 521.484375 382.425781 522.957031 C 382.917969 524.707031 383.472656 526.445312 383.878906 528.214844 C 384.25 529.839844 384.480469 531.492188 384.773438 533.140625 C 385.296875 535.96875 385.921875 538.789062 386.761719 541.542969 C 385.351562 539.597656 383.8125 537.730469 382.183594 535.949219 C 381.046875 534.703125 379.890625 533.46875 378.6875 532.289062 C 377.816406 531.425781 376.886719 530.628906 375.957031 529.820312 C 374.175781 527.578125 372.441406 525.285156 370.921875 522.847656 C 370.234375 521.746094 369.597656 520.621094 369.054688 519.441406 C 368.046875 517.257812 367.292969 514.960938 366.464844 512.699219 C 365.875 511.105469 365.242188 509.542969 364.5625 507.992188 C 361.132812 500.105469 356.730469 492.535156 351.039062 486.066406 C 338.039062 471.273438 319.257812 462.601562 300.292969 458.425781 C 296.929688 457.683594 293.53125 457.082031 290.132812 456.625 C 285.730469 456.023438 281.296875 455.640625 276.859375 455.488281 C 270.832031 455.269531 264.703125 455.347656 258.714844 456.164062 C 254.179688 456.789062 249.636719 457.847656 245.484375 459.816406 C 244.339844 460.359375 243.222656 460.984375 242.152344 461.660156 C 241.191406 462.285156 240.261719 462.960938 239.5 463.824219 C 238.8125 464.609375 238.273438 465.515625 237.882812 466.488281 C 237.554688 467.308594 237.257812 468.160156 237.183594 469.046875 C 237.140625 469.503906 237.160156 469.972656 237.160156 470.433594 C 237.160156 470.640625 237.195312 470.914062 237.148438 471.121094 C 237.085938 471.382812 236.867188 471.667969 236.703125 471.886719 C 236.125 472.652344 235.261719 473.078125 234.429688 473.515625 C 233.652344 473.929688 232.890625 474.367188 232.203125 474.921875 C 230.945312 475.949219 230.015625 477.304688 229.175781 478.671875 C 228.378906 479.960938 227.636719 481.3125 227.078125 482.722656 C 226.78125 483.476562 226.585938 484.265625 226.390625 485.0625 C 226.160156 486.042969 225.972656 487.039062 225.917969 488.042969 C 225.875 488.929688 225.929688 489.8125 225.941406 490.699219 C 225.941406 491.5625 225.910156 492.425781 225.832031 493.277344 C 225.648438 495.515625 225.308594 497.753906 225.296875 500.007812 C 225.296875 500.761719 225.320312 501.515625 225.417969 502.265625 C 225.582031 503.601562 225.855469 504.921875 226.171875 506.234375 C 226.890625 509.238281 227.941406 512.15625 229.25 514.941406 C 234.136719 525.285156 242.808594 534.15625 253.199219 538.996094 C 255.132812 539.902344 257.140625 540.65625 259.175781 541.324219 C 264.132812 542.949219 269.269531 543.933594 274.445312 544.445312 C 280.257812 545.015625 286.15625 544.894531 291.957031 544.273438 C 300.710938 543.332031 309.351562 541.214844 317.554688 538.023438 C 319.050781 537.445312 320.527344 536.832031 322.023438 536.242188 C 325.191406 534.996094 328.390625 533.808594 331.636719 532.746094 C 339.152344 530.289062 346.910156 528.5625 354.828125 528.289062 C 356.632812 528.222656 358.421875 528.269531 360.226562 528.214844 C 362.519531 528.160156 364.914062 528.058594 367.085938 528.878906 C 367.710938 529.109375 368.300781 529.425781 368.867188 529.742188 C 370.800781 530.835938 372.429688 532.320312 374.078125 533.796875 C 375.914062 536.058594 377.78125 538.296875 379.640625 540.535156 C 380.632812 541.726562 381.691406 542.851562 382.71875 544.011719 C 383.726562 545.144531 384.707031 546.316406 385.460938 547.636719 C 385.929688 548.46875 386.347656 549.332031 386.738281 550.195312 C 387.691406 552.324219 388.421875 554.542969 389.011719 556.792969 C 390.433594 562.308594 390.933594 568 391.414062 573.671875 C 391.382812 574.0625 391.351562 574.46875 391.316406 574.859375 C 391.175781 576.695312 391 578.53125 390.804688 580.367188 C 389.898438 584.234375 388.992188 588.113281 388.074219 591.980469 C 380.523438 623.878906 372.613281 655.703125 363.796875 687.273438 C 360.957031 697.457031 358.019531 707.628906 354.980469 717.753906 C 351.476562 729.410156 347.816406 741.023438 344.199219 752.648438 C 342.136719 759.300781 340.09375 765.964844 338.050781 772.617188 C 337.972656 772.890625 337.941406 773.164062 337.960938 773.4375 C 338.050781 774.246094 338.59375 774.957031 339.414062 775.207031 C 339.632812 775.273438 339.851562 775.292969 340.070312 775.28125 C 340.363281 775.710938 340.792969 776.046875 341.335938 776.15625 C 342.453125 776.398438 343.554688 775.6875 343.796875 774.5625 C 344.222656 772.59375 344.757812 770.652344 345.390625 768.738281 C 347.773438 761.628906 351.324219 754.984375 353.59375 747.828125 C 354.066406 746.34375 354.46875 744.835938 354.894531 743.328125 C 355.550781 741.011719 356.195312 738.695312 356.808594 736.371094 C 358.304688 730.644531 359.734375 724.898438 361.199219 719.152344 C 362.335938 714.683594 363.515625 710.226562 364.792969 705.804688 C 365.546875 703.179688 366.367188 700.570312 367.085938 697.9375 C 369.488281 689.242188 371.28125 680.382812 373.390625 671.621094 C 374.964844 665.085938 376.65625 658.585938 378.261719 652.066406 C 380.121094 644.539062 381.910156 636.976562 383.726562 629.441406 C 385.59375 621.652344 387.449219 613.863281 389.328125 606.082031 C 389.765625 605.328125 390.226562 604.574219 390.726562 603.855469 C 393.085938 600.480469 396.027344 597.550781 398.746094 594.46875 C 400.449219 592.535156 402.199219 590.648438 404 588.8125 C 405.597656 587.195312 407.246094 585.632812 408.9375 584.125 C 414.292969 579.382812 420.453125 575.015625 427.203125 572.359375 C 429.0625 571.835938 430.941406 571.417969 432.839844 571.15625 C 434.785156 570.882812 436.742188 570.753906 438.695312 570.773438 C 446.148438 570.863281 453.324219 573.15625 460.140625 576.007812 C 469.644531 579.996094 478.726562 585.128906 488.675781 587.949219 C 491.125 588.636719 493.605469 589.160156 496.128906 589.46875 C 510.101562 591.171875 524.28125 586.84375 536.394531 580.09375 C 538.742188 578.78125 541.039062 577.375 543.265625 575.867188 C 545.890625 574.085938 548.433594 572.183594 550.871094 570.152344 C 554.441406 567.179688 557.808594 563.957031 560.867188 560.453125 C 566.011719 554.574219 570.273438 547.910156 573.1875 540.644531 C 576.3125 532.835938 577.800781 524.421875 577.636719 516.011719 Z M 370.867188 184.929688 C 369.054688 183.542969 367.21875 182.179688 365.394531 180.789062 C 363.054688 179.019531 360.75 177.21875 358.488281 175.359375 C 357.210938 174.3125 355.933594 173.242188 354.71875 172.117188 C 352.402344 169.953125 350.535156 167.375 348.679688 164.820312 C 347.292969 162.90625 345.882812 161.015625 344.417969 159.160156 C 340.628906 154.34375 336.714844 149.613281 333.484375 144.402344 C 329.351562 137.746094 326.140625 130.558594 323.398438 123.238281 C 322.515625 120.871094 321.671875 118.488281 320.863281 116.085938 C 320.460938 114.871094 320.035156 113.660156 319.683594 112.414062 C 318.515625 108.304688 317.902344 104.011719 317.871094 99.742188 C 317.851562 97.773438 317.914062 95.742188 318.253906 93.796875 C 318.625 91.59375 319.421875 89.484375 320.101562 87.351562 C 320.636719 85.671875 321.050781 83.976562 321.410156 82.25 C 322.054688 79.203125 322.515625 76.113281 323.167969 73.054688 C 323.714844 70.464844 324.414062 67.917969 325.300781 65.425781 C 327.027344 60.535156 329.734375 55.386719 334.738281 53.214844 C 335.667969 52.808594 336.640625 52.515625 337.632812 52.328125 C 339.097656 52.054688 340.59375 52.089844 342.070312 52.21875 C 343.542969 52.363281 344.996094 52.613281 346.4375 52.90625 C 351.550781 53.988281 356.535156 55.703125 361.285156 57.878906 C 377.136719 65.144531 392.050781 75.53125 402 90.09375 C 403.660156 92.519531 405.167969 95.054688 406.511719 97.675781 C 413.058594 110.4375 415.753906 125.042969 415.132812 139.320312 C 414.980469 142.828125 414.621094 146.335938 414.039062 149.796875 C 413.765625 151.480469 413.460938 153.164062 413.058594 154.824219 C 412.378906 157.597656 411.222656 160.230469 410.128906 162.875 C 409.441406 164.546875 408.796875 166.238281 408.238281 167.964844 C 405.3125 176.96875 402.316406 185.945312 400.1875 195.179688 C 399.675781 197.417969 399.238281 199.691406 398.84375 201.953125 C 398.703125 201.425781 398.558594 200.890625 398.417969 200.367188 C 398.070312 199.121094 397.644531 197.898438 397.25 196.664062 C 396.496094 194.316406 395.796875 191.933594 395.238281 189.53125 C 393.578125 182.386719 392.695312 175.089844 390.53125 168.0625 C 387.984375 159.804688 384.695312 151.785156 381.355469 143.820312 C 378.65625 137.386719 375.914062 130.976562 373.335938 124.496094 C 373.160156 124.046875 372.667969 123.832031 372.222656 123.992188 C 371.773438 124.167969 371.554688 124.671875 371.71875 125.121094 C 373.695312 130.449219 375.773438 135.738281 377.871094 141.015625 C 381.507812 150.167969 385.132812 159.355469 387.800781 168.851562 C 389.253906 174.027344 389.996094 179.382812 390.847656 184.679688 C 391.164062 186.699219 391.492188 188.722656 391.894531 190.722656 C 392.191406 192.164062 392.519531 193.605469 392.878906 195.035156 C 393.097656 195.933594 393.359375 196.816406 393.589844 197.710938 C 393.90625 198.949219 394.203125 200.183594 394.507812 201.417969 C 395.261719 204.398438 395.9375 207.425781 396.082031 210.503906 C 390.148438 199.964844 380.394531 192.164062 370.886719 184.921875 Z M 437.003906 235.117188 C 436.90625 233.851562 436.753906 232.59375 436.621094 231.328125 C 436.4375 229.535156 436.273438 227.753906 436.140625 225.964844 C 435.910156 222.882812 435.769531 219.792969 435.746094 216.699219 C 435.726562 213.609375 435.8125 210.515625 436.085938 207.4375 C 436.4375 203.359375 437.070312 199.320312 438.074219 195.351562 C 438.664062 193.015625 439.417969 190.730469 440.128906 188.425781 C 441.046875 185.5 441.953125 182.558594 443.199219 179.753906 C 443.996094 177.960938 444.933594 176.234375 446.027344 174.597656 C 448.300781 171.199219 451.085938 168.171875 454.066406 165.386719 C 455.203125 164.316406 456.371094 163.277344 457.5625 162.261719 C 458.25 161.671875 458.960938 161.09375 459.640625 160.472656 C 462.261719 158.078125 464.425781 155.160156 467.253906 153 C 468.148438 152.308594 469.121094 151.710938 470.136719 151.238281 C 470.878906 150.890625 471.65625 150.617188 472.421875 150.320312 C 473.242188 149.996094 474.039062 149.632812 474.824219 149.25 C 476.78125 148.28125 478.679688 147.199219 480.625 146.226562 C 481.71875 145.679688 482.820312 145.132812 483.980469 144.738281 C 484.722656 144.476562 485.496094 144.269531 486.25 144.03125 C 486.6875 143.886719 487.113281 143.734375 487.5625 143.613281 C 488.164062 143.449219 488.785156 143.339844 489.386719 143.210938 C 490.007812 143.066406 490.632812 142.914062 491.253906 142.796875 C 492.042969 142.632812 492.828125 142.5 493.625 142.359375 C 498.433594 141.484375 503.28125 140.707031 507.839844 138.851562 C 511.488281 137.367188 514.90625 135.3125 518.71875 134.21875 C 521.199219 133.507812 523.789062 133.246094 526.34375 132.996094 C 527.832031 132.84375 529.304688 132.667969 530.789062 132.472656 C 533.542969 132.101562 536.351562 131.664062 539.125 132.132812 C 540.195312 132.320312 541.300781 132.625 542.25 133.160156 C 544.402344 134.382812 545.386719 136.777344 546.019531 139.046875 C 546.71875 141.570312 547.023438 144.183594 547.625 146.738281 C 547.964844 148.214844 548.488281 149.621094 548.980469 151.054688 C 549.703125 153.152344 550.640625 155.195312 551.558594 157.203125 C 553.195312 160.800781 554.945312 164.382812 556.222656 168.128906 C 557.074219 170.621094 557.753906 173.175781 558.289062 175.753906 C 559.457031 181.359375 559.925781 187.105469 559.644531 192.828125 C 559.5 195.691406 559.160156 198.53125 558.671875 201.363281 C 557.871094 205.992188 556.746094 210.558594 555.285156 215.027344 C 548.324219 236.386719 533.96875 256.214844 513.507812 266.320312 C 510.941406 267.585938 508.273438 268.667969 505.566406 269.5625 C 501.808594 270.820312 497.917969 271.703125 493.996094 272.230469 C 492.28125 272.457031 490.554688 272.621094 488.828125 272.675781 C 485.410156 272.777344 481.980469 272.492188 478.617188 271.921875 C 475.347656 271.378906 472.070312 270.558594 469.046875 269.171875 C 467.066406 268.261719 465.1875 267.148438 463.308594 266.066406 C 457.660156 262.8125 451.796875 259.128906 445.207031 258.257812 C 444.769531 258.203125 444.324219 258.179688 443.886719 258.160156 C 445.820312 256.585938 447.765625 255.011719 449.6875 253.417969 C 450.417969 252.804688 451.128906 252.171875 451.851562 251.550781 C 453.675781 249.988281 455.519531 248.445312 457.355469 246.894531 C 462.261719 242.742188 467.121094 238.527344 471.632812 233.9375 C 478.1875 227.285156 483.707031 219.738281 489.363281 212.328125 C 489.660156 211.957031 489.605469 211.414062 489.222656 211.105469 C 488.851562 210.8125 488.304688 210.886719 488.011719 211.257812 C 483.75 216.480469 479.566406 221.78125 475.011719 226.75 C 472.902344 229.042969 470.695312 231.242188 468.402344 233.347656 C 463.734375 237.640625 458.753906 241.585938 453.695312 245.410156 C 452.296875 246.46875 450.890625 247.519531 449.480469 248.554688 C 448.703125 249.125 447.929688 249.660156 447.164062 250.238281 C 445.207031 251.722656 443.308594 253.265625 441.40625 254.828125 C 440.925781 252.03125 439.222656 249.363281 438.433594 246.6875 C 437.332031 242.960938 437.308594 238.984375 437.003906 235.140625 Z M 278.117188 338.617188 C 276.128906 337.777344 274.164062 336.859375 272.273438 335.800781 C 263.414062 330.839844 256.78125 322.953125 250.160156 315.445312 C 245.988281 310.714844 241.585938 306.007812 238.679688 300.359375 C 237.128906 297.332031 236.058594 294.066406 235.578125 290.691406 C 235.578125 290.648438 235.578125 290.613281 235.566406 290.570312 C 235.707031 290.703125 235.882812 290.800781 236.070312 290.84375 C 238.601562 297.324219 243.714844 302.707031 248.0625 308.039062 C 250.074219 310.496094 252.050781 312.976562 254.148438 315.359375 C 258.410156 320.210938 262.953125 324.820312 267.824219 329.070312 C 268.382812 329.550781 268.929688 330.042969 269.453125 330.542969 C 270.578125 331.613281 271.683594 332.71875 272.949219 333.625 C 274.171875 334.5 275.496094 335.253906 276.804688 335.996094 C 279.691406 337.625 282.695312 339.042969 285.753906 340.332031 C 287.851562 341.21875 289.96875 342.027344 292.113281 342.789062 C 287.328125 341.839844 282.628906 340.496094 278.117188 338.605469 Z M 381.714844 341.347656 C 380.71875 341.292969 379.738281 341.304688 378.742188 341.316406 C 378.085938 341.316406 377.433594 341.316406 376.777344 341.335938 C 376.121094 341.371094 375.453125 341.4375 374.800781 341.480469 C 372.867188 341.621094 370.953125 341.828125 369.019531 342.015625 C 366.167969 342.289062 363.308594 342.417969 360.445312 342.519531 C 358.160156 342.605469 355.855469 342.660156 353.574219 342.867188 C 352.066406 343 350.570312 343.171875 349.082031 343.402344 C 346.363281 343.816406 343.675781 344.351562 340.953125 344.734375 C 332.214844 345.96875 323.398438 345.414062 314.617188 344.988281 C 312.246094 344.867188 309.875 344.800781 307.503906 344.660156 C 307.1875 344.636719 306.871094 344.613281 306.554688 344.59375 C 300.066406 342.988281 293.671875 341.011719 287.492188 338.476562 C 284.484375 337.253906 281.546875 335.886719 278.707031 334.324219 C 277.222656 333.515625 275.691406 332.664062 274.304688 331.679688 C 273.125 330.851562 272.121094 329.8125 271.070312 328.828125 C 270.242188 328.042969 269.355469 327.289062 268.492188 326.523438 C 264.011719 322.570312 259.820312 318.296875 255.875 313.820312 C 253.800781 311.460938 251.820312 309 249.832031 306.566406 C 246.761719 302.816406 243.464844 299.234375 240.851562 295.136719 C 238.863281 292.023438 237.304688 288.582031 236.875 284.890625 C 236.691406 283.339844 236.714844 281.777344 236.898438 280.238281 C 236.910156 280.105469 236.898438 279.984375 236.867188 279.867188 C 236.941406 279.539062 237.019531 279.222656 237.09375 278.894531 C 237.683594 276.238281 238.058594 273.527344 238.558594 270.863281 C 238.8125 269.519531 239.105469 268.199219 239.433594 266.875 C 240.515625 262.625 241.390625 258.289062 243.050781 254.214844 C 244.230469 251.332031 245.824219 248.566406 248.152344 246.449219 C 251.1875 243.695312 255.109375 242.351562 259.109375 241.75 C 264.570312 240.929688 270.097656 241.378906 275.59375 241.128906 C 282.0625 240.832031 288.460938 239.773438 294.875 238.941406 C 300.164062 238.253906 305.503906 237.707031 310.847656 237.949219 C 317.71875 238.265625 324.425781 240.164062 330.695312 242.941406 C 334.980469 244.832031 339.074219 247.136719 342.933594 249.789062 C 357.167969 259.546875 368.144531 273.933594 373.347656 290.429688 C 373.871094 292.078125 374.308594 293.75 374.667969 295.445312 C 375.410156 298.984375 375.871094 302.578125 376.535156 306.128906 C 377.148438 309.40625 377.867188 312.683594 378.621094 315.9375 C 379.890625 321.421875 381.34375 326.875 383.242188 332.183594 C 384.117188 334.621094 385.101562 337.011719 386.195312 339.347656 C 385.734375 338.988281 385.277344 338.628906 384.804688 338.277344 C 384.261719 337.875 383.691406 337.515625 383.132812 337.121094 C 380.632812 335.328125 378.132812 333.527344 375.617188 331.746094 C 367.535156 325.988281 359.277344 320.503906 350.644531 315.621094 C 350.230469 315.382812 349.707031 315.511719 349.464844 315.917969 C 349.34375 316.125 349.3125 316.363281 349.367188 316.570312 C 349.421875 316.789062 349.550781 316.976562 349.761719 317.097656 C 357.8125 322.132812 365.503906 327.691406 372.929688 333.613281 C 374.929688 335.210938 376.90625 336.816406 378.851562 338.464844 C 379.496094 339.011719 380.140625 339.558594 380.773438 340.101562 C 381.253906 340.519531 381.738281 340.957031 382.21875 341.371094 C 382.042969 341.359375 381.878906 341.335938 381.703125 341.328125 Z M 393.863281 387.667969 C 394.867188 383.210938 397.335938 379.332031 399.523438 375.378906 C 402.917969 369.238281 406.992188 363.296875 412.238281 358.578125 C 415.296875 355.824219 418.867188 353.714844 422.386719 351.617188 C 426.472656 349.183594 430.589844 346.8125 434.730469 344.472656 C 445.097656 338.605469 455.628906 333.011719 465.855469 326.882812 C 469.394531 324.765625 472.921875 322.613281 476.527344 320.59375 C 476.484375 320.65625 476.441406 320.710938 476.398438 320.777344 C 476.308594 320.910156 476.246094 321.039062 476.210938 321.191406 C 473.566406 322.855469 470.945312 324.523438 468.335938 326.230469 C 463.769531 329.199219 459.269531 332.28125 454.65625 335.175781 C 453.914062 335.644531 453.183594 336.125 452.429688 336.585938 C 451.675781 337.042969 450.910156 337.46875 450.15625 337.917969 C 444.441406 341.261719 438.585938 344.332031 433.070312 348 C 424.5625 353.660156 416.847656 360.464844 409.757812 367.808594 C 405.410156 372.308594 401.039062 376.917969 398.035156 382.457031 C 396.660156 384.980469 395.578125 387.679688 394.660156 390.398438 C 393.9375 392.519531 393.339844 394.683594 392.804688 396.855469 C 392.878906 393.777344 393.183594 390.695312 393.863281 387.691406 Z M 399.378906 423.546875 C 398.375 421.882812 397.433594 420.167969 396.691406 418.367188 C 396.507812 417.929688 396.34375 417.472656 396.191406 417.023438 C 396.167969 416.96875 396.101562 416.726562 396.082031 416.664062 C 396.082031 416.5 396.089844 416.335938 396.046875 416.171875 C 395.632812 414.609375 395.761719 415.121094 395.621094 414.609375 C 395.414062 413.820312 395.207031 413.035156 394.988281 412.25 C 394.386719 410 393.820312 407.714844 393.382812 405.433594 C 393.382812 405.386719 393.371094 405.332031 393.359375 405.289062 C 394.210938 400.496094 395.261719 395.71875 396.8125 391.109375 C 397.6875 388.511719 398.714844 385.953125 400.023438 383.539062 C 403.050781 377.980469 407.519531 373.367188 411.898438 368.878906 C 418.738281 361.863281 426.175781 355.363281 434.347656 349.945312 C 439.820312 346.308594 445.65625 343.261719 451.335938 339.949219 C 452.101562 339.503906 452.886719 339.078125 453.652344 338.605469 C 454.417969 338.148438 455.160156 337.65625 455.914062 337.1875 C 460.535156 334.28125 465.046875 331.210938 469.625 328.226562 C 476.605469 323.695312 483.652344 319.257812 490.960938 315.25 C 492.390625 314.464844 493.8125 313.664062 495.285156 312.976562 C 495.601562 312.835938 495.917969 312.703125 496.238281 312.5625 C 496.945312 312.421875 497.667969 312.300781 498.378906 312.214844 C 503.261719 311.570312 508.132812 312.058594 512.742188 313.828125 C 515.367188 314.835938 517.835938 316.265625 519.714844 318.386719 C 521.066406 319.902344 522.0625 321.695312 522.847656 323.5625 C 523.800781 325.824219 524.421875 328.171875 524.707031 330.609375 C 525.066406 333.667969 524.980469 336.78125 524.726562 339.851562 C 524.421875 343.664062 523.875 347.457031 523.515625 351.269531 C 523.328125 353.222656 523.175781 355.191406 523.175781 357.15625 C 523.175781 358.851562 523.265625 360.554688 523.40625 362.246094 C 523.589844 364.488281 523.886719 366.703125 524.039062 368.945312 C 524.234375 371.609375 524.191406 374.285156 524.074219 376.953125 C 523.699219 384.980469 522.390625 392.96875 520.378906 400.746094 C 518.261719 408.960938 515.320312 417.023438 511.34375 424.527344 C 507.847656 431.125 503.5 437.441406 497.875 442.402344 C 496.0625 444.007812 494.09375 445.449219 492.050781 446.738281 C 488.425781 449.019531 484.515625 450.800781 480.484375 452.242188 C 476.679688 453.609375 472.75 454.667969 468.75 455.25 C 465.570312 455.707031 462.359375 455.847656 459.160156 455.675781 C 451.226562 455.25 443.527344 453.007812 436.007812 450.5625 C 431.148438 448.976562 426.351562 447.195312 421.765625 444.925781 C 421.261719 444.671875 420.769531 444.410156 420.265625 444.148438 C 420.34375 444.105469 420.410156 444.0625 420.484375 444.019531 C 421.511719 443.429688 422.539062 442.828125 423.566406 442.226562 C 425.105469 441.320312 426.636719 440.414062 428.15625 439.460938 C 428.667969 439.144531 429.148438 438.796875 429.652344 438.46875 C 431.355469 437.363281 433.082031 436.316406 434.785156 435.234375 C 437.898438 433.246094 441.023438 431.269531 444.117188 429.226562 C 445.207031 428.503906 446.300781 427.785156 447.382812 427.050781 C 448.355469 426.394531 449.316406 425.742188 450.234375 425.007812 C 452.222656 423.4375 454.035156 421.632812 455.707031 419.734375 C 462.589844 411.941406 467.40625 402.648438 473.03125 393.972656 C 473.296875 393.578125 473.195312 393.03125 472.792969 392.769531 C 472.386719 392.507812 471.863281 392.605469 471.601562 393.011719 C 467.929688 398.351562 464.578125 403.902344 460.832031 409.191406 C 458.503906 412.480469 456.023438 415.679688 453.226562 418.574219 C 451.761719 420.082031 450.199219 421.511719 448.519531 422.769531 C 447.449219 423.566406 446.3125 424.253906 445.1875 424.953125 C 443.984375 425.707031 442.773438 426.449219 441.558594 427.183594 C 437.703125 429.5 433.8125 431.769531 429.878906 433.96875 C 429.160156 434.371094 428.429688 434.796875 427.707031 435.191406 C 427.183594 435.476562 426.65625 435.726562 426.144531 436.011719 C 424.996094 436.632812 423.863281 437.300781 422.734375 437.945312 C 421.5 438.652344 420.265625 439.363281 419.03125 440.085938 C 418.519531 440.378906 418.007812 440.675781 417.492188 440.980469 C 417.273438 441.101562 417.066406 441.230469 416.835938 441.339844 C 416.5625 441.472656 416.269531 441.558594 415.972656 441.65625 C 415.363281 441.265625 414.75 440.851562 414.160156 440.421875 C 411.265625 438.359375 408.765625 435.824219 406.425781 433.148438 C 403.816406 430.144531 401.410156 426.933594 399.347656 423.535156 Z M 387.875 527.21875 C 387.144531 524.019531 385.976562 520.925781 385.386719 517.691406 C 384.476562 512.722656 384.488281 507.640625 384.785156 502.605469 C 385.339844 493.308594 390.335938 485.070312 394.59375 477.054688 C 397.25 472.070312 399.566406 466.859375 402.898438 462.273438 C 405.78125 458.285156 409.046875 454.582031 411.757812 450.453125 C 412.566406 449.21875 413.308594 447.941406 413.976562 446.628906 C 414.074219 447.042969 414.160156 447.457031 414.191406 447.886719 C 414.226562 448.34375 414.148438 448.800781 414.105469 449.261719 C 414.039062 450.015625 413.976562 450.78125 413.898438 451.542969 C 413.667969 453.925781 413.4375 456.296875 413.199219 458.679688 C 412.585938 464.675781 411.921875 470.671875 411.222656 476.660156 C 410.488281 482.941406 409.726562 489.222656 408.972656 495.492188 C 408.742188 497.394531 408.511719 499.308594 408.28125 501.207031 C 408.054688 503.128906 407.8125 505.0625 407.476562 506.976562 C 406.613281 511.726562 405.34375 516.382812 404.304688 521.089844 C 403.378906 525.316406 402.472656 529.558594 401.53125 533.796875 C 400.222656 539.683594 398.878906 545.570312 397.523438 551.460938 C 396.996094 553.742188 396.460938 556.015625 395.9375 558.300781 C 395.4375 555.730469 394.78125 553.175781 394.039062 550.675781 C 393.425781 548.585938 392.757812 546.523438 392.082031 544.457031 C 391.632812 543.082031 391.164062 541.726562 390.726562 540.351562 C 389.90625 537.71875 389.308594 535.007812 388.804688 532.300781 C 388.488281 530.605469 388.246094 528.890625 387.855469 527.207031 Z M 355.167969 524.050781 C 346.703125 524.300781 338.410156 526.105469 330.378906 528.738281 C 327.070312 529.828125 323.792969 531.042969 320.546875 532.308594 C 318.667969 533.050781 316.800781 533.828125 314.910156 534.539062 C 303.757812 538.699219 291.664062 540.917969 279.746094 540.546875 C 272.074219 540.316406 264.375 538.984375 257.21875 536.144531 C 247.199219 532.179688 238.832031 524.28125 233.816406 514.785156 C 232.210938 511.75 230.964844 508.515625 230.167969 505.183594 C 229.894531 504.039062 229.632812 502.867188 229.492188 501.6875 C 229.40625 500.976562 229.382812 500.257812 229.394531 499.546875 C 229.425781 497.394531 229.796875 495.222656 229.949219 493.101562 C 230.015625 492.25 230.039062 491.410156 230.027344 490.554688 C 230.027344 489.757812 229.960938 488.960938 230.003906 488.164062 C 230.050781 487.324219 230.214844 486.503906 230.421875 485.683594 C 230.550781 485.148438 230.683594 484.613281 230.890625 484.101562 C 231.449219 482.691406 232.210938 481.335938 233.054688 480.078125 C 233.554688 479.316406 234.082031 478.550781 234.789062 477.972656 C 235.597656 477.304688 236.59375 476.902344 237.488281 476.375 C 238.4375 475.820312 239.292969 475.109375 239.957031 474.222656 C 240.460938 473.558594 240.90625 472.792969 241.105469 471.972656 C 241.234375 471.4375 241.234375 470.859375 241.234375 470.3125 C 241.234375 469.953125 241.203125 469.59375 241.234375 469.230469 C 241.269531 468.96875 241.367188 468.707031 241.453125 468.457031 C 241.671875 467.777344 241.96875 467.113281 242.414062 466.554688 C 242.941406 465.898438 243.640625 465.417969 244.339844 464.972656 C 245.113281 464.480469 245.902344 464.007812 246.71875 463.605469 C 250.621094 461.648438 254.96875 460.644531 259.273438 460.054688 C 262.539062 459.605469 265.835938 459.398438 269.136719 459.332031 C 271.671875 459.28125 274.207031 459.300781 276.742188 459.386719 C 281.199219 459.542969 285.65625 459.933594 290.070312 460.558594 C 293.519531 461.039062 296.949219 461.660156 300.359375 462.4375 C 318.175781 466.46875 335.863281 474.683594 348.109375 488.589844 C 353.539062 494.761719 357.722656 501.972656 361 509.476562 C 361.644531 510.964844 362.257812 512.460938 362.816406 513.980469 C 363.679688 516.339844 364.476562 518.71875 365.523438 521.003906 C 365.753906 521.496094 365.992188 521.964844 366.246094 522.445312 C 364.332031 521.332031 362.445312 520.171875 360.542969 519.027344 C 359.667969 518.5 358.773438 518 357.886719 517.472656 C 355.167969 515.859375 352.449219 514.230469 349.652344 512.753906 C 347.5 511.617188 345.292969 510.59375 343.03125 509.675781 C 333.175781 505.664062 322.589844 503.894531 312.027344 503.164062 C 306.53125 502.78125 301.035156 502.683594 295.53125 502.640625 C 295.050781 502.640625 294.65625 503.011719 294.644531 503.480469 C 294.644531 503.960938 295.015625 504.355469 295.488281 504.363281 C 311.195312 504.921875 327.265625 506.027344 341.808594 512.535156 C 344.910156 513.925781 347.871094 515.550781 350.753906 517.355469 C 352.46875 518.4375 354.171875 519.5625 355.855469 520.695312 C 356.851562 521.363281 357.8125 522.0625 358.816406 522.71875 C 359.484375 523.15625 360.160156 523.582031 360.835938 524.007812 C 360.464844 524.007812 360.09375 524.019531 359.722656 524.027344 C 358.214844 524.0625 356.699219 524.027344 355.191406 524.074219 Z M 496.652344 585.492188 C 494.335938 585.207031 492.042969 584.726562 489.792969 584.09375 C 485.082031 582.757812 480.558594 580.859375 476.101562 578.847656 C 473.875 577.84375 471.65625 576.804688 469.4375 575.769531 C 469.503906 575.691406 469.582031 575.625 469.625 575.539062 C 471.121094 575.855469 472.628906 576.117188 474.101562 576.53125 C 476.34375 577.167969 478.570312 577.867188 480.8125 578.53125 C 485.324219 579.875 489.867188 581.164062 494.488281 582.09375 C 501.71875 583.546875 509.203125 583.46875 516.480469 582.34375 C 520.773438 581.679688 524.980469 580.652344 529.109375 579.316406 C 524.683594 581.394531 520.074219 583.078125 515.332031 584.210938 C 509.238281 585.675781 502.902344 586.246094 496.671875 585.492188 Z M 569.496094 539.09375 C 566.328125 547.023438 561.445312 554.160156 555.566406 560.320312 C 552.605469 563.421875 549.40625 566.285156 546.03125 568.90625 C 545.484375 569.332031 544.917969 569.738281 544.359375 570.140625 C 535.542969 574.882812 526.027344 578.433594 516.121094 579.984375 C 509.117188 581.078125 501.90625 581.175781 494.949219 579.789062 C 490.390625 578.882812 485.921875 577.636719 481.476562 576.3125 C 479.226562 575.648438 477 574.9375 474.746094 574.304688 C 472.605469 573.691406 470.378906 573.441406 468.238281 572.839844 C 466.074219 572.226562 463.988281 571.355469 461.847656 570.6875 C 459.421875 569.933594 456.996094 569.464844 454.492188 569.59375 C 451.894531 568.742188 449.25 568.03125 446.539062 567.542969 C 445.023438 567.269531 443.492188 567.070312 441.964844 566.953125 C 443.808594 566.394531 445.644531 565.835938 447.492188 565.292969 C 453.117188 563.640625 458.777344 562.101562 464.433594 560.570312 C 466.523438 560.003906 468.609375 559.433594 470.695312 558.890625 C 471.996094 558.550781 473.296875 558.191406 474.605469 557.894531 C 477.074219 557.339844 479.566406 556.964844 482.054688 556.574219 C 483.609375 556.320312 485.160156 556.050781 486.710938 555.753906 C 487.179688 555.675781 487.496094 555.230469 487.421875 554.761719 C 487.34375 554.289062 486.894531 553.972656 486.425781 554.050781 C 484.886719 554.277344 483.335938 554.496094 481.792969 554.695312 C 479.25 555.023438 476.691406 555.304688 474.167969 555.785156 C 472.96875 556.015625 471.789062 556.300781 470.597656 556.574219 C 468.9375 556.945312 467.285156 557.328125 465.625 557.710938 C 459.59375 559.085938 453.574219 560.527344 447.558594 561.949219 C 444.847656 562.59375 442.136719 563.25 439.429688 563.894531 C 438.53125 564.109375 437.625 564.339844 436.71875 564.546875 C 436.261719 564.648438 435.800781 564.722656 435.355469 564.832031 C 433.847656 565.183594 432.359375 565.597656 430.875 566.011719 C 430.667969 566.066406 430.460938 566.121094 430.253906 566.175781 C 431.007812 565.0625 431.75 563.925781 432.425781 562.746094 C 434.273438 559.566406 435.890625 556.257812 437.59375 553.011719 C 438.433594 551.394531 439.285156 549.789062 440.214844 548.226562 C 443.394531 542.9375 447.425781 538.199219 451.6875 533.75 C 452.800781 532.59375 453.925781 531.445312 455.0625 530.300781 C 455.773438 529.578125 456.492188 528.847656 457.246094 528.179688 C 460.394531 525.363281 464.03125 523.15625 467.734375 521.167969 C 470.378906 519.746094 473.066406 518.390625 475.773438 517.113281 C 486.359375 512.121094 497.527344 508.503906 508.855469 505.597656 C 512.722656 504.605469 516.621094 503.699219 520.523438 502.824219 C 522.09375 502.476562 523.65625 502.136719 525.230469 501.796875 C 526.039062 501.621094 526.847656 501.46875 527.644531 501.285156 C 528.539062 501.078125 529.4375 500.847656 530.332031 500.628906 C 530.878906 500.496094 531.433594 500.367188 531.980469 500.214844 C 532.703125 500.015625 533.414062 499.777344 534.121094 499.570312 C 536.21875 498.925781 538.308594 498.234375 540.382812 497.527344 C 543.253906 496.554688 546.128906 495.546875 549.046875 494.71875 C 550.664062 494.257812 552.300781 493.824219 553.949219 493.515625 C 555.960938 493.144531 558.027344 492.96875 560.070312 493.179688 C 561.304688 493.296875 562.527344 493.570312 563.683594 494.019531 C 564.382812 494.292969 565.070312 494.621094 565.714844 495.023438 C 570.546875 498.050781 572.402344 504.167969 573.144531 509.5 C 573.289062 510.527344 573.386719 511.5625 573.460938 512.601562 C 574.140625 521.613281 572.839844 530.703125 569.496094 539.105469 Z M 569.496094 539.09375 " fill-opacity="1" fill-rule="nonzero"/></g></svg>