<svg xmlns="http://www.w3.org/2000/svg" xmlns:xlink="http://www.w3.org/1999/xlink" width="1080" zoomAndPan="magnify" viewBox="0 0 810 809.999993" height="1080" preserveAspectRatio="xMidYMid meet" version="1.0"><defs><clipPath id="fb563adeab"><path d="M 379 39 L 467 39 L 467 771.367188 L 379 771.367188 Z M 379 39 " clip-rule="nonzero"/></clipPath><clipPath id="a31a68596d"><path d="M 427 223 L 516.753906 223 L 516.753906 318 L 427 318 Z M 427 223 " clip-rule="nonzero"/></clipPath></defs><g clip-path="url(#fb563adeab)"><path fill="#6d1f1f" d="M 451.496094 771.378906 C 451.425781 771.378906 451.355469 771.371094 451.289062 771.359375 C 451.125 771.332031 450.976562 771.277344 450.835938 771.191406 C 450.699219 771.105469 450.578125 770.992188 450.484375 770.859375 C 450.386719 770.726562 450.320312 770.582031 450.28125 770.421875 C 450.246094 770.261719 450.238281 770.101562 450.265625 769.9375 C 463.382812 691.195312 467.214844 622.253906 461.972656 559.175781 C 458.691406 519.625 444.554688 482.828125 430.910156 447.242188 C 423.769531 428.640625 416.382812 409.398438 410.546875 389.835938 C 393.332031 332.144531 383.261719 276.082031 380.621094 223.15625 C 379.707031 204.839844 379.019531 180.832031 381.820312 157.585938 C 384.835938 132.59375 391.28125 112.261719 401.53125 95.453125 C 402.976562 88.675781 400.183594 72.769531 395.113281 59.039062 C 392.128906 50.949219 392.730469 43.773438 396.648438 40.765625 C 399.433594 38.632812 403.304688 38.988281 407.269531 41.78125 C 411.480469 44.742188 412.121094 54.605469 409.222656 71.9375 C 407.191406 84.128906 404.046875 95.722656 403.890625 96.238281 L 403.890625 96.269531 L 403.847656 96.421875 L 403.769531 96.546875 L 403.738281 96.601562 C 381.785156 132.484375 380.988281 180.648438 383.101562 223.03125 C 385.730469 275.742188 395.765625 331.625 412.925781 389.125 C 418.738281 408.597656 426.101562 427.792969 433.226562 446.359375 C 446.945312 482.101562 461.132812 519.066406 464.449219 558.972656 C 469.703125 622.25 465.871094 691.402344 452.71875 770.355469 C 452.664062 770.652344 452.523438 770.894531 452.292969 771.089844 C 452.0625 771.28125 451.796875 771.378906 451.496094 771.378906 Z M 400.777344 41.875 C 399.804688 41.851562 398.929688 42.136719 398.152344 42.722656 C 395.664062 44.636719 394.480469 50.152344 397.441406 58.167969 C 400.855469 67.410156 403.21875 77.410156 404.054688 85.308594 C 407.941406 68.140625 410.808594 47.296875 405.832031 43.804688 C 404.019531 42.523438 402.28125 41.875 400.777344 41.875 Z M 400.777344 41.875 " fill-opacity="1" fill-rule="nonzero"/></g><path fill="#6d1f1f" d="M 403.15625 96.253906 C 402.90625 96.253906 402.679688 96.1875 402.472656 96.050781 C 402.265625 95.914062 402.113281 95.730469 402.015625 95.503906 C 401.917969 95.277344 401.886719 95.042969 401.929688 94.796875 C 401.972656 94.550781 402.078125 94.339844 402.246094 94.15625 C 410.199219 85.667969 421.863281 55.636719 420.597656 46.902344 C 420.476562 46.03125 420.242188 45.605469 420.046875 45.480469 C 419.40625 45.082031 418.730469 45.007812 418.019531 45.265625 C 414.945312 46.261719 411.824219 52.074219 410.878906 54.226562 C 410.808594 54.375 410.714844 54.503906 410.597656 54.617188 C 410.476562 54.726562 410.339844 54.8125 410.1875 54.871094 C 410.035156 54.925781 409.878906 54.953125 409.714844 54.949219 C 409.554688 54.945312 409.398438 54.910156 409.246094 54.847656 C 409.097656 54.78125 408.964844 54.6875 408.851562 54.570312 C 408.738281 54.453125 408.652344 54.320312 408.59375 54.167969 C 408.53125 54.019531 408.5 53.859375 408.503906 53.699219 C 408.503906 53.535156 408.535156 53.378906 408.597656 53.226562 C 408.992188 52.332031 412.574219 44.410156 417.25 42.898438 C 417.925781 42.667969 418.617188 42.589844 419.328125 42.667969 C 420.035156 42.746094 420.695312 42.96875 421.308594 43.339844 C 422.246094 43.890625 422.839844 44.964844 423.0625 46.539062 C 424.421875 55.941406 412.523438 86.816406 404.0625 95.851562 C 403.820312 96.117188 403.515625 96.25 403.15625 96.253906 Z M 403.15625 96.253906 " fill-opacity="1" fill-rule="nonzero"/><path fill="#6d1f1f" d="M 400.289062 98.566406 L 401.605469 96.148438 C 402.316406 94.832031 419.328125 63.867188 430.628906 60.875 C 432.941406 60.261719 434.265625 61 434.96875 61.71875 C 436.367188 63.164062 436.558594 65.785156 435.511719 69.300781 C 433.960938 74.507812 430.03125 80.601562 424.996094 85.601562 C 420.605469 89.960938 413.222656 95.640625 402.976562 97.957031 Z M 432.246094 63.136719 C 431.914062 63.144531 431.585938 63.191406 431.269531 63.28125 C 423.476562 65.34375 410.953125 84.804688 405.226562 94.789062 C 420.457031 90.140625 430.632812 76.988281 433.128906 68.589844 C 434 65.660156 433.730469 64.015625 433.183594 63.453125 C 432.917969 63.214844 432.605469 63.109375 432.246094 63.136719 Z M 432.246094 63.136719 " fill-opacity="1" fill-rule="nonzero"/><path fill="#6d1f1f" d="M 401.417969 97.992188 C 401.257812 97.988281 401.105469 97.960938 400.957031 97.902344 C 389.035156 93.132812 377.136719 67.328125 380.179688 57.484375 C 381.246094 54.027344 383.988281 52.605469 387.886719 53.480469 C 404.414062 57.191406 403.972656 95.152344 403.945312 96.765625 C 403.941406 96.929688 403.910156 97.085938 403.84375 97.238281 C 403.78125 97.386719 403.691406 97.519531 403.574219 97.632812 C 403.457031 97.746094 403.324219 97.835938 403.171875 97.898438 C 403.019531 97.960938 402.863281 97.992188 402.699219 97.992188 C 402.507812 97.871094 402.296875 97.8125 402.066406 97.8125 C 401.839844 97.8125 401.628906 97.871094 401.433594 97.992188 Z M 385.777344 55.714844 C 383.644531 55.714844 382.933594 57.011719 382.578125 58.203125 C 379.917969 66.726562 391.0625 90.726562 401.457031 95.421875 C 401.394531 89.320312 400.847656 83.261719 399.824219 77.246094 C 398.242188 68.441406 394.792969 57.597656 387.34375 55.914062 C 386.824219 55.792969 386.300781 55.726562 385.765625 55.714844 Z M 385.777344 55.714844 " fill-opacity="1" fill-rule="nonzero"/><path fill="#6d1f1f" d="M 381.757812 183.285156 C 381.472656 183.285156 381.214844 183.195312 380.988281 183.015625 C 380.761719 182.835938 380.617188 182.605469 380.550781 182.328125 C 380.484375 182.046875 380.511719 181.773438 380.632812 181.515625 C 380.757812 181.253906 380.945312 181.058594 381.203125 180.929688 C 381.507812 180.777344 411.386719 165.734375 417.617188 151.59375 C 418.128906 148.785156 418.824219 146.019531 419.699219 143.300781 C 421.707031 137.183594 424.0625 133.96875 426.882812 133.476562 C 429.09375 133.089844 430.953125 134.253906 431.628906 136.4375 C 432.773438 140.117188 430.53125 147.785156 419.765625 152.886719 C 412.917969 167.75 383.578125 182.515625 382.3125 183.152344 C 382.140625 183.242188 381.953125 183.285156 381.757812 183.285156 Z M 427.714844 135.890625 C 427.582031 135.890625 427.445312 135.902344 427.3125 135.925781 C 424.488281 136.417969 421.859375 143.613281 420.523438 149.691406 C 427.835938 145.574219 430.121094 139.957031 429.253906 137.171875 C 428.992188 136.304688 428.472656 135.890625 427.714844 135.890625 Z M 427.714844 135.890625 " fill-opacity="1" fill-rule="nonzero"/><path fill="#6d1f1f" d="M 417.476562 162.085938 C 416.054688 162.085938 414.773438 161.730469 413.851562 160.902344 C 413.730469 160.789062 413.636719 160.664062 413.566406 160.515625 C 413.496094 160.367188 413.457031 160.214844 413.449219 160.050781 C 413.4375 159.890625 413.460938 159.730469 413.511719 159.578125 C 413.566406 159.421875 413.644531 159.285156 413.753906 159.164062 C 413.707031 159.105469 413.664062 159.046875 413.625 158.984375 C 413.539062 158.84375 413.484375 158.691406 413.460938 158.527344 C 413.4375 158.363281 413.445312 158.203125 413.484375 158.042969 C 413.523438 157.882812 413.59375 157.738281 413.691406 157.605469 C 413.789062 157.472656 413.90625 157.363281 414.046875 157.277344 C 415.039062 156.679688 423.878906 151.46875 429.027344 152.5 C 430.582031 152.8125 430.890625 153.8125 430.953125 154.226562 C 431.261719 156.324219 427.839844 158.492188 425.777344 159.578125 C 423.15625 160.972656 420.046875 162.085938 417.476562 162.085938 Z M 415.699219 159.195312 C 416.496094 159.726562 418.078125 159.730469 420.101562 159.195312 C 423.65625 158.25 427.105469 156.066406 428.175781 154.886719 C 424.675781 154.480469 418.347656 157.652344 415.699219 159.195312 Z M 415.699219 159.195312 " fill-opacity="1" fill-rule="nonzero"/><path fill="#6d1f1f" d="M 411.308594 163.226562 C 410.871094 163.226562 410.53125 163.046875 410.285156 162.6875 C 405.78125 156.175781 405.542969 148.027344 408.347656 145.625 C 408.863281 145.175781 410.757812 143.910156 413.324219 146.320312 C 418.792969 151.484375 413.785156 161.019531 413.566406 161.425781 C 413.199219 161.550781 412.878906 161.75 412.609375 162.03125 C 412.335938 162.308594 412.144531 162.632812 412.027344 163.003906 C 411.8125 163.15625 411.570312 163.230469 411.308594 163.226562 Z M 410.320312 147.386719 C 410.183594 147.382812 410.066406 147.425781 409.964844 147.511719 C 408.542969 148.730469 408.386719 154.566406 411.5 159.953125 C 412.210938 158.464844 415.25 151.570312 411.597656 148.117188 C 411.195312 147.761719 410.703125 147.386719 410.300781 147.386719 Z M 410.320312 147.386719 " fill-opacity="1" fill-rule="nonzero"/><path fill="#6d1f1f" d="M 380.929688 208.648438 C 380.59375 208.648438 380.304688 208.53125 380.0625 208.292969 C 378.996094 207.25 353.65625 182.472656 351.949219 163.210938 C 350.234375 143.839844 342.238281 130.902344 338.242188 129.085938 C 327.648438 124.464844 321.253906 115.625 323.03125 111.382812 C 323.441406 110.398438 324.902344 108.308594 329.578125 110.179688 C 338.578125 113.78125 339.796875 124.25 339.964844 127.191406 C 342.640625 128.828125 345.695312 133.035156 348.273438 138.6875 C 350.539062 143.664062 353.449219 151.910156 354.429688 162.988281 C 356.054688 181.332031 381.539062 206.25 381.800781 206.5 C 381.980469 206.675781 382.097656 206.886719 382.148438 207.132812 C 382.199219 207.382812 382.179688 207.621094 382.082031 207.855469 C 381.988281 208.089844 381.835938 208.277344 381.628906 208.417969 C 381.417969 208.558594 381.1875 208.628906 380.933594 208.632812 Z M 326.289062 111.933594 C 325.785156 111.933594 325.441406 112.070312 325.324219 112.355469 C 324.5 114.332031 328.363281 121.34375 337.335938 125.921875 C 336.878906 122.367188 335.152344 115.101562 328.652344 112.503906 C 327.898438 112.171875 327.113281 111.980469 326.289062 111.933594 Z M 326.289062 111.933594 " fill-opacity="1" fill-rule="nonzero"/><path fill="#6d1f1f" d="M 341.785156 182.054688 C 339.898438 182.054688 338.335938 181.644531 337.382812 180.867188 C 336.804688 180.398438 335.085938 178.632812 337.253906 175.625 C 341.988281 169.054688 355.238281 171.140625 355.800781 171.214844 C 356.035156 171.25 356.238281 171.34375 356.414062 171.5 C 356.59375 171.652344 356.71875 171.839844 356.789062 172.0625 C 356.859375 172.285156 356.867188 172.511719 356.8125 172.738281 C 356.757812 172.96875 356.644531 173.164062 356.476562 173.328125 C 356.589844 173.441406 356.679688 173.570312 356.746094 173.71875 C 356.808594 173.867188 356.84375 174.023438 356.847656 174.183594 C 356.851562 174.34375 356.824219 174.5 356.769531 174.652344 C 356.714844 174.800781 356.632812 174.9375 356.523438 175.054688 C 352.085938 179.917969 346.085938 182.054688 341.785156 182.054688 Z M 350.429688 173.328125 C 346.566406 173.328125 341.503906 173.980469 339.273438 177.078125 C 338.308594 178.414062 338.773438 178.792969 338.953125 178.933594 C 340.972656 180.578125 349.070312 179.382812 354.523438 173.554688 C 353.164062 173.40625 351.796875 173.328125 350.429688 173.328125 Z M 350.429688 173.328125 " fill-opacity="1" fill-rule="nonzero"/><path fill="#6d1f1f" d="M 347.070312 140.3125 C 346.839844 140.3125 346.625 140.25 346.425781 140.132812 C 346.226562 140.011719 346.074219 139.847656 345.96875 139.640625 C 345.855469 139.425781 345.808594 139.199219 345.832031 138.957031 C 345.632812 138.824219 345.484375 138.652344 345.386719 138.4375 C 345.289062 138.222656 345.257812 138 345.285156 137.765625 C 345.328125 137.4375 345.867188 134.261719 351.355469 123.773438 C 353.578125 119.527344 356.011719 119.425781 356.957031 119.582031 C 358.570312 119.84375 359.78125 121.304688 360.117188 123.386719 C 360.875 128.105469 357.316406 135.117188 347.648438 140.167969 C 347.464844 140.261719 347.273438 140.308594 347.070312 140.3125 Z M 356.433594 122.027344 C 355.742188 122.027344 354.621094 122.898438 353.558594 124.929688 C 349.894531 131.933594 348.519531 135.558594 348.019531 137.121094 C 356.480469 132.191406 358.09375 126.488281 357.65625 123.78125 C 357.5 122.808594 357.070312 122.121094 356.554688 122.039062 C 356.515625 122.03125 356.476562 122.027344 356.433594 122.027344 Z M 356.433594 122.027344 " fill-opacity="1" fill-rule="nonzero"/><path fill="#6d1f1f" d="M 389.308594 296.484375 C 388.9375 296.480469 388.628906 296.34375 388.382812 296.0625 C 388.078125 295.726562 358.242188 262.15625 351.644531 256.5 C 348.230469 253.570312 341.78125 244.769531 335.960938 235.132812 C 332.851562 229.976562 325.691406 217.46875 325.242188 210.976562 C 323.289062 208.335938 313.957031 195.03125 319.832031 189.414062 C 321.726562 187.597656 323.3125 188.070312 324.097656 188.511719 C 328.277344 190.890625 329.074219 204.507812 327.71875 210.652344 C 328.144531 220.101562 346.957031 249.191406 353.269531 254.609375 C 359.988281 260.375 389.011719 293.023438 390.242188 294.425781 C 390.40625 294.605469 390.503906 294.820312 390.542969 295.0625 C 390.582031 295.304688 390.550781 295.539062 390.449219 295.761719 C 390.347656 295.984375 390.195312 296.164062 389.988281 296.296875 C 389.78125 296.429688 389.554688 296.496094 389.308594 296.492188 Z M 322.605469 190.601562 C 322.398438 190.601562 322.066406 190.71875 321.539062 191.210938 C 318.339844 194.261719 322.582031 202.464844 325.707031 207.277344 C 326.316406 200.707031 324.964844 191.871094 322.863281 190.671875 C 322.785156 190.625 322.699219 190.601562 322.605469 190.601562 Z M 322.605469 190.601562 " fill-opacity="1" fill-rule="nonzero"/><path fill="#6d1f1f" d="M 336.347656 234.601562 C 336.136719 234.601562 335.941406 234.546875 335.757812 234.445312 C 333.449219 233.1875 313.585938 222.328125 310.515625 219.242188 C 296.734375 212.003906 293.351562 205.070312 294.648438 201.316406 C 295.460938 198.964844 297.953125 197.882812 301.164062 198.472656 C 309.042969 199.949219 311.988281 214.976562 312.449219 217.667969 C 314.730469 219.824219 328.476562 227.65625 336.933594 232.265625 C 337.183594 232.398438 337.367188 232.597656 337.480469 232.859375 C 337.597656 233.121094 337.617188 233.390625 337.546875 233.667969 C 337.476562 233.945312 337.328125 234.167969 337.101562 234.34375 C 336.875 234.519531 336.621094 234.605469 336.335938 234.601562 Z M 299.488281 200.804688 C 298.207031 200.804688 297.3125 201.265625 297 202.128906 C 296.199219 204.441406 298.996094 209.871094 309.5625 215.886719 C 308.355469 210.5 305.445312 201.8125 300.707031 200.925781 C 300.304688 200.847656 299.898438 200.808594 299.488281 200.804688 Z M 299.488281 200.804688 " fill-opacity="1" fill-rule="nonzero"/><path fill="#6d1f1f" d="M 328.679688 261.152344 C 324.414062 261.152344 321.570312 260.308594 320.265625 258.613281 C 319.3125 257.382812 319.273438 255.804688 320.152344 254.28125 C 321.53125 251.917969 325.320312 249.699219 329.039062 250.230469 C 337.953125 251.503906 352.535156 254.304688 352.683594 254.332031 L 357.84375 255.328125 L 352.785156 256.75 C 342.421875 259.679688 334.304688 261.152344 328.679688 261.152344 Z M 327.917969 252.640625 C 325.5625 252.640625 323.164062 254.0625 322.308594 255.535156 C 321.757812 256.476562 322.117188 256.957031 322.234375 257.089844 C 322.589844 257.53125 326.027344 261 346.839844 255.769531 C 341.769531 254.832031 334.15625 253.476562 328.710938 252.695312 C 328.445312 252.65625 328.183594 252.640625 327.917969 252.640625 Z M 327.917969 252.640625 " fill-opacity="1" fill-rule="nonzero"/><path fill="#6d1f1f" d="M 361.207031 266.738281 L 358.9375 263.363281 C 349.996094 250.050781 346.824219 240.894531 349.769531 236.886719 C 350.929688 235.304688 352.96875 234.753906 355.191406 235.414062 C 357.824219 236.1875 360.589844 238.648438 360.777344 241.847656 C 361.238281 249.628906 361.210938 262.542969 361.210938 262.671875 Z M 353.363281 237.617188 C 352.699219 237.582031 352.164062 237.824219 351.761719 238.351562 C 351.21875 239.085938 349.210938 243.328125 358.695312 258.445312 C 358.667969 253.988281 358.570312 246.929688 358.28125 241.988281 C 358.164062 240.03125 356.253906 238.316406 354.472656 237.792969 C 354.109375 237.679688 353.742188 237.621094 353.363281 237.617188 Z M 353.363281 237.617188 " fill-opacity="1" fill-rule="nonzero"/><path fill="#6d1f1f" d="M 486.800781 637.894531 C 486.535156 637.894531 486.296875 637.816406 486.078125 637.664062 C 485.863281 637.507812 485.710938 637.304688 485.625 637.054688 C 473.089844 600.894531 459.714844 573.972656 442.253906 549.75 C 429.136719 531.554688 420.679688 510.863281 414.78125 494.871094 C 404.382812 466.683594 398.339844 440.527344 396.816406 417.136719 C 394.839844 386.769531 400.5 360.933594 413.644531 340.351562 C 437.316406 303.277344 443.5625 269.160156 444.636719 247.074219 C 445.78125 223.476562 441.4375 208.289062 441.292969 207.777344 C 441.292969 207.777344 441.292969 207.761719 441.292969 207.75 L 441.261719 207.609375 C 441.261719 207.609375 441.261719 207.609375 441.261719 207.59375 C 440.570312 203.171875 437.226562 181.027344 439 177.484375 C 441 173.476562 448.710938 168.832031 453.386719 170.953125 C 454.214844 171.332031 454.777344 172.121094 455.058594 173.304688 C 456.566406 179.675781 450.058594 199.496094 443.859375 207.679688 C 444.707031 210.832031 448.191406 225.324219 447.132812 247.195312 C 446.390625 261.777344 443.910156 276.054688 439.691406 290.035156 C 434.386719 307.742188 426.332031 325.121094 415.753906 341.691406 C 387.039062 386.667969 400.648438 449.351562 417.125 494.019531 C 422.96875 509.863281 431.347656 530.347656 444.285156 548.304688 C 461.894531 572.726562 475.371094 599.851562 487.992188 636.25 C 488.046875 636.402344 488.070312 636.5625 488.058594 636.730469 C 488.046875 636.894531 488.007812 637.050781 487.9375 637.199219 C 487.863281 637.347656 487.765625 637.476562 487.644531 637.585938 C 487.519531 637.695312 487.378906 637.777344 487.226562 637.832031 C 487.085938 637.875 486.945312 637.898438 486.800781 637.894531 Z M 450.621094 172.875 C 447.179688 172.875 442.46875 176.078125 441.210938 178.59375 C 440.34375 180.328125 441.515625 192.4375 443.242188 204.160156 C 448.558594 195.679688 453.464844 179.667969 452.695312 174.296875 C 452.570312 173.402344 452.339844 173.230469 452.339844 173.230469 C 451.792969 172.988281 451.21875 172.867188 450.621094 172.875 Z M 450.621094 172.875 " fill-opacity="1" fill-rule="nonzero"/><path fill="#6d1f1f" d="M 442.234375 207.046875 C 441.835938 207.046875 441.515625 206.890625 441.265625 206.582031 C 440.707031 205.890625 427.597656 189.542969 425.875 181.054688 C 424.90625 176.296875 426.515625 173.449219 428.035156 171.894531 C 430.125 169.761719 433.132812 168.992188 435.023438 169.335938 C 438.117188 169.898438 440.578125 175.789062 441.257812 177.578125 C 441.320312 177.734375 441.351562 177.894531 441.347656 178.0625 C 441.347656 178.230469 441.3125 178.390625 441.246094 178.546875 C 441.179688 178.699219 441.085938 178.835938 440.964844 178.949219 C 440.84375 179.066406 440.703125 179.152344 440.546875 179.214844 C 440.390625 179.273438 440.230469 179.300781 440.0625 179.292969 C 439.894531 179.289062 439.734375 179.25 439.582031 179.179688 C 439.429688 179.109375 439.296875 179.011719 439.183594 178.886719 C 439.070312 178.765625 438.988281 178.625 438.933594 178.464844 C 437.769531 175.40625 435.734375 171.996094 434.574219 171.78125 C 433.5625 171.601562 431.355469 172.0625 429.8125 173.636719 C 428.269531 175.210938 427.71875 177.640625 428.3125 180.558594 C 429.921875 188.457031 443.070312 204.855469 443.203125 205.019531 C 443.351562 205.207031 443.441406 205.417969 443.46875 205.65625 C 443.496094 205.894531 443.460938 206.121094 443.355469 206.335938 C 443.253906 206.554688 443.101562 206.726562 442.898438 206.855469 C 442.695312 206.980469 442.472656 207.046875 442.234375 207.046875 Z M 442.234375 207.046875 " fill-opacity="1" fill-rule="nonzero"/><path fill="#6d1f1f" d="M 444.617188 205.535156 C 444.335938 205.535156 444.082031 205.449219 443.859375 205.277344 C 443.636719 205.105469 443.488281 204.882812 443.414062 204.609375 C 443.34375 204.335938 443.359375 204.070312 443.46875 203.808594 C 443.578125 203.550781 443.757812 203.351562 444 203.210938 C 451.390625 199.027344 462.488281 190.703125 460.835938 186.167969 C 460.15625 184.300781 459.167969 183.121094 457.902344 182.660156 C 455.941406 181.949219 453.792969 183.109375 453.773438 183.121094 C 453.628906 183.210938 453.472656 183.269531 453.308594 183.292969 C 453.140625 183.320312 452.976562 183.308594 452.8125 183.269531 C 452.648438 183.226562 452.5 183.15625 452.367188 183.050781 C 452.230469 182.949219 452.121094 182.824219 452.039062 182.679688 C 451.957031 182.53125 451.902344 182.375 451.882812 182.207031 C 451.863281 182.039062 451.878906 181.875 451.925781 181.710938 C 451.972656 181.550781 452.050781 181.402344 452.160156 181.273438 C 452.265625 181.144531 452.394531 181.039062 452.542969 180.960938 C 452.667969 180.886719 455.691406 179.199219 458.761719 180.324219 C 460.742188 181.035156 462.226562 182.726562 463.171875 185.300781 C 466.101562 193.285156 447.371094 204.140625 445.226562 205.363281 C 445.039062 205.476562 444.835938 205.53125 444.617188 205.535156 Z M 444.617188 205.535156 " fill-opacity="1" fill-rule="nonzero"/><path fill="#6d1f1f" d="M 442.476562 208.648438 C 442.183594 208.648438 441.925781 208.558594 441.699219 208.375 C 441.582031 208.285156 430.554688 199.382812 424.105469 193.667969 C 421.84375 191.664062 420.90625 189.679688 421.308594 187.769531 C 421.972656 184.621094 425.996094 183.257812 426.449219 183.109375 C 426.605469 183.066406 426.761719 183.054688 426.921875 183.070312 C 427.082031 183.089844 427.234375 183.136719 427.375 183.210938 C 427.519531 183.289062 427.640625 183.390625 427.746094 183.511719 C 427.847656 183.636719 427.921875 183.773438 427.972656 183.929688 C 428.023438 184.082031 428.039062 184.238281 428.027344 184.398438 C 428.015625 184.558594 427.976562 184.710938 427.90625 184.855469 C 427.835938 185 427.738281 185.128906 427.617188 185.234375 C 427.5 185.34375 427.363281 185.425781 427.210938 185.480469 C 426.410156 185.738281 424.050781 186.8125 423.742188 188.285156 C 423.488281 189.496094 424.699219 190.867188 425.753906 191.804688 C 432.152344 197.496094 443.148438 206.347656 443.257812 206.4375 C 443.464844 206.605469 443.601562 206.8125 443.671875 207.066406 C 443.746094 207.320312 443.734375 207.570312 443.648438 207.820312 C 443.558594 208.066406 443.410156 208.269531 443.195312 208.421875 C 442.980469 208.574219 442.738281 208.648438 442.476562 208.648438 Z M 442.476562 208.648438 " fill-opacity="1" fill-rule="nonzero"/><path fill="#6d1f1f" d="M 439.257812 288.265625 C 438.875 288.269531 438.5625 288.125 438.3125 287.832031 C 437.472656 286.855469 417.902344 263.738281 421.21875 245.25 C 421.246094 234.433594 424.90625 229.609375 428.039062 228.792969 C 428.386719 228.679688 428.742188 228.632812 429.105469 228.644531 C 429.46875 228.660156 429.820312 228.734375 430.15625 228.867188 C 430.496094 229 430.800781 229.1875 431.074219 229.425781 C 431.347656 229.667969 431.574219 229.945312 431.75 230.261719 C 432.414062 231.421875 432.609375 233.5625 428.195312 239.914062 C 426.292969 242.660156 424.285156 245.117188 423.621094 245.90625 C 420.710938 263.210938 439.996094 285.984375 440.191406 286.214844 C 440.347656 286.398438 440.445312 286.613281 440.480469 286.851562 C 440.511719 287.09375 440.480469 287.324219 440.378906 287.542969 C 440.277344 287.765625 440.125 287.941406 439.917969 288.070312 C 439.714844 288.203125 439.492188 288.269531 439.25 288.265625 Z M 429.003906 231.148438 C 428.890625 231.148438 428.78125 231.164062 428.675781 231.199219 C 426.964844 231.648438 424.542969 234.796875 423.878906 241.609375 C 424.589844 240.707031 425.347656 239.664062 426.097656 238.589844 C 430.117188 232.816406 429.597656 231.503906 429.589844 231.480469 C 429.46875 231.238281 429.269531 231.128906 429.003906 231.148438 Z M 429.003906 231.148438 " fill-opacity="1" fill-rule="nonzero"/><path fill="#6d1f1f" d="M 416.582031 256.941406 C 414.492188 256.933594 412.523438 256.4375 410.679688 255.457031 C 408.589844 254.324219 407.414062 252.855469 407.453125 251.421875 C 407.472656 250.828125 407.722656 249.726562 409.230469 249.015625 C 414.050781 246.734375 421.886719 251.65625 422.765625 252.214844 C 422.902344 252.304688 423.015625 252.417969 423.109375 252.554688 C 423.203125 252.691406 423.265625 252.839844 423.296875 253 C 423.332031 253.160156 423.332031 253.324219 423.300781 253.484375 C 423.269531 253.648438 423.210938 253.796875 423.121094 253.933594 C 423.035156 254.074219 422.925781 254.195312 422.792969 254.289062 C 422.773438 254.703125 422.597656 255.023438 422.257812 255.257812 C 420.542969 256.414062 418.648438 256.972656 416.582031 256.941406 Z M 412.167969 250.898438 C 411.515625 250.878906 410.890625 250.996094 410.292969 251.253906 C 410 251.394531 409.9375 251.5 409.9375 251.503906 C 409.9375 251.660156 410.375 252.433594 411.796875 253.21875 C 414.109375 254.5 417.511719 255.046875 420.21875 253.574219 C 418.136719 252.433594 414.757812 250.898438 412.167969 250.898438 Z M 412.167969 250.898438 " fill-opacity="1" fill-rule="nonzero"/><path fill="#6d1f1f" d="M 425.882812 264.394531 C 425.511719 264.253906 425.144531 264.253906 424.777344 264.394531 C 424.613281 264.378906 424.457031 264.332031 424.3125 264.253906 C 424.167969 264.179688 424.039062 264.078125 423.9375 263.949219 C 423.832031 263.824219 423.753906 263.679688 423.703125 263.523438 C 423.65625 263.367188 423.636719 263.207031 423.652344 263.042969 C 423.671875 262.851562 424.113281 258.324219 426.949219 255.625 C 428.121094 254.507812 429.132812 254.664062 429.628906 254.855469 C 430.484375 255.1875 431.023438 256.042969 431.109375 257.203125 C 431.261719 259.335938 429.890625 262.320312 426.488281 264.238281 C 426.296875 264.34375 426.097656 264.394531 425.882812 264.394531 Z M 428.628906 257.449219 C 427.5625 258.496094 426.925781 259.96875 426.570312 261.167969 C 427.535156 260.410156 428.183594 259.441406 428.527344 258.265625 C 428.605469 258 428.644531 257.726562 428.644531 257.449219 Z M 428.628906 257.449219 " fill-opacity="1" fill-rule="nonzero"/><g clip-path="url(#a31a68596d)"><path fill="#6d1f1f" d="M 428.503906 317.132812 C 428.269531 317.132812 428.054688 317.074219 427.855469 316.953125 C 427.660156 316.835938 427.507812 316.671875 427.398438 316.46875 C 427.292969 316.261719 427.246094 316.042969 427.261719 315.8125 C 427.273438 315.582031 427.347656 315.371094 427.480469 315.179688 C 429.511719 312.269531 476.984375 244.195312 499.824219 238.859375 C 501.125 235.449219 506.460938 222.582031 512.832031 223.574219 C 514.851562 223.890625 516.101562 225.09375 516.261719 226.867188 C 516.617188 230.886719 510.765625 237.53125 501.722656 240.890625 L 501.679688 241.015625 L 500.988281 241.140625 L 500.949219 241.140625 C 479.390625 245.050781 430.015625 315.859375 429.523438 316.574219 C 429.28125 316.941406 428.941406 317.128906 428.503906 317.132812 Z M 512.101562 226.023438 C 508.996094 226.023438 505.269531 232.332031 502.972656 237.703125 C 509.863281 234.542969 513.992188 229.503906 513.785156 227.109375 C 513.761719 226.828125 513.710938 226.25 512.445312 226.042969 C 512.332031 226.027344 512.21875 226.019531 512.101562 226.023438 Z M 512.101562 226.023438 " fill-opacity="1" fill-rule="nonzero"/></g><path fill="#6d1f1f" d="M 469.007812 262.644531 L 472.394531 260.207031 C 474.011719 259.046875 488.359375 248.945312 494.042969 252.496094 C 496.125 253.796875 496.113281 255.234375 495.917969 255.980469 C 494.851562 260.085938 482.988281 262.039062 473.164062 262.460938 Z M 490.9375 254.179688 C 487.691406 254.179688 482.230469 256.871094 477.703125 259.671875 C 481.269531 259.390625 484.789062 258.808594 488.257812 257.917969 C 492.550781 256.738281 493.5 255.582031 493.515625 255.335938 C 493.515625 255.335938 493.453125 255.058594 492.730469 254.601562 C 492.171875 254.292969 491.574219 254.152344 490.9375 254.179688 Z M 490.9375 254.179688 " fill-opacity="1" fill-rule="nonzero"/><path fill="#6d1f1f" d="M 448.34375 290.007812 L 448.652344 286.902344 C 449.132812 282.394531 449.84375 277.925781 450.785156 273.488281 C 452.867188 263.921875 455.492188 258.945312 458.804688 258.332031 C 460.203125 258.070312 461.335938 258.59375 461.90625 259.78125 C 464.378906 264.886719 454.796875 284.425781 450.703125 287.964844 Z M 459.492188 260.753906 C 459.417969 260.753906 459.339844 260.761719 459.265625 260.777344 C 455.871094 261.417969 453.003906 272.933594 451.636719 282.835938 C 455.351562 277.058594 459.953125 266.292969 459.839844 261.863281 C 459.816406 260.984375 459.605469 260.796875 459.601562 260.796875 C 459.570312 260.773438 459.535156 260.757812 459.492188 260.753906 Z M 459.492188 260.753906 " fill-opacity="1" fill-rule="nonzero"/><path fill="#6d1f1f" d="M 450.15625 308.605469 C 449.242188 308.605469 448.328125 308.574219 447.46875 308.523438 C 443.699219 308.3125 438.613281 307.589844 436.679688 306.25 C 436.542969 306.15625 436.429688 306.042969 436.339844 305.902344 C 436.25 305.765625 436.191406 305.613281 436.160156 305.453125 C 436.132812 305.289062 436.132812 305.128906 436.167969 304.964844 C 436.203125 304.804688 436.269531 304.65625 436.363281 304.519531 L 436.445312 304.414062 C 436.320312 304.265625 436.234375 304.101562 436.183594 303.914062 C 436.136719 303.726562 436.132812 303.539062 436.171875 303.351562 C 436.210938 303.164062 436.289062 302.992188 436.40625 302.839844 C 436.519531 302.6875 436.667969 302.570312 436.839844 302.484375 C 437.308594 302.253906 448.460938 296.894531 456.222656 302.597656 C 458.796875 304.488281 458.316406 305.984375 457.800781 306.707031 C 456.738281 308.195312 453.4375 308.605469 450.15625 308.605469 Z M 438.539062 304.449219 C 439.921875 305.070312 443.226562 305.777344 447.429688 306.027344 C 452.371094 306.324219 454.894531 305.777344 455.605469 305.378906 C 455.355469 305.082031 455.070312 304.820312 454.746094 304.601562 C 449.132812 300.476562 440.835938 303.484375 438.539062 304.449219 Z M 438.539062 304.449219 " fill-opacity="1" fill-rule="nonzero"/><path fill="#6d1f1f" d="M 428.105469 524.609375 C 427.730469 524.609375 427.421875 524.46875 427.171875 524.1875 C 426.570312 523.507812 367.019531 456.335938 344.417969 432.472656 C 341.574219 432.171875 327.238281 430.378906 323.238281 424.570312 C 322.699219 423.820312 322.355469 422.992188 322.203125 422.082031 C 322.050781 421.167969 322.109375 420.273438 322.378906 419.386719 C 323.597656 415.074219 326.316406 414.167969 327.832031 414.015625 C 333.289062 413.457031 340.59375 420.101562 346.027344 430.550781 C 368.511719 454.246094 428.429688 521.839844 429.035156 522.519531 C 429.199219 522.703125 429.296875 522.917969 429.332031 523.160156 C 429.371094 523.402344 429.339844 523.632812 429.238281 523.855469 C 429.136719 524.078125 428.984375 524.257812 428.777344 524.390625 C 428.574219 524.523438 428.347656 524.589844 428.105469 524.589844 Z M 328.480469 416.492188 C 328.347656 416.492188 328.21875 416.496094 328.089844 416.511719 C 326.515625 416.667969 325.402344 417.871094 324.777344 420.066406 C 324.609375 420.597656 324.570312 421.136719 324.660156 421.683594 C 324.746094 422.230469 324.953125 422.730469 325.28125 423.179688 C 327.90625 427 337.308594 429.027344 342.761719 429.785156 C 337.738281 420.949219 331.992188 416.492188 328.480469 416.492188 Z M 328.480469 416.492188 " fill-opacity="1" fill-rule="nonzero"/><path fill="#6d1f1f" d="M 326.777344 442.039062 C 325.933594 442.058594 325.117188 441.921875 324.332031 441.625 C 322.734375 440.96875 321.933594 439.527344 322.136719 437.664062 C 322.875 430.910156 337.476562 430.105469 343.078125 430.046875 C 342.25 428.148438 340.945312 424.96875 339.847656 421.632812 C 337.324219 413.875 337.410156 409.628906 340.113281 408.277344 C 342.394531 407.136719 345.066406 407.59375 347.09375 409.460938 C 348.679688 410.929688 353.394531 416.882812 347.359375 431.765625 C 347.261719 432.015625 347.097656 432.207031 346.871094 432.347656 L 346.980469 432.585938 L 345.558594 432.554688 C 341.503906 437.25 332.390625 442.039062 326.777344 442.039062 Z M 342.0625 432.554688 C 335.167969 432.753906 325.015625 434.109375 324.601562 437.933594 C 324.496094 438.917969 324.886719 439.167969 325.265625 439.324219 C 328.148438 440.5 337.011719 437.023438 342.074219 432.554688 Z M 342.691406 410.160156 C 342.171875 410.160156 341.679688 410.277344 341.214844 410.515625 C 340.269531 410.988281 339.960938 413.984375 342.203125 420.875 C 343.34375 424.375 344.777344 427.765625 345.558594 429.53125 C 349.25 419.660156 347.941406 413.660156 345.394531 411.300781 C 344.644531 410.566406 343.746094 410.1875 342.699219 410.15625 Z M 342.691406 410.160156 " fill-opacity="1" fill-rule="nonzero"/><path fill="#6d1f1f" d="M 362.90625 451.898438 C 362.628906 451.898438 362.375 451.8125 362.152344 451.640625 C 361.929688 451.472656 361.78125 451.25 361.707031 450.980469 C 360.960938 448.144531 360.390625 445.273438 359.992188 442.371094 C 359.152344 435.886719 359.964844 432.277344 362.480469 431.351562 C 364.042969 430.765625 365.613281 431.265625 366.789062 432.722656 C 369.679688 436.304688 369.988281 445.222656 366.042969 451.339844 C 365.953125 451.476562 365.839844 451.589844 365.703125 451.683594 C 365.566406 451.777344 365.417969 451.839844 365.257812 451.871094 C 365.09375 451.90625 364.933594 451.90625 364.773438 451.875 C 364.609375 451.84375 364.460938 451.785156 364.324219 451.695312 C 364.179688 451.601562 364.0625 451.480469 363.96875 451.339844 C 363.792969 451.601562 363.558594 451.773438 363.257812 451.855469 C 363.140625 451.882812 363.027344 451.898438 362.90625 451.898438 Z M 363.734375 433.582031 C 363.601562 433.585938 363.46875 433.613281 363.34375 433.667969 C 361.335938 434.421875 362.058594 442.578125 363.992188 449.894531 C 367.429688 444.472656 366.894531 436.8125 364.839844 434.253906 C 364.382812 433.71875 364.027344 433.582031 363.734375 433.582031 Z M 363.734375 433.582031 " fill-opacity="1" fill-rule="nonzero"/><path fill="#6d1f1f" d="M 386.675781 478.1875 C 386.433594 478.191406 386.210938 478.125 386.007812 477.996094 C 385.804688 477.871094 385.652344 477.695312 385.546875 477.476562 C 385.351562 477.0625 380.867188 467.214844 385.945312 463.523438 C 387.410156 462.457031 388.921875 462.496094 389.984375 463.628906 C 392.34375 466.136719 391.710938 474.316406 388.886719 477.746094 C 388.691406 477.980469 388.445312 478.125 388.148438 478.179688 C 387.847656 478.234375 387.566406 478.183594 387.300781 478.03125 L 387.203125 478.082031 C 387.035156 478.15625 386.859375 478.191406 386.675781 478.1875 Z M 388 465.238281 C 387.777344 465.277344 387.578125 465.375 387.40625 465.527344 C 384.894531 467.355469 386.339844 472.777344 387.40625 475.507812 C 389.261719 472.457031 389.363281 466.597656 388.160156 465.324219 C 388.121094 465.269531 388.066406 465.242188 388 465.238281 Z M 388 465.238281 " fill-opacity="1" fill-rule="nonzero"/><path fill="#6d1f1f" d="M 363.742188 468.605469 C 362.34375 468.578125 361.128906 468.09375 360.097656 467.144531 C 358.488281 465.746094 358.464844 464.484375 358.730469 463.671875 C 359.796875 460.378906 368.058594 459.34375 371.558594 459.050781 L 373.8125 458.859375 L 372.765625 460.867188 C 372.410156 461.578125 369.097656 467.679688 364.71875 468.511719 C 364.394531 468.574219 364.070312 468.605469 363.742188 468.605469 Z M 369.261719 461.8125 C 365.015625 462.410156 361.394531 463.53125 361.085938 464.441406 C 361.085938 464.476562 361.132812 464.761719 361.71875 465.265625 C 362.542969 465.976562 363.34375 466.238281 364.238281 466.066406 C 366.117188 465.710938 367.996094 463.613281 369.261719 461.8125 Z M 369.261719 461.8125 " fill-opacity="1" fill-rule="nonzero"/><path fill="#6d1f1f" d="M 385.40625 511.300781 C 377.277344 511.300781 371.390625 509.558594 369.195312 506.488281 C 367.988281 504.796875 367.269531 501.933594 370.71875 497.898438 C 379.25 487.914062 397.660156 496.585938 406.507812 500.742188 C 408.175781 501.527344 409.894531 502.335938 410.460938 502.472656 C 410.726562 502.4375 410.980469 502.484375 411.214844 502.609375 C 411.453125 502.738281 411.628906 502.921875 411.746094 503.160156 C 411.824219 503.320312 411.867188 503.488281 411.871094 503.667969 C 412.152344 503.707031 412.390625 503.828125 412.585938 504.03125 C 412.78125 504.234375 412.894531 504.476562 412.925781 504.753906 C 412.960938 505.035156 412.902344 505.296875 412.757812 505.539062 C 412.613281 505.78125 412.410156 505.953125 412.144531 506.054688 C 403.96875 509.285156 394.464844 511.195312 386.058594 511.292969 Z M 382.078125 495.75 C 378.316406 495.75 374.949219 496.777344 372.609375 499.515625 C 370.679688 501.773438 370.214844 503.632812 371.222656 505.046875 C 374.632812 509.816406 392.640625 510.378906 408.976562 504.59375 C 408.175781 504.277344 407.070312 503.761719 405.449219 503 C 399.816406 500.351562 390.050781 495.75 382.078125 495.75 Z M 382.078125 495.75 " fill-opacity="1" fill-rule="nonzero"/></svg>