<svg xmlns="http://www.w3.org/2000/svg" xmlns:xlink="http://www.w3.org/1999/xlink" width="1080" zoomAndPan="magnify" viewBox="0 0 810 809.999993" height="1080" preserveAspectRatio="xMidYMid meet" version="1.0"><defs><clipPath id="31dd5b0528"><path d="M 130.3125 17.792969 L 796.3125 17.792969 L 796.3125 685.292969 L 130.3125 685.292969 Z M 130.3125 17.792969 " clip-rule="nonzero"/></clipPath><clipPath id="3231837b80"><path d="M 600 0.792969 L 637 0.792969 L 637 25 L 600 25 Z M 600 0.792969 " clip-rule="nonzero"/></clipPath><clipPath id="76675b957f"><path d="M 642 30 L 666.3125 30 L 666.3125 67 L 642 67 Z M 642 30 " clip-rule="nonzero"/></clipPath><clipPath id="73632a0fc3"><path d="M 0.371094 449 L 3 449 L 3 451 L 0.371094 451 Z M 0.371094 449 " clip-rule="nonzero"/></clipPath><clipPath id="a8bd76bf0e"><path d="M 218 665 L 221 665 L 221 668.234375 L 218 668.234375 Z M 218 665 " clip-rule="nonzero"/></clipPath><clipPath id="b49ae40b5d"><rect x="0" width="667" y="0" height="669"/></clipPath></defs><g clip-path="url(#31dd5b0528)"><g transform="matrix(1, 0, 0, 1, 130, 17)"><g clip-path="url(#b49ae40b5d)"><path fill="#f5f0eb" d="M 661.785156 5.542969 C 660.734375 5.53125 659.175781 6.40625 657.113281 8.171875 L 657.132812 8.15625 C 655.230469 9.894531 652.898438 12.554688 650.132812 16.132812 C 650.097656 16.175781 650.0625 16.214844 650.023438 16.25 L 637.695312 27.019531 C 637.652344 27.054688 637.609375 27.085938 637.5625 27.113281 C 635.320312 28.402344 633.519531 28.375 632.160156 27.035156 L 633.457031 26.050781 C 635.175781 29.183594 635.46875 31.816406 634.335938 33.949219 L 634.316406 33.980469 C 633.613281 35.183594 631.566406 37.144531 628.179688 39.863281 L 628.214844 39.835938 C 628.195312 39.851562 628.175781 39.871094 628.15625 39.886719 L 628.15625 39.882812 C 627.582031 40.351562 627.0625 40.324219 626.601562 39.804688 C 626.527344 39.722656 626.464844 39.628906 626.40625 39.519531 C 626.199219 39.117188 626.082031 38.398438 626.054688 37.367188 C 626.042969 36.914062 626.402344 36.535156 626.855469 36.523438 C 627.3125 36.511719 627.6875 36.871094 627.699219 37.324219 C 627.71875 38.105469 627.777344 38.582031 627.871094 38.765625 C 627.863281 38.75 627.851562 38.734375 627.832031 38.714844 C 627.597656 38.445312 627.359375 38.410156 627.117188 38.605469 C 627.117188 38.605469 627.117188 38.605469 627.121094 38.605469 L 627.152344 38.578125 C 630.378906 35.988281 632.292969 34.179688 632.894531 33.148438 L 632.878906 33.175781 C 633.734375 31.566406 633.445312 29.457031 632.015625 26.84375 C 631.820312 26.484375 631.914062 26.039062 632.242188 25.792969 C 632.566406 25.546875 633.023438 25.574219 633.316406 25.863281 C 634.082031 26.617188 635.222656 26.558594 636.742188 25.6875 L 636.609375 25.78125 L 648.9375 15.011719 L 648.828125 15.128906 C 651.652344 11.472656 654.046875 8.742188 656.019531 6.941406 L 656.042969 6.921875 C 658.417969 4.886719 660.339844 3.878906 661.804688 3.898438 C 662.257812 3.902344 662.621094 4.277344 662.617188 4.730469 C 662.613281 5.183594 662.238281 5.550781 661.785156 5.542969 Z M 661.785156 5.542969 " fill-opacity="0.894" fill-rule="nonzero"/><path fill="#f5f0eb" d="M 661.480469 5.242188 C 661.496094 6.292969 660.625 7.851562 658.867188 9.921875 L 658.886719 9.902344 C 657.152344 11.808594 654.5 14.152344 650.929688 16.929688 C 650.886719 16.960938 650.847656 17 650.8125 17.039062 L 640.085938 29.40625 C 640.050781 29.445312 640.019531 29.492188 639.996094 29.539062 C 638.714844 31.785156 638.746094 33.585938 640.09375 34.941406 L 641.070312 33.636719 C 637.933594 31.933594 635.300781 31.648438 633.171875 32.789062 L 633.140625 32.808594 C 631.9375 33.515625 629.984375 35.566406 627.28125 38.964844 L 627.304688 38.933594 C 627.289062 38.953125 627.273438 38.96875 627.257812 38.988281 C 626.792969 39.566406 626.820312 40.082031 627.339844 40.542969 C 627.425781 40.617188 627.519531 40.679688 627.628906 40.738281 C 628.035156 40.945312 628.75 41.058594 629.78125 41.082031 C 630.238281 41.09375 630.613281 40.730469 630.625 40.277344 C 630.632812 39.824219 630.273438 39.445312 629.820312 39.4375 C 629.039062 39.417969 628.558594 39.363281 628.378906 39.269531 C 628.394531 39.277344 628.410156 39.289062 628.429688 39.308594 C 628.699219 39.542969 628.734375 39.78125 628.539062 40.023438 C 628.539062 40.023438 628.539062 40.023438 628.542969 40.019531 L 628.566406 39.988281 C 631.144531 36.753906 632.949219 34.832031 633.976562 34.226562 L 633.949219 34.242188 C 635.554688 33.382812 637.667969 33.660156 640.285156 35.085938 C 640.644531 35.28125 641.089844 35.183594 641.335938 34.855469 C 641.582031 34.527344 641.550781 34.070312 641.261719 33.78125 C 640.503906 33.019531 640.558594 31.875 641.425781 30.351562 L 641.332031 30.484375 L 652.058594 18.117188 L 651.941406 18.230469 C 655.585938 15.394531 658.308594 12.988281 660.105469 11.007812 L 660.121094 10.988281 C 662.148438 8.601562 663.148438 6.679688 663.125 5.214844 C 663.117188 4.761719 662.746094 4.398438 662.289062 4.40625 C 661.835938 4.410156 661.472656 4.785156 661.480469 5.242188 Z M 661.480469 5.242188 " fill-opacity="0.894" fill-rule="nonzero"/><path fill="#f5f0eb" d="M 656.261719 9.910156 C 657.085938 9.664062 657.839844 9.722656 658.519531 10.089844 L 658.578125 10.125 C 660.050781 11.078125 660.929688 11.722656 661.214844 12.058594 C 661.488281 12.375 661.558594 12.703125 661.421875 13.039062 L 661.371094 12.324219 C 662.527344 14.335938 662.996094 16.191406 662.78125 17.890625 L 662.769531 17.960938 C 662.222656 20.46875 661.292969 22.734375 659.980469 24.757812 L 659.988281 24.746094 C 658.171875 27.652344 656.394531 29.046875 654.65625 28.925781 L 654.796875 28.925781 C 654.230469 28.984375 653.921875 28.738281 653.863281 28.183594 C 653.828125 27.875 653.949219 27.613281 654.21875 27.390625 C 654.226562 27.386719 654.234375 27.378906 654.246094 27.371094 C 654.304688 27.324219 654.375 27.285156 654.445312 27.253906 C 654.890625 27.078125 655.175781 26.945312 655.304688 26.855469 L 655.292969 26.859375 C 655.511719 26.699219 655.648438 26.59375 655.699219 26.542969 C 655.6875 26.554688 655.675781 26.570312 655.660156 26.589844 L 655.707031 26.535156 C 656.207031 25.96875 656.648438 25.308594 657.027344 24.546875 L 657.035156 24.53125 C 657.476562 23.699219 658.179688 21.773438 659.144531 18.757812 L 659.144531 18.75 C 659.246094 18.449219 659.242188 17.980469 659.140625 17.347656 L 659.15625 17.421875 C 658.738281 15.796875 657.988281 14.40625 656.902344 13.25 L 656.945312 13.292969 C 656.535156 12.914062 656.011719 12.546875 655.375 12.183594 C 655.339844 12.164062 655.308594 12.144531 655.28125 12.121094 C 655.285156 12.125 655.292969 12.128906 655.296875 12.132812 C 655.046875 11.96875 653.957031 11.523438 652.023438 10.796875 L 651.945312 10.761719 L 651.96875 10.773438 C 651.449219 10.53125 650.976562 10.222656 650.554688 9.84375 C 650.214844 9.542969 650.183594 9.023438 650.484375 8.683594 C 650.789062 8.34375 651.308594 8.3125 651.648438 8.613281 C 651.953125 8.886719 652.289062 9.105469 652.660156 9.28125 L 652.683594 9.289062 L 652.605469 9.257812 C 654.652344 10.027344 655.847656 10.527344 656.195312 10.753906 C 656.226562 10.773438 656.253906 10.792969 656.28125 10.816406 L 656.1875 10.753906 C 656.933594 11.175781 657.558594 11.621094 658.058594 12.082031 L 658.101562 12.121094 C 659.378906 13.480469 660.261719 15.113281 660.75 17.011719 L 660.765625 17.085938 C 660.910156 17.980469 660.894531 18.707031 660.710938 19.261719 L 660.714844 19.257812 C 659.71875 22.367188 658.976562 24.378906 658.492188 25.300781 L 658.5 25.285156 C 658.054688 26.175781 657.535156 26.953125 656.9375 27.625 L 656.984375 27.570312 C 656.949219 27.617188 656.910156 27.664062 656.863281 27.710938 C 656.753906 27.820312 656.554688 27.976562 656.269531 28.1875 L 656.257812 28.195312 C 656.023438 28.363281 655.625 28.558594 655.058594 28.785156 L 655.257812 28.667969 C 655.257812 28.667969 655.257812 28.667969 655.257812 28.671875 L 655.257812 28.667969 C 655.449219 28.515625 655.527344 28.296875 655.5 28.011719 C 655.441406 27.472656 655.152344 27.230469 654.625 27.285156 C 654.671875 27.28125 654.722656 27.28125 654.769531 27.285156 C 655.851562 27.359375 657.125 26.222656 658.589844 23.875 L 658.597656 23.859375 C 659.804688 22.003906 660.65625 19.921875 661.160156 17.609375 L 661.148438 17.683594 C 661.316406 16.351562 660.917969 14.839844 659.945312 13.144531 C 659.820312 12.929688 659.800781 12.664062 659.894531 12.429688 C 659.78125 12.710938 659.804688 12.941406 659.964844 13.128906 C 659.78125 12.914062 659.023438 12.375 657.683594 11.503906 L 657.742188 11.539062 C 657.460938 11.386719 657.125 11.371094 656.734375 11.488281 C 656.300781 11.617188 655.839844 11.371094 655.710938 10.9375 C 655.578125 10.5 655.828125 10.042969 656.261719 9.910156 Z M 656.261719 9.910156 " fill-opacity="0.894" fill-rule="nonzero"/><path fill="#f5f0eb" d="M 657.132812 10.777344 C 657.375 9.953125 657.316406 9.199219 656.945312 8.519531 L 656.910156 8.460938 C 655.949219 6.992188 655.304688 6.117188 654.96875 5.832031 C 654.648438 5.558594 654.320312 5.492188 653.984375 5.628906 L 654.699219 5.675781 C 652.683594 4.527344 650.828125 4.0625 649.128906 4.285156 L 649.058594 4.300781 C 646.554688 4.855469 644.292969 5.792969 642.273438 7.113281 L 642.285156 7.105469 C 639.382812 8.929688 637.996094 10.710938 638.121094 12.453125 L 638.125 12.308594 C 638.066406 12.875 638.316406 13.1875 638.867188 13.242188 C 639.175781 13.273438 639.441406 13.152344 639.660156 12.882812 C 639.664062 12.875 639.671875 12.867188 639.679688 12.855469 C 639.726562 12.792969 639.765625 12.726562 639.792969 12.652344 C 639.96875 12.207031 640.101562 11.921875 640.191406 11.796875 L 640.1875 11.804688 C 640.347656 11.585938 640.453125 11.449219 640.503906 11.398438 C 640.492188 11.410156 640.476562 11.421875 640.457031 11.4375 L 640.511719 11.390625 C 641.074219 10.890625 641.734375 10.445312 642.492188 10.0625 L 642.507812 10.054688 C 643.339844 9.613281 645.265625 8.902344 648.277344 7.925781 L 648.28125 7.925781 C 648.582031 7.824219 649.050781 7.824219 649.683594 7.925781 L 649.609375 7.910156 C 651.238281 8.320312 652.632812 9.066406 653.789062 10.148438 L 653.75 10.109375 C 654.125 10.515625 654.496094 11.039062 654.863281 11.675781 C 654.882812 11.707031 654.902344 11.738281 654.925781 11.765625 L 654.925781 11.769531 C 654.921875 11.761719 654.917969 11.757812 654.914062 11.75 L 654.914062 11.753906 C 655.078125 12 655.527344 13.089844 656.261719 15.019531 L 656.296875 15.097656 L 656.285156 15.074219 C 656.527344 15.59375 656.839844 16.0625 657.21875 16.488281 C 657.519531 16.824219 658.042969 16.855469 658.378906 16.550781 C 658.71875 16.246094 658.746094 15.726562 658.445312 15.386719 C 658.171875 15.085938 657.949219 14.746094 657.777344 14.375 L 657.765625 14.355469 L 657.800781 14.433594 C 657.023438 12.390625 656.519531 11.195312 656.289062 10.847656 C 656.269531 10.816406 656.25 10.789062 656.230469 10.761719 L 656.292969 10.855469 C 655.863281 10.109375 655.417969 9.488281 654.957031 8.988281 L 654.914062 8.945312 C 653.550781 7.671875 651.917969 6.792969 650.015625 6.3125 L 649.941406 6.300781 C 649.046875 6.15625 648.320312 6.179688 647.765625 6.363281 L 647.769531 6.359375 C 644.664062 7.367188 642.652344 8.113281 641.734375 8.601562 L 641.75 8.59375 C 640.863281 9.042969 640.082031 9.566406 639.414062 10.164062 L 639.46875 10.121094 C 639.425781 10.152344 639.378906 10.195312 639.332031 10.242188 C 639.222656 10.351562 639.0625 10.550781 638.855469 10.835938 L 638.847656 10.84375 C 638.683594 11.078125 638.488281 11.480469 638.261719 12.050781 L 638.378906 11.847656 C 638.378906 11.847656 638.378906 11.847656 638.375 11.847656 C 638.53125 11.65625 638.75 11.574219 639.035156 11.605469 C 639.574219 11.660156 639.816406 11.949219 639.761719 12.476562 C 639.765625 12.425781 639.769531 12.378906 639.765625 12.332031 C 639.6875 11.25 640.816406 9.972656 643.160156 8.5 L 643.175781 8.492188 C 645.027344 7.28125 647.105469 6.417969 649.414062 5.90625 L 649.34375 5.917969 C 650.675781 5.746094 652.1875 6.140625 653.882812 7.105469 C 654.101562 7.230469 654.367188 7.25 654.597656 7.15625 C 654.320312 7.269531 654.085938 7.246094 653.902344 7.085938 C 654.117188 7.269531 654.660156 8.027344 655.535156 9.363281 L 655.5 9.304688 C 655.652344 9.585938 655.667969 9.921875 655.554688 10.308594 C 655.425781 10.746094 655.671875 11.203125 656.109375 11.332031 C 656.546875 11.460938 657.003906 11.214844 657.132812 10.777344 Z M 657.132812 10.777344 " fill-opacity="0.894" fill-rule="nonzero"/><g clip-path="url(#3231837b80)"><path fill="#f5f0eb" d="M 628.367188 21.132812 C 628.371094 21.136719 628.371094 21.136719 628.375 21.140625 C 628.28125 21.078125 628.191406 21.078125 628.097656 21.136719 C 628.121094 21.121094 628.160156 21.085938 628.207031 21.027344 C 628.273438 20.945312 628.34375 20.835938 628.417969 20.703125 L 628.347656 20.867188 C 628.441406 20.578125 628.304688 20.246094 627.941406 19.863281 L 628.007812 19.925781 C 627.421875 19.421875 626.636719 19.472656 625.644531 20.078125 L 625.902344 19.839844 C 625.339844 20.621094 625.652344 21.488281 626.84375 22.4375 L 626.703125 22.34375 C 627.8125 22.929688 629.1875 22.863281 630.828125 22.144531 L 630.742188 22.1875 C 633.609375 20.546875 634.796875 18.144531 634.304688 14.988281 L 634.300781 14.949219 C 633.859375 10.9375 630.503906 7.34375 624.238281 4.164062 L 624.265625 4.175781 C 621.984375 3.117188 618.839844 2.644531 614.832031 2.761719 L 614.835938 2.761719 C 611.460938 2.863281 608.996094 3.550781 607.441406 4.820312 L 607.402344 4.851562 C 605.238281 6.429688 603.785156 8.214844 603.042969 10.21875 L 603.070312 10.121094 C 602.332031 13.109375 602.355469 15.761719 603.140625 18.082031 L 603.125 18.039062 C 603.921875 20.03125 604.78125 21.214844 605.703125 21.585938 L 605.648438 21.566406 C 607.300781 22.101562 608.773438 21.980469 610.074219 21.203125 L 610.042969 21.21875 C 612.203125 19.804688 613.292969 17.96875 613.3125 15.710938 L 613.3125 15.71875 C 613.3125 14.035156 612.347656 12.613281 610.414062 11.441406 L 610.40625 11.4375 C 609.097656 10.625 608.273438 10.496094 607.933594 11.042969 C 607.832031 11.203125 607.75 11.414062 607.6875 11.671875 L 607.695312 11.621094 C 607.511719 12.582031 607.65625 13.203125 608.125 13.492188 L 608.105469 13.480469 C 608.613281 13.769531 609.105469 13.613281 609.589844 13.007812 C 609.898438 12.621094 610.457031 12.558594 610.84375 12.863281 C 611.230469 13.171875 611.292969 13.730469 610.984375 14.117188 C 609.867188 15.523438 608.609375 15.828125 607.214844 15.023438 L 607.195312 15.011719 C 606.019531 14.296875 605.605469 13.054688 605.945312 11.285156 L 605.957031 11.234375 C 606.066406 10.796875 606.21875 10.421875 606.417969 10.105469 C 607.382812 8.546875 609.023438 8.484375 611.34375 9.921875 L 611.335938 9.914062 C 613.84375 11.433594 615.097656 13.367188 615.097656 15.71875 L 615.097656 15.726562 C 615.070312 18.621094 613.710938 20.949219 611.019531 22.710938 L 610.992188 22.730469 C 609.226562 23.789062 607.261719 23.964844 605.097656 23.261719 L 605.039062 23.242188 C 603.644531 22.679688 602.453125 21.167969 601.46875 18.699219 L 601.453125 18.65625 C 600.554688 16.003906 600.519531 13.019531 601.339844 9.695312 L 601.371094 9.597656 C 602.238281 7.261719 603.898438 5.199219 606.351562 3.410156 L 606.3125 3.441406 C 608.179688 1.914062 611.003906 1.09375 614.78125 0.980469 C 619.070312 0.855469 622.480469 1.382812 625.019531 2.558594 L 625.046875 2.574219 C 631.886719 6.042969 635.5625 10.105469 636.074219 14.753906 L 636.066406 14.714844 C 636.683594 18.679688 635.203125 21.6875 631.628906 23.734375 L 631.542969 23.777344 C 629.378906 24.726562 627.488281 24.773438 625.871094 23.921875 C 625.820312 23.898438 625.773438 23.867188 625.730469 23.832031 C 623.652344 22.175781 623.230469 20.496094 624.457031 18.796875 C 624.527344 18.699219 624.613281 18.617188 624.714844 18.558594 C 626.441406 17.5 627.929688 17.503906 629.171875 18.574219 L 629.234375 18.632812 C 630.085938 19.527344 630.355469 20.453125 630.046875 21.414062 C 630.027344 21.472656 630.003906 21.527344 629.972656 21.578125 C 629.847656 21.800781 629.722656 21.992188 629.589844 22.152344 C 629.421875 22.359375 629.238281 22.527344 629.046875 22.648438 C 628.5 22.992188 627.953125 22.988281 627.40625 22.636719 C 627.351562 22.601562 627.292969 22.5625 627.242188 22.515625 C 626.859375 22.207031 626.800781 21.644531 627.109375 21.261719 C 627.421875 20.878906 627.984375 20.820312 628.367188 21.132812 Z M 628.367188 21.132812 " fill-opacity="0.894" fill-rule="nonzero"/></g><g clip-path="url(#76675b957f)"><path fill="#f5f0eb" d="M 646.007812 38.714844 C 646.003906 38.710938 646.003906 38.707031 646 38.703125 C 646.0625 38.796875 646.0625 38.890625 646.003906 38.980469 C 646.019531 38.957031 646.058594 38.917969 646.113281 38.871094 C 646.199219 38.804688 646.304688 38.734375 646.4375 38.660156 L 646.273438 38.730469 C 646.5625 38.636719 646.898438 38.769531 647.277344 39.132812 L 647.21875 39.066406 C 647.722656 39.652344 647.675781 40.4375 647.074219 41.429688 L 647.308594 41.171875 C 646.53125 41.738281 645.664062 41.429688 644.710938 40.242188 L 644.800781 40.382812 C 644.214844 39.273438 644.273438 37.898438 644.988281 36.253906 L 644.945312 36.339844 C 646.578125 33.46875 648.972656 32.273438 652.132812 32.753906 L 652.171875 32.757812 C 656.183594 33.183594 659.789062 36.527344 662.992188 42.78125 L 662.980469 42.753906 C 664.046875 45.03125 664.527344 48.175781 664.425781 52.179688 C 664.335938 55.554688 663.65625 58.019531 662.394531 59.582031 L 662.363281 59.621094 C 660.792969 61.789062 659.011719 63.25 657.011719 64 L 657.109375 63.96875 C 654.125 64.71875 651.46875 64.703125 649.144531 63.925781 L 649.191406 63.945312 C 647.195312 63.152344 646.007812 62.296875 645.636719 61.375 L 645.65625 61.433594 C 645.113281 59.78125 645.230469 58.308594 646.003906 57.007812 L 645.984375 57.035156 C 647.394531 54.871094 649.226562 53.773438 651.484375 53.746094 L 651.476562 53.746094 C 653.15625 53.742188 654.585938 54.703125 655.761719 56.632812 L 655.769531 56.640625 C 656.582031 57.945312 656.714844 58.769531 656.167969 59.109375 C 656.007812 59.210938 655.800781 59.292969 655.542969 59.359375 L 655.589844 59.347656 C 654.632812 59.535156 654.011719 59.398438 653.722656 58.929688 L 653.734375 58.949219 C 653.4375 58.441406 653.59375 57.945312 654.199219 57.460938 C 654.585938 57.152344 654.648438 56.589844 654.339844 56.207031 C 654.03125 55.824219 653.46875 55.761719 653.085938 56.070312 C 651.679688 57.195312 651.382812 58.453125 652.191406 59.84375 L 652.203125 59.863281 C 652.925781 61.035156 654.167969 61.445312 655.933594 61.097656 L 655.984375 61.085938 C 656.421875 60.976562 656.796875 60.820312 657.113281 60.625 C 658.667969 59.652344 658.726562 58.011719 657.28125 55.695312 L 657.285156 55.703125 C 655.761719 53.203125 653.820312 51.953125 651.46875 51.964844 L 651.460938 51.964844 C 648.566406 52 646.242188 53.367188 644.488281 56.0625 L 644.472656 56.09375 C 643.417969 57.859375 643.25 59.824219 643.960938 61.988281 L 643.980469 62.046875 C 644.546875 63.4375 646.0625 64.625 648.535156 65.601562 L 648.582031 65.617188 C 651.234375 66.507812 654.222656 66.53125 657.542969 65.699219 L 657.636719 65.667969 C 659.972656 64.792969 662.027344 63.125 663.808594 60.667969 L 663.777344 60.707031 C 665.296875 58.832031 666.109375 56.003906 666.207031 52.226562 L 666.210938 52.226562 C 666.316406 47.9375 665.78125 44.527344 664.59375 41.996094 L 664.582031 41.96875 C 661.085938 35.140625 657.011719 31.480469 652.359375 30.984375 L 652.398438 30.988281 C 648.433594 30.386719 645.429688 31.875 643.394531 35.460938 L 643.351562 35.546875 C 642.410156 37.714844 642.371094 39.605469 643.226562 41.21875 C 643.253906 41.265625 643.285156 41.3125 643.320312 41.359375 C 644.984375 43.429688 646.664062 43.847656 648.359375 42.613281 C 648.453125 42.542969 648.535156 42.457031 648.597656 42.355469 C 649.648438 40.625 649.636719 39.136719 648.566406 37.898438 L 648.503906 37.835938 C 647.609375 36.988281 646.679688 36.722656 645.71875 37.035156 C 645.664062 37.054688 645.609375 37.078125 645.554688 37.109375 C 645.335938 37.234375 645.144531 37.359375 644.984375 37.492188 C 644.777344 37.664062 644.613281 37.84375 644.492188 38.035156 C 644.148438 38.585938 644.152344 39.132812 644.507812 39.675781 C 644.542969 39.734375 644.585938 39.789062 644.628906 39.84375 C 644.941406 40.226562 645.503906 40.28125 645.882812 39.96875 C 646.265625 39.65625 646.320312 39.09375 646.007812 38.714844 Z M 646.007812 38.714844 " fill-opacity="0.894" fill-rule="nonzero"/></g><path fill="#f5f0eb" d="M 600.984375 12.457031 C 598.101562 12.761719 596.128906 12.78125 595.0625 12.515625 L 595.113281 12.527344 C 593.128906 12.148438 591.308594 11.476562 589.648438 10.503906 C 586.199219 8.476562 584.980469 6.605469 585.988281 4.886719 C 586.019531 4.832031 586.054688 4.777344 586.09375 4.722656 C 586.117188 4.683594 586.148438 4.648438 586.179688 4.617188 C 587.027344 3.71875 588.484375 3.195312 590.554688 3.042969 L 590.574219 3.042969 C 592.867188 2.929688 594.257812 3.417969 594.742188 4.515625 C 594.789062 4.621094 594.816406 4.738281 594.820312 4.851562 C 594.820312 4.992188 594.8125 5.128906 594.789062 5.257812 C 594.703125 5.707031 594.472656 6.0625 594.09375 6.320312 C 593.734375 6.566406 593.25 6.699219 592.644531 6.714844 C 592.464844 6.71875 592.269531 6.710938 592.0625 6.695312 L 592.070312 6.695312 C 591.105469 6.632812 589.691406 6.066406 587.828125 5.003906 C 587.398438 4.757812 587.25 4.214844 587.496094 3.785156 C 587.738281 3.359375 588.285156 3.210938 588.710938 3.453125 C 590.335938 4.382812 591.496094 4.871094 592.191406 4.917969 L 592.199219 4.917969 C 592.34375 4.929688 592.480469 4.933594 592.601562 4.929688 C 592.855469 4.921875 593.015625 4.894531 593.089844 4.847656 C 593.058594 4.867188 593.039062 4.894531 593.035156 4.929688 C 593.035156 4.925781 593.035156 4.914062 593.035156 4.898438 L 593.109375 5.234375 C 592.957031 4.886719 592.140625 4.75 590.660156 4.824219 L 590.683594 4.824219 C 589.074219 4.9375 588.007812 5.277344 587.476562 5.839844 L 587.5625 5.734375 C 587.550781 5.753906 587.539062 5.769531 587.527344 5.789062 C 587.117188 6.484375 588.128906 7.542969 590.550781 8.964844 C 592.03125 9.832031 593.664062 10.433594 595.445312 10.773438 L 595.496094 10.785156 C 596.355469 11 598.125 10.964844 600.796875 10.683594 C 601.285156 10.628906 601.722656 10.984375 601.777344 11.476562 C 601.828125 11.964844 601.472656 12.402344 600.984375 12.457031 Z M 600.984375 12.457031 " fill-opacity="0.894" fill-rule="nonzero"/><path fill="#f5f0eb" d="M 654.78125 66.066406 C 654.484375 68.949219 654.472656 70.921875 654.742188 71.988281 L 654.730469 71.9375 C 655.117188 73.917969 655.796875 75.738281 656.773438 77.390625 L 656.773438 77.394531 C 658.8125 80.835938 660.6875 82.050781 662.402344 81.035156 C 662.457031 81 662.511719 80.964844 662.566406 80.929688 C 662.605469 80.902344 662.640625 80.875 662.671875 80.84375 C 663.570312 79.992188 664.085938 78.53125 664.230469 76.460938 L 664.230469 76.441406 C 664.335938 74.144531 663.839844 72.757812 662.742188 72.277344 C 662.636719 72.230469 662.523438 72.207031 662.40625 72.203125 C 662.265625 72.199219 662.132812 72.210938 662 72.234375 C 661.550781 72.320312 661.199219 72.554688 660.941406 72.933594 C 660.695312 73.292969 660.566406 73.777344 660.554688 74.382812 C 660.550781 74.5625 660.554688 74.757812 660.570312 74.964844 L 660.570312 74.957031 C 660.640625 75.925781 661.210938 77.335938 662.28125 79.195312 C 662.527344 79.621094 663.070312 79.769531 663.5 79.523438 C 663.925781 79.277344 664.070312 78.730469 663.824219 78.304688 C 662.890625 76.683594 662.398438 75.523438 662.351562 74.832031 L 662.351562 74.824219 C 662.339844 74.675781 662.335938 74.542969 662.335938 74.421875 C 662.34375 74.167969 662.371094 74.003906 662.417969 73.933594 C 662.398438 73.964844 662.371094 73.980469 662.335938 73.988281 C 662.339844 73.988281 662.351562 73.988281 662.367188 73.988281 L 662.027344 73.914062 C 662.378906 74.066406 662.519531 74.878906 662.449219 76.359375 L 662.449219 76.339844 C 662.339844 77.949219 662.003906 79.015625 661.445312 79.550781 L 661.550781 79.464844 C 661.53125 79.476562 661.515625 79.488281 661.496094 79.5 C 660.804688 79.910156 659.742188 78.902344 658.308594 76.484375 C 657.4375 75.007812 656.828125 73.378906 656.484375 71.597656 L 656.472656 71.546875 C 656.253906 70.6875 656.28125 68.917969 656.554688 66.246094 C 656.605469 65.757812 656.25 65.320312 655.761719 65.269531 C 655.269531 65.21875 654.832031 65.574219 654.78125 66.066406 Z M 654.78125 66.066406 " fill-opacity="0.894" fill-rule="nonzero"/><path fill="#f5f0eb" d="M 586.800781 4.273438 C 586.699219 4.363281 586.589844 4.441406 586.464844 4.507812 C 586.191406 4.652344 585.867188 4.734375 585.488281 4.75 L 585.445312 4.75 C 584.613281 4.753906 584 4.761719 583.613281 4.78125 L 580.808594 4.902344 L 580.820312 4.902344 C 578.660156 5.027344 577.476562 5.085938 577.269531 5.085938 C 577.257812 5.085938 577.246094 5.085938 577.234375 5.085938 L 577.285156 5.085938 C 576.230469 5.121094 575.292969 5.140625 574.476562 5.144531 L 574.472656 5.144531 C 572.640625 5.136719 570.675781 5.039062 568.578125 4.839844 L 568.660156 4.84375 L 568.597656 4.839844 C 567.722656 4.78125 566.195312 4.546875 564.015625 4.140625 L 564.199219 4.15625 C 564.164062 4.15625 564.140625 4.15625 564.128906 4.160156 C 564.238281 4.144531 564.351562 4.082031 564.460938 3.976562 L 564.480469 3.957031 L 564.21875 4.222656 C 563.871094 4.574219 563.304688 4.578125 562.957031 4.230469 C 562.605469 3.886719 562.601562 3.320312 562.949219 2.96875 L 563.210938 2.703125 L 563.230469 2.683594 C 563.394531 2.527344 563.609375 2.433594 563.875 2.394531 C 563.957031 2.382812 564.054688 2.375 564.160156 2.371094 C 564.21875 2.371094 564.28125 2.375 564.34375 2.386719 C 566.453125 2.78125 567.914062 3.003906 568.722656 3.0625 L 568.660156 3.058594 L 568.746094 3.0625 C 570.789062 3.257812 572.703125 3.355469 574.476562 3.359375 C 575.273438 3.359375 576.1875 3.339844 577.226562 3.304688 L 577.277344 3.304688 C 577.277344 3.304688 577.273438 3.304688 577.269531 3.304688 C 577.445312 3.304688 578.59375 3.242188 580.71875 3.121094 L 580.730469 3.121094 L 583.535156 3 L 583.53125 3 C 583.945312 2.980469 584.582031 2.96875 585.441406 2.96875 L 585.402344 2.96875 C 585.515625 2.964844 585.59375 2.949219 585.632812 2.929688 C 585.625 2.933594 585.617188 2.9375 585.609375 2.945312 C 585.976562 2.617188 586.542969 2.648438 586.871094 3.015625 C 587.199219 3.382812 587.167969 3.945312 586.800781 4.273438 Z M 586.800781 4.273438 " fill-opacity="0.894" fill-rule="nonzero"/><path fill="#f5f0eb" d="M 663.011719 80.21875 C 662.921875 80.320312 662.847656 80.433594 662.78125 80.554688 C 662.636719 80.828125 662.558594 81.15625 662.542969 81.535156 L 662.539062 81.574219 C 662.542969 82.410156 662.535156 83.019531 662.515625 83.40625 L 662.515625 83.410156 L 662.40625 86.210938 L 662.40625 86.199219 C 662.289062 88.359375 662.230469 89.542969 662.234375 89.753906 C 662.234375 89.765625 662.234375 89.777344 662.234375 89.789062 L 662.234375 89.734375 C 662.203125 90.792969 662.1875 91.726562 662.1875 92.546875 L 662.1875 92.550781 C 662.199219 94.378906 662.304688 96.34375 662.511719 98.445312 L 662.507812 98.359375 L 662.511719 98.421875 C 662.574219 99.296875 662.8125 100.824219 663.226562 103.003906 L 663.210938 102.820312 C 663.210938 102.851562 663.207031 102.878906 663.207031 102.890625 C 663.222656 102.78125 663.285156 102.667969 663.390625 102.554688 L 663.410156 102.539062 L 663.140625 102.800781 C 662.792969 103.148438 662.792969 103.714844 663.140625 104.0625 C 663.488281 104.414062 664.050781 104.414062 664.402344 104.066406 L 664.667969 103.800781 L 664.683594 103.78125 C 664.839844 103.617188 664.9375 103.402344 664.972656 103.136719 C 664.984375 103.054688 664.992188 102.960938 664.996094 102.855469 C 664.996094 102.792969 664.992188 102.730469 664.980469 102.671875 C 664.578125 100.558594 664.347656 99.101562 664.289062 98.292969 L 664.292969 98.355469 L 664.289062 98.269531 C 664.085938 96.226562 663.980469 94.316406 663.972656 92.539062 L 663.972656 92.542969 C 663.96875 91.746094 663.984375 90.828125 664.015625 89.789062 L 664.015625 89.738281 C 664.015625 89.742188 664.015625 89.742188 664.015625 89.746094 C 664.015625 89.570312 664.074219 88.421875 664.1875 86.296875 L 664.1875 86.285156 L 664.300781 83.480469 L 664.300781 83.484375 C 664.316406 83.070312 664.324219 82.433594 664.324219 81.574219 L 664.324219 81.613281 C 664.328125 81.5 664.339844 81.421875 664.359375 81.382812 L 664.363281 81.382812 C 664.359375 81.390625 664.351562 81.394531 664.347656 81.40625 C 664.671875 81.035156 664.640625 80.472656 664.269531 80.144531 C 663.902344 79.820312 663.339844 79.851562 663.011719 80.21875 Z M 663.011719 80.21875 " fill-opacity="0.894" fill-rule="nonzero"/><path fill="#f5f0eb" d="M 657.210938 165.335938 L 657.273438 165.335938 C 658.394531 165.289062 659.378906 164.710938 660.21875 163.601562 C 660.824219 162.617188 661.089844 161.4375 661.011719 160.058594 C 660.992188 159.800781 660.929688 159.417969 660.824219 158.910156 C 660.300781 156.78125 660.039062 155.613281 660.042969 155.398438 C 660.117188 155.992188 660.152344 156.515625 660.15625 156.972656 C 660.167969 158.429688 660.144531 159.46875 660.085938 160.082031 C 659.875 161.242188 659.519531 162.117188 659.023438 162.707031 C 657.480469 164.316406 656.246094 163.550781 655.324219 160.414062 C 654.683594 158.425781 654.304688 155.335938 654.191406 151.140625 C 654.125 148.128906 654.351562 144.09375 654.871094 139.042969 C 655.429688 133.289062 656.277344 128.332031 657.414062 124.171875 C 657.941406 122.066406 658.882812 119.128906 660.242188 115.355469 L 661.121094 112.964844 C 661.820312 111.429688 662.203125 110.539062 662.265625 110.292969 L 662.753906 109.402344 C 660.789062 112.660156 659.355469 115.253906 658.449219 117.1875 C 657.324219 119.589844 656.320312 122.070312 655.4375 124.632812 C 653.390625 130.640625 652.078125 136.519531 651.5 142.269531 C 650.855469 148.769531 651.042969 154.210938 652.054688 158.585938 C 653.269531 163.105469 654.988281 165.355469 657.210938 165.335938 " fill-opacity="1" fill-rule="nonzero"/><path fill="#f5f0eb" d="M 501.703125 10.375 L 501.703125 10.3125 C 501.746094 9.191406 502.320312 8.207031 503.429688 7.363281 C 504.410156 6.753906 505.589844 6.484375 506.96875 6.558594 C 507.226562 6.574219 507.609375 6.636719 508.117188 6.738281 C 510.246094 7.257812 511.417969 7.511719 511.628906 7.507812 C 511.039062 7.4375 510.515625 7.402344 510.058594 7.398438 C 508.601562 7.394531 507.5625 7.421875 506.949219 7.484375 C 505.789062 7.699219 504.914062 8.054688 504.328125 8.554688 C 502.722656 10.101562 503.492188 11.332031 506.636719 12.246094 C 508.625 12.878906 511.714844 13.246094 515.910156 13.347656 C 518.925781 13.402344 522.957031 13.160156 528.007812 12.625 C 533.757812 12.046875 538.710938 11.179688 542.867188 10.027344 C 544.972656 9.492188 547.90625 8.539062 551.675781 7.167969 L 554.0625 6.28125 C 555.59375 5.578125 556.484375 5.191406 556.730469 5.125 L 557.621094 4.636719 C 554.367188 6.609375 551.777344 8.054688 549.847656 8.96875 C 547.449219 10.101562 544.972656 11.113281 542.414062 12.003906 C 536.410156 14.074219 530.539062 15.40625 524.792969 16.007812 C 518.292969 16.671875 512.851562 16.507812 508.472656 15.507812 C 503.949219 14.308594 501.691406 12.597656 501.703125 10.375 " fill-opacity="1" fill-rule="nonzero"/><path fill="#f5f0eb" d="M 644.085938 239.289062 L 644.246094 239.285156 C 648.265625 238.699219 651.480469 236.339844 653.882812 232.210938 C 655.304688 229.878906 657.117188 225.601562 659.316406 219.378906 C 660.28125 216.910156 661.0625 213.449219 661.652344 208.992188 C 662.714844 201.246094 662.375 192.480469 660.644531 182.703125 C 659.597656 176.746094 657.398438 171.457031 654.042969 166.835938 C 656.113281 171.4375 657.453125 176.679688 658.0625 182.558594 C 658.722656 189.917969 658.636719 197.308594 657.796875 204.722656 C 657.320312 208.394531 656.273438 212.917969 654.65625 218.289062 C 652.167969 225.816406 650.355469 230.425781 649.21875 232.121094 C 647.453125 234.535156 645.585938 235.832031 643.621094 236.011719 C 642.175781 235.574219 641.894531 233.765625 642.777344 230.585938 C 643.996094 226.136719 646.984375 223.722656 651.746094 223.339844 C 648.496094 223.25 646.175781 223.65625 644.792969 224.558594 C 643.125 225.421875 641.691406 227.207031 640.488281 229.921875 C 639.390625 232.554688 639.152344 234.644531 639.777344 236.179688 C 640.644531 238.171875 642.078125 239.207031 644.085938 239.289062 " fill-opacity="1" fill-rule="nonzero"/><path fill="#f5f0eb" d="M 427.796875 23.761719 L 427.800781 23.597656 C 428.371094 19.578125 430.71875 16.355469 434.84375 13.941406 C 437.167969 12.507812 441.4375 10.683594 447.652344 8.460938 C 450.117188 7.484375 453.578125 6.691406 458.03125 6.085938 C 465.777344 5 474.539062 5.304688 484.328125 7.003906 C 490.285156 8.027344 495.582031 10.210938 500.214844 13.550781 C 495.605469 11.492188 490.359375 10.171875 484.480469 9.585938 C 477.117188 8.949219 469.726562 9.0625 462.316406 9.925781 C 458.644531 10.417969 454.125 11.480469 448.757812 13.113281 C 441.242188 15.632812 436.636719 17.460938 434.949219 18.601562 C 432.539062 20.375 431.25 22.246094 431.078125 24.214844 C 431.519531 25.660156 433.328125 25.933594 436.507812 25.039062 C 440.949219 23.804688 443.355469 20.804688 443.71875 16.042969 C 443.820312 19.296875 443.421875 21.613281 442.523438 23.003906 C 441.667969 24.671875 439.886719 26.109375 437.179688 27.324219 C 434.546875 28.433594 432.460938 28.675781 430.921875 28.054688 C 428.929688 27.199219 427.886719 25.765625 427.796875 23.761719 " fill-opacity="1" fill-rule="nonzero"/><path fill="#f5f0eb" d="M 656.933594 323.984375 L 657.039062 323.980469 C 658.933594 324.019531 660.414062 322.929688 661.480469 320.707031 C 662.421875 318.546875 662.449219 316.511719 661.5625 314.609375 C 659.972656 310.972656 657.777344 310.269531 654.980469 312.503906 C 657.664062 310.894531 659.371094 311.734375 660.101562 315.023438 C 660.308594 315.796875 660.386719 316.332031 660.339844 316.625 C 660.292969 317.363281 660.117188 318.078125 659.8125 318.765625 C 658.988281 320.359375 658.171875 321.15625 657.355469 321.152344 C 654.820312 321.136719 651.882812 318.878906 648.542969 314.375 C 643.828125 307.742188 641.292969 298.03125 640.933594 285.246094 C 640.78125 277.359375 641.785156 269.367188 643.941406 261.273438 C 644.828125 258.042969 646.078125 254.789062 647.691406 251.511719 C 647.949219 250.722656 650.355469 246.515625 654.917969 238.886719 C 655.148438 238.21875 654.890625 237.769531 654.140625 237.539062 C 654.878906 237.816406 655.121094 238.230469 654.863281 238.78125 C 654.660156 239.136719 654.296875 239.621094 653.777344 240.234375 C 651.433594 242.769531 650.015625 244.363281 649.519531 245.007812 C 648.71875 245.996094 647.722656 247.410156 646.53125 249.25 C 643.882812 253.492188 641.972656 257.425781 640.804688 261.050781 C 637.675781 270.257812 636.25 279.523438 636.527344 288.847656 C 636.847656 297.390625 638.753906 304.980469 642.246094 311.621094 C 647.589844 319.921875 652.484375 324.042969 656.933594 323.984375 " fill-opacity="1" fill-rule="nonzero"/><path fill="#f5f0eb" d="M 343.058594 11.210938 L 343.058594 11.101562 C 343.015625 9.210938 344.101562 7.726562 346.320312 6.648438 C 348.476562 5.703125 350.507812 5.667969 352.417969 6.550781 C 356.058594 8.125 356.769531 10.316406 354.546875 13.121094 C 356.148438 10.433594 355.300781 8.730469 352.007812 8.011719 C 351.234375 7.808594 350.699219 7.730469 350.40625 7.777344 C 349.667969 7.828125 348.953125 8.003906 348.265625 8.3125 C 346.675781 9.144531 345.882812 9.964844 345.890625 10.777344 C 345.914062 13.3125 348.183594 16.242188 352.695312 19.566406 C 359.347656 24.257812 369.066406 26.757812 381.851562 27.074219 C 389.742188 27.199219 397.726562 26.167969 405.8125 23.980469 C 409.042969 23.085938 412.289062 21.824219 415.5625 20.199219 C 416.351562 19.9375 420.550781 17.515625 428.164062 12.925781 C 428.832031 12.695312 429.28125 12.953125 429.511719 13.699219 C 429.234375 12.960938 428.816406 12.722656 428.269531 12.980469 C 427.910156 13.1875 427.429688 13.550781 426.820312 14.074219 C 424.289062 16.425781 422.703125 17.847656 422.058594 18.347656 C 421.074219 19.152344 419.664062 20.152344 417.828125 21.351562 C 413.59375 24.011719 409.667969 25.9375 406.046875 27.117188 C 396.851562 30.28125 387.589844 31.738281 378.265625 31.492188 C 369.722656 31.203125 362.125 29.320312 355.472656 25.851562 C 347.152344 20.539062 343.015625 15.660156 343.058594 11.210938 " fill-opacity="1" fill-rule="nonzero"/><path fill="#f5f0eb" d="M 657.179688 406.648438 L 657.296875 406.648438 C 658.992188 406.519531 660.269531 405.636719 661.128906 404 C 662.09375 402.191406 662.222656 400.476562 661.523438 398.859375 C 660.320312 396.308594 657.824219 395.855469 654.035156 397.496094 C 657.277344 396.660156 659.265625 397.085938 660 398.761719 C 660.15625 399.0625 660.269531 399.410156 660.332031 399.808594 C 660.382812 399.894531 660.339844 400.441406 660.195312 401.457031 L 660.378906 402.390625 C 660.398438 402.519531 660.042969 402.730469 659.316406 403.023438 L 658.359375 403.957031 C 658.0625 404.144531 657.710938 404.246094 657.3125 404.261719 C 654.550781 403.367188 652.09375 401.75 649.933594 399.40625 C 647.488281 396.425781 646.003906 393.738281 645.484375 391.347656 C 644.535156 387.945312 644.148438 383.902344 644.3125 379.21875 C 644.386719 375.898438 644.976562 371.339844 646.085938 365.542969 C 646.996094 360.585938 648.167969 355.984375 649.59375 351.746094 C 652.632812 343.3125 656.167969 336.605469 660.207031 331.621094 C 657.34375 334.355469 654.828125 337.324219 652.667969 340.523438 C 651.058594 342.847656 649.25 346.296875 647.234375 350.867188 C 645.535156 354.761719 643.898438 359.75 642.324219 365.832031 C 641.257812 369.953125 640.582031 374.121094 640.296875 378.335938 C 640.003906 385.964844 641.160156 391.988281 643.757812 396.40625 C 645.261719 399 647.335938 401.308594 649.984375 403.332031 C 652.78125 405.402344 655.183594 406.507812 657.179688 406.648438 " fill-opacity="1" fill-rule="nonzero"/><path fill="#f5f0eb" d="M 260.390625 11.253906 L 260.394531 11.136719 C 260.515625 9.441406 261.394531 8.160156 263.027344 7.296875 C 264.835938 6.328125 266.546875 6.1875 268.167969 6.882812 C 270.722656 8.078125 271.183594 10.574219 269.558594 14.367188 C 270.378906 11.121094 269.949219 9.132812 268.269531 8.40625 C 267.96875 8.25 267.621094 8.140625 267.21875 8.078125 C 267.136719 8.027344 266.589844 8.074219 265.578125 8.222656 L 264.640625 8.039062 C 264.511719 8.019531 264.300781 8.375 264.007812 9.105469 L 263.078125 10.066406 C 262.894531 10.363281 262.796875 10.714844 262.78125 11.113281 C 263.683594 13.871094 265.308594 16.324219 267.660156 18.472656 C 270.652344 20.910156 273.34375 22.386719 275.734375 22.898438 C 279.140625 23.832031 283.183594 24.207031 287.867188 24.027344 C 291.1875 23.941406 295.746094 23.332031 301.539062 22.207031 C 306.492188 21.277344 311.089844 20.089844 315.324219 18.648438 C 323.746094 15.582031 330.441406 12.019531 335.410156 7.960938 C 332.683594 10.835938 329.726562 13.363281 326.535156 15.535156 C 324.214844 17.152344 320.773438 18.972656 316.210938 21.003906 C 312.324219 22.71875 307.339844 24.371094 301.265625 25.964844 C 297.144531 27.046875 292.980469 27.738281 288.765625 28.035156 C 281.136719 28.355469 275.109375 27.222656 270.683594 24.640625 C 268.085938 23.148438 265.769531 21.082031 263.734375 18.441406 C 261.65625 15.648438 260.542969 13.25 260.390625 11.253906 " fill-opacity="1" fill-rule="nonzero"/><g clip-path="url(#73632a0fc3)"><path fill="#f5f0eb" d="M 2.734375 450.953125 L 2.714844 450.917969 C 2.285156 450.394531 1.988281 450.066406 1.824219 449.9375 C 1.800781 449.917969 1.730469 449.867188 1.605469 449.789062 C 1.25 449.59375 0.984375 449.4375 0.808594 449.320312 C 0.640625 449.214844 0.492188 449.109375 0.359375 449.007812 C 0.664062 449.3125 1.023438 449.707031 1.449219 450.191406 C 1.453125 450.203125 1.507812 450.257812 1.617188 450.347656 C 1.785156 450.484375 2.050781 450.652344 2.414062 450.855469 C 2.449219 450.875 2.5 450.898438 2.574219 450.921875 C 2.609375 450.929688 2.652344 450.933594 2.699219 450.929688 C 2.707031 450.933594 2.722656 450.941406 2.734375 450.953125 " fill-opacity="1" fill-rule="nonzero"/></g><g clip-path="url(#a8bd76bf0e)"><path fill="#f5f0eb" d="M 218.390625 665.851562 L 218.421875 665.871094 C 218.949219 666.300781 219.277344 666.59375 219.410156 666.757812 C 219.429688 666.78125 219.476562 666.851562 219.554688 666.976562 C 219.753906 667.332031 219.910156 667.59375 220.027344 667.773438 C 220.136719 667.941406 220.242188 668.089844 220.34375 668.21875 C 220.035156 667.917969 219.640625 667.554688 219.152344 667.136719 C 219.140625 667.132812 219.089844 667.074219 219 666.964844 C 218.859375 666.800781 218.691406 666.535156 218.488281 666.171875 C 218.46875 666.136719 218.445312 666.085938 218.421875 666.011719 C 218.414062 665.976562 218.410156 665.933594 218.414062 665.886719 C 218.410156 665.878906 218.402344 665.863281 218.390625 665.851562 " fill-opacity="1" fill-rule="nonzero"/></g></g></g></g></svg>