<svg xmlns="http://www.w3.org/2000/svg" xmlns:xlink="http://www.w3.org/1999/xlink" width="1080" zoomAndPan="magnify" viewBox="0 0 810 809.999993" height="1080" preserveAspectRatio="xMidYMid meet" version="1.0"><defs><clipPath id="8daa707032"><path d="M 47 771 L 83 771 L 83 795.644531 L 47 795.644531 Z M 47 771 " clip-rule="nonzero"/></clipPath><clipPath id="8dfe2a8d7f"><path d="M 680 345 L 682.957031 345 L 682.957031 348 L 680 348 Z M 680 345 " clip-rule="nonzero"/></clipPath><clipPath id="ef1f87c237"><path d="M 462 128.144531 L 465 128.144531 L 465 131 L 462 131 Z M 462 128.144531 " clip-rule="nonzero"/></clipPath></defs><path fill="#f5f0eb" d="M 21.546875 790.832031 C 22.597656 790.84375 24.15625 789.96875 26.21875 788.203125 L 26.199219 788.222656 C 28.101562 786.484375 30.433594 783.824219 33.199219 780.242188 C 33.230469 780.199219 33.269531 780.160156 33.308594 780.125 L 45.636719 769.355469 C 45.675781 769.320312 45.722656 769.289062 45.769531 769.261719 C 48.011719 767.972656 49.8125 768 51.171875 769.34375 L 49.871094 770.324219 C 48.15625 767.191406 47.863281 764.558594 48.996094 762.425781 L 49.011719 762.398438 C 49.71875 761.191406 51.761719 759.230469 55.148438 756.515625 L 55.117188 756.539062 C 55.136719 756.523438 55.15625 756.507812 55.175781 756.492188 C 55.75 756.023438 56.265625 756.050781 56.726562 756.570312 C 56.800781 756.652344 56.867188 756.75 56.921875 756.855469 C 57.132812 757.261719 57.25 757.980469 57.277344 759.007812 C 57.289062 759.464844 56.929688 759.839844 56.472656 759.851562 C 56.019531 759.863281 55.640625 759.507812 55.628906 759.050781 C 55.609375 758.273438 55.554688 757.792969 55.460938 757.613281 C 55.46875 757.625 55.480469 757.644531 55.496094 757.664062 C 55.734375 757.929688 55.972656 757.964844 56.214844 757.769531 L 56.210938 757.769531 C 56.210938 757.769531 56.210938 757.769531 56.210938 757.773438 L 56.179688 757.796875 C 52.953125 760.386719 51.035156 762.199219 50.433594 763.226562 L 50.449219 763.199219 C 49.59375 764.808594 49.882812 766.917969 51.316406 769.53125 C 51.511719 769.890625 51.414062 770.339844 51.089844 770.585938 C 50.761719 770.832031 50.304688 770.800781 50.015625 770.515625 C 49.25 769.757812 48.105469 769.816406 46.589844 770.691406 L 46.71875 770.597656 L 34.390625 781.367188 L 34.5 781.25 C 31.679688 784.902344 29.28125 787.632812 27.308594 789.4375 L 27.289062 789.457031 C 24.910156 791.488281 22.988281 792.496094 21.527344 792.480469 C 21.070312 792.472656 20.707031 792.101562 20.714844 791.644531 C 20.71875 791.191406 21.089844 790.828125 21.546875 790.832031 Z M 21.546875 790.832031 " fill-opacity="0.894" fill-rule="nonzero"/><path fill="#f5f0eb" d="M 21.851562 791.136719 C 21.832031 790.085938 22.703125 788.523438 24.460938 786.453125 L 24.445312 786.476562 C 26.175781 784.566406 28.828125 782.222656 32.398438 779.445312 C 32.441406 779.414062 32.480469 779.375 32.515625 779.335938 L 43.242188 766.96875 C 43.277344 766.929688 43.308594 766.886719 43.335938 766.839844 C 44.617188 764.589844 44.582031 762.789062 43.238281 761.433594 L 42.257812 762.738281 C 45.398438 764.445312 48.03125 764.726562 50.160156 763.585938 L 50.1875 763.570312 C 51.390625 762.859375 53.347656 760.808594 56.050781 757.414062 L 56.023438 757.445312 C 56.042969 757.425781 56.058594 757.40625 56.074219 757.386719 C 56.539062 756.808594 56.511719 756.292969 55.988281 755.832031 C 55.90625 755.761719 55.808594 755.695312 55.703125 755.640625 C 55.296875 755.433594 54.578125 755.316406 53.546875 755.292969 C 53.09375 755.285156 52.714844 755.644531 52.707031 756.097656 C 52.695312 756.554688 53.058594 756.929688 53.511719 756.941406 C 54.289062 756.957031 54.769531 757.011719 54.949219 757.105469 C 54.9375 757.097656 54.921875 757.085938 54.898438 757.066406 C 54.632812 756.832031 54.597656 756.59375 54.792969 756.351562 L 54.789062 756.351562 C 54.789062 756.355469 54.789062 756.355469 54.789062 756.355469 L 54.761719 756.386719 C 52.183594 759.625 50.382812 761.546875 49.351562 762.152344 L 49.382812 762.132812 C 47.777344 762.996094 45.664062 762.714844 43.046875 761.292969 C 42.6875 761.097656 42.238281 761.195312 41.992188 761.519531 C 41.75 761.847656 41.78125 762.304688 42.066406 762.59375 C 42.828125 763.359375 42.773438 764.5 41.90625 766.023438 L 42 765.890625 L 31.273438 778.257812 L 31.386719 778.148438 C 27.742188 780.984375 25.023438 783.390625 23.226562 785.367188 L 23.207031 785.386719 C 21.183594 787.773438 20.179688 789.699219 20.203125 791.160156 C 20.210938 791.617188 20.585938 791.980469 21.039062 791.972656 C 21.496094 791.964844 21.859375 791.589844 21.851562 791.136719 Z M 21.851562 791.136719 " fill-opacity="0.894" fill-rule="nonzero"/><path fill="#f5f0eb" d="M 27.066406 786.464844 C 26.242188 786.714844 25.488281 786.652344 24.808594 786.289062 L 24.75 786.253906 C 23.277344 785.296875 22.398438 784.652344 22.113281 784.320312 C 21.84375 784 21.773438 783.671875 21.90625 783.335938 L 21.957031 784.050781 C 20.800781 782.039062 20.332031 780.183594 20.546875 778.484375 L 20.5625 778.414062 C 21.105469 775.910156 22.035156 773.644531 23.351562 771.617188 L 23.34375 771.632812 C 25.15625 768.722656 26.933594 767.328125 28.675781 767.449219 L 28.53125 767.453125 C 29.097656 767.394531 29.410156 767.640625 29.46875 768.195312 C 29.5 768.5 29.382812 768.765625 29.109375 768.984375 C 29.101562 768.992188 29.09375 768.996094 29.085938 769.003906 C 29.023438 769.054688 28.957031 769.09375 28.882812 769.121094 C 28.4375 769.296875 28.152344 769.433594 28.027344 769.523438 L 28.035156 769.515625 C 27.816406 769.675781 27.679688 769.78125 27.628906 769.832031 C 27.640625 769.824219 27.652344 769.808594 27.667969 769.789062 L 27.625 769.84375 C 27.125 770.40625 26.683594 771.070312 26.300781 771.828125 L 26.292969 771.84375 C 25.855469 772.679688 25.152344 774.605469 24.183594 777.621094 L 24.183594 777.625 C 24.085938 777.925781 24.085938 778.394531 24.191406 779.027344 L 24.175781 778.953125 C 24.589844 780.582031 25.34375 781.972656 26.429688 783.125 L 26.386719 783.085938 C 26.796875 783.460938 27.320312 783.832031 27.957031 784.191406 C 27.988281 784.210938 28.019531 784.230469 28.050781 784.253906 C 28.042969 784.25 28.039062 784.246094 28.035156 784.242188 L 28.035156 784.246094 C 28.28125 784.40625 29.371094 784.851562 31.304688 785.578125 L 31.382812 785.613281 L 31.363281 785.601562 C 31.878906 785.84375 32.351562 786.152344 32.777344 786.53125 C 33.117188 786.832031 33.148438 787.351562 32.84375 787.691406 C 32.542969 788.03125 32.023438 788.0625 31.683594 787.761719 C 31.378906 787.492188 31.039062 787.269531 30.667969 787.097656 L 30.648438 787.085938 L 30.726562 787.121094 C 28.679688 786.347656 27.480469 785.851562 27.132812 785.621094 C 27.101562 785.601562 27.074219 785.582031 27.046875 785.5625 L 27.140625 785.625 C 26.394531 785.199219 25.773438 784.757812 25.269531 784.296875 L 25.230469 784.253906 C 23.949219 782.894531 23.066406 781.265625 22.578125 779.363281 L 22.5625 779.289062 C 22.417969 778.394531 22.4375 777.667969 22.617188 777.113281 L 22.617188 777.117188 C 23.613281 774.011719 24.351562 771.996094 24.835938 771.074219 L 24.828125 771.089844 C 25.277344 770.203125 25.796875 769.421875 26.390625 768.75 L 26.347656 768.804688 C 26.382812 768.757812 26.421875 768.714844 26.46875 768.667969 C 26.578125 768.558594 26.777344 768.398438 27.0625 768.1875 L 27.070312 768.183594 C 27.304688 768.015625 27.707031 767.816406 28.273438 767.59375 L 28.070312 767.707031 C 28.070312 767.707031 28.070312 767.707031 28.074219 767.707031 C 27.882812 767.863281 27.800781 768.082031 27.832031 768.367188 C 27.886719 768.902344 28.179688 769.144531 28.703125 769.089844 C 28.65625 769.09375 28.609375 769.097656 28.5625 769.09375 C 27.480469 769.019531 26.207031 770.15625 24.738281 772.503906 L 24.730469 772.515625 C 23.527344 774.371094 22.671875 776.457031 22.167969 778.765625 L 22.183594 778.695312 C 22.011719 780.027344 22.414062 781.539062 23.386719 783.230469 C 23.511719 783.449219 23.53125 783.710938 23.4375 783.945312 C 23.546875 783.667969 23.523438 783.433594 23.363281 783.246094 C 23.546875 783.460938 24.308594 784.003906 25.648438 784.871094 L 25.589844 784.835938 C 25.871094 784.988281 26.207031 785.003906 26.59375 784.886719 C 27.03125 784.757812 27.488281 785.003906 27.621094 785.441406 C 27.75 785.875 27.503906 786.335938 27.066406 786.464844 Z M 27.066406 786.464844 " fill-opacity="0.894" fill-rule="nonzero"/><path fill="#f5f0eb" d="M 26.199219 785.597656 C 25.953125 786.425781 26.015625 787.175781 26.382812 787.855469 L 26.417969 787.914062 C 27.378906 789.382812 28.027344 790.261719 28.363281 790.546875 L 28.363281 790.542969 C 28.679688 790.816406 29.007812 790.882812 29.34375 790.75 L 28.628906 790.699219 C 30.644531 791.847656 32.503906 792.3125 34.199219 792.089844 L 34.269531 792.078125 C 36.773438 791.523438 39.039062 790.585938 41.058594 789.261719 L 41.046875 789.269531 C 43.945312 787.445312 45.335938 785.664062 45.207031 783.925781 L 45.207031 784.066406 C 45.261719 783.5 45.015625 783.191406 44.460938 783.132812 C 44.152344 783.101562 43.890625 783.222656 43.671875 783.492188 L 43.671875 783.496094 C 43.664062 783.503906 43.660156 783.511719 43.652344 783.519531 C 43.601562 783.582031 43.5625 783.648438 43.535156 783.722656 C 43.359375 784.167969 43.226562 784.453125 43.136719 784.578125 L 43.144531 784.570312 C 42.984375 784.792969 42.878906 784.925781 42.828125 784.976562 C 42.839844 784.96875 42.855469 784.953125 42.875 784.9375 L 42.820312 784.984375 C 42.257812 785.488281 41.597656 785.929688 40.835938 786.3125 L 40.824219 786.320312 C 39.988281 786.765625 38.066406 787.472656 35.054688 788.449219 L 35.046875 788.453125 C 34.746094 788.550781 34.277344 788.550781 33.648438 788.449219 L 33.71875 788.464844 C 32.089844 788.054688 30.699219 787.308594 29.539062 786.226562 L 29.582031 786.269531 C 29.203125 785.859375 28.832031 785.339844 28.46875 784.703125 C 28.449219 784.671875 28.429688 784.640625 28.40625 784.609375 C 28.410156 784.613281 28.414062 784.621094 28.417969 784.625 L 28.414062 784.625 C 28.253906 784.378906 27.804688 783.289062 27.070312 781.359375 L 27.035156 781.28125 L 27.046875 781.300781 C 26.800781 780.785156 26.492188 780.3125 26.113281 779.890625 C 25.808594 779.550781 25.289062 779.523438 24.949219 779.824219 C 24.609375 780.128906 24.582031 780.648438 24.886719 780.988281 C 25.15625 781.292969 25.378906 781.628906 25.554688 782 L 25.5625 782.023438 L 25.566406 782.023438 L 25.53125 781.945312 C 26.308594 783.988281 26.8125 785.183594 27.039062 785.53125 C 27.0625 785.558594 27.082031 785.589844 27.101562 785.613281 L 27.039062 785.519531 C 27.464844 786.265625 27.910156 786.886719 28.375 787.386719 L 28.417969 787.429688 C 29.78125 788.703125 31.414062 789.582031 33.316406 790.0625 L 33.386719 790.078125 C 34.285156 790.21875 35.011719 790.199219 35.566406 790.015625 L 35.5625 790.015625 C 38.664062 789.011719 40.675781 788.261719 41.597656 787.773438 L 41.582031 787.78125 C 42.46875 787.332031 43.246094 786.808594 43.914062 786.210938 L 43.859375 786.257812 C 43.90625 786.222656 43.953125 786.183594 44 786.136719 C 44.105469 786.027344 44.265625 785.828125 44.476562 785.539062 L 44.480469 785.53125 C 44.648438 785.296875 44.84375 784.894531 45.066406 784.328125 L 44.953125 784.53125 C 44.953125 784.53125 44.953125 784.527344 44.953125 784.527344 C 44.796875 784.71875 44.578125 784.800781 44.292969 784.773438 C 43.757812 784.71875 43.515625 784.425781 43.566406 783.902344 C 43.5625 783.949219 43.5625 783.996094 43.566406 784.042969 C 43.644531 785.125 42.511719 786.402344 40.167969 787.878906 L 40.15625 787.886719 C 38.304688 789.097656 36.222656 789.957031 33.914062 790.46875 L 33.984375 790.457031 C 32.65625 790.632812 31.140625 790.234375 29.445312 789.269531 C 29.226562 789.144531 28.964844 789.125 28.730469 789.222656 C 29.007812 789.109375 29.242188 789.132812 29.429688 789.289062 C 29.214844 789.109375 28.671875 788.347656 27.796875 787.015625 L 27.832031 787.074219 C 27.679688 786.792969 27.660156 786.457031 27.777344 786.066406 C 27.90625 785.628906 27.65625 785.171875 27.222656 785.042969 C 26.785156 784.914062 26.328125 785.164062 26.199219 785.597656 Z M 26.199219 785.597656 " fill-opacity="0.894" fill-rule="nonzero"/><g clip-path="url(#8daa707032)"><path fill="#f5f0eb" d="M 54.964844 775.246094 C 54.960938 775.242188 54.957031 775.238281 54.953125 775.238281 L 54.957031 775.238281 C 55.046875 775.296875 55.140625 775.296875 55.234375 775.238281 C 55.207031 775.253906 55.171875 775.292969 55.125 775.347656 L 55.125 775.351562 C 55.054688 775.433594 54.984375 775.539062 54.910156 775.671875 L 54.984375 775.507812 C 54.890625 775.796875 55.023438 776.132812 55.386719 776.511719 L 55.324219 776.453125 C 55.90625 776.953125 56.695312 776.902344 57.683594 776.296875 L 57.425781 776.535156 C 57.992188 775.753906 57.679688 774.890625 56.488281 773.9375 L 56.628906 774.03125 C 55.519531 773.445312 54.144531 773.511719 52.503906 774.230469 L 52.589844 774.1875 C 49.722656 775.832031 48.535156 778.230469 49.023438 781.386719 L 49.03125 781.425781 C 49.472656 785.4375 52.824219 789.03125 59.089844 792.214844 L 59.0625 792.199219 C 61.34375 793.257812 64.488281 793.730469 68.496094 793.613281 C 71.871094 793.511719 74.335938 792.824219 75.890625 791.554688 L 75.929688 791.523438 C 78.09375 789.949219 79.546875 788.160156 80.289062 786.160156 L 80.257812 786.253906 C 80.996094 783.265625 80.972656 780.613281 80.1875 778.292969 L 80.207031 778.339844 C 79.410156 776.34375 78.546875 775.160156 77.625 774.792969 L 77.683594 774.8125 C 76.03125 774.273438 74.554688 774.394531 73.257812 775.175781 L 73.285156 775.15625 C 71.125 776.570312 70.035156 778.40625 70.015625 780.667969 L 70.015625 780.660156 C 70.015625 782.339844 70.984375 783.765625 72.917969 784.933594 L 72.925781 784.941406 C 74.234375 785.75 75.058594 785.878906 75.398438 785.332031 C 75.496094 785.171875 75.578125 784.964844 75.644531 784.703125 L 75.632812 784.753906 C 75.816406 783.796875 75.675781 783.171875 75.207031 782.886719 L 75.226562 782.898438 C 74.71875 782.605469 74.222656 782.761719 73.738281 783.371094 C 73.433594 783.757812 72.871094 783.820312 72.488281 783.511719 C 72.101562 783.207031 72.039062 782.644531 72.34375 782.261719 C 73.464844 780.851562 74.722656 780.546875 76.117188 781.351562 L 76.136719 781.363281 C 77.308594 782.082031 77.726562 783.324219 77.382812 785.09375 L 77.375 785.140625 C 77.261719 785.578125 77.109375 785.957031 76.914062 786.269531 C 75.949219 787.832031 74.304688 787.890625 71.988281 786.457031 L 71.996094 786.460938 C 69.488281 784.945312 68.234375 783.011719 68.234375 780.65625 L 68.234375 780.648438 C 68.257812 777.757812 69.617188 775.429688 72.308594 773.664062 L 72.339844 773.644531 C 74.101562 772.585938 76.066406 772.410156 78.234375 773.117188 L 78.289062 773.136719 C 79.683594 773.695312 80.875 775.207031 81.863281 777.675781 L 81.878906 777.722656 C 82.773438 780.371094 82.8125 783.359375 81.988281 786.683594 L 81.960938 786.777344 C 81.09375 789.117188 79.433594 791.179688 76.980469 792.964844 L 77.019531 792.9375 C 75.148438 794.460938 72.328125 795.28125 68.550781 795.398438 L 68.546875 795.398438 C 64.261719 795.519531 60.847656 794.996094 58.3125 793.816406 L 58.285156 793.804688 C 51.445312 790.332031 47.769531 786.269531 47.257812 781.621094 L 47.261719 781.660156 C 46.644531 777.699219 48.125 774.691406 51.703125 772.640625 L 51.789062 772.597656 C 53.953125 771.648438 55.84375 771.601562 57.457031 772.453125 C 57.507812 772.480469 57.554688 772.511719 57.597656 772.542969 C 59.675781 774.203125 60.101562 775.878906 58.875 777.582031 C 58.804688 777.675781 58.714844 777.757812 58.617188 777.820312 C 56.886719 778.878906 55.402344 778.871094 54.160156 777.804688 L 54.09375 777.742188 C 53.246094 776.851562 52.976562 775.921875 53.285156 774.960938 C 53.304688 774.90625 53.328125 774.851562 53.355469 774.796875 C 53.480469 774.578125 53.609375 774.386719 53.738281 774.226562 C 53.910156 774.015625 54.089844 773.851562 54.28125 773.730469 C 54.832031 773.382812 55.378906 773.386719 55.921875 773.738281 C 55.980469 773.777344 56.035156 773.816406 56.089844 773.859375 C 56.472656 774.171875 56.53125 774.734375 56.21875 775.113281 C 55.910156 775.496094 55.347656 775.554688 54.964844 775.246094 Z M 54.964844 775.246094 " fill-opacity="0.894" fill-rule="nonzero"/></g><path fill="#f5f0eb" d="M 37.320312 757.664062 C 37.324219 757.667969 37.328125 757.671875 37.328125 757.671875 C 37.269531 757.578125 37.269531 757.488281 37.324219 757.394531 C 37.308594 757.421875 37.273438 757.457031 37.214844 757.503906 C 37.132812 757.570312 37.023438 757.644531 36.894531 757.71875 L 37.058594 757.644531 C 36.769531 757.738281 36.433594 757.605469 36.050781 757.246094 L 36.113281 757.308594 C 35.605469 756.726562 35.65625 755.9375 36.257812 754.945312 L 36.019531 755.203125 C 36.800781 754.636719 37.667969 754.949219 38.621094 756.136719 L 38.527344 755.996094 C 39.117188 757.101562 39.054688 758.476562 38.34375 760.121094 L 38.386719 760.035156 C 36.753906 762.90625 34.355469 764.105469 31.199219 763.625 L 31.160156 763.617188 C 27.148438 763.191406 23.539062 759.851562 20.335938 753.59375 L 20.351562 753.625 C 19.285156 751.34375 18.800781 748.203125 18.902344 744.195312 C 18.996094 740.824219 19.671875 738.355469 20.9375 736.792969 L 20.96875 736.753906 C 22.535156 734.585938 24.320312 733.125 26.316406 732.378906 L 26.222656 732.40625 C 29.207031 731.660156 31.859375 731.671875 34.183594 732.449219 L 34.140625 732.433594 C 36.136719 733.222656 37.320312 734.078125 37.695312 735 L 37.675781 734.945312 C 38.214844 736.59375 38.101562 738.070312 37.328125 739.371094 L 37.34375 739.339844 C 35.9375 741.503906 34.105469 742.601562 31.847656 742.628906 L 31.855469 742.628906 C 30.171875 742.636719 28.742188 741.675781 27.566406 739.742188 L 27.5625 739.734375 C 26.746094 738.429688 26.613281 737.605469 27.160156 737.265625 C 27.320312 737.164062 27.53125 737.082031 27.789062 737.015625 L 27.738281 737.027344 C 28.695312 736.839844 29.320312 736.980469 29.609375 737.449219 L 29.597656 737.429688 C 29.890625 737.933594 29.734375 738.429688 29.128906 738.917969 C 28.746094 739.222656 28.683594 739.785156 28.992188 740.167969 C 29.296875 740.554688 29.859375 740.617188 30.246094 740.308594 C 31.648438 739.183594 31.945312 737.925781 31.140625 736.53125 L 31.128906 736.511719 C 30.40625 735.34375 29.160156 734.929688 27.394531 735.277344 L 27.34375 735.289062 C 26.90625 735.402344 26.53125 735.554688 26.21875 735.753906 C 24.660156 736.722656 24.605469 738.367188 26.050781 740.679688 L 26.042969 740.671875 C 27.570312 743.175781 29.507812 744.421875 31.859375 744.414062 L 31.867188 744.414062 C 34.761719 744.378906 37.085938 743.011719 38.839844 740.3125 L 38.859375 740.28125 C 39.910156 738.515625 40.082031 736.550781 39.367188 734.386719 L 39.347656 734.332031 C 38.785156 732.9375 37.265625 731.75 34.792969 730.773438 L 34.75 730.757812 C 32.097656 729.871094 29.109375 729.84375 25.789062 730.679688 L 25.691406 730.707031 C 23.359375 731.582031 21.300781 733.25 19.523438 735.710938 L 19.550781 735.671875 C 18.03125 737.546875 17.222656 740.371094 17.121094 744.148438 C 17.011719 748.4375 17.550781 751.847656 18.734375 754.378906 L 18.75 754.410156 C 22.246094 761.234375 26.320312 764.898438 30.96875 765.390625 L 30.929688 765.386719 C 34.898438 765.988281 37.898438 764.5 39.9375 760.917969 L 39.980469 760.832031 C 40.917969 758.660156 40.960938 756.769531 40.105469 755.160156 C 40.078125 755.109375 40.046875 755.0625 40.011719 755.019531 C 38.347656 752.945312 36.667969 752.527344 34.96875 753.761719 C 34.875 753.832031 34.792969 753.917969 34.734375 754.019531 C 33.679688 755.753906 33.691406 757.238281 34.765625 758.476562 L 34.824219 758.539062 C 35.722656 759.386719 36.648438 759.65625 37.609375 759.339844 C 37.667969 759.324219 37.722656 759.296875 37.773438 759.269531 C 37.992188 759.144531 38.183594 759.015625 38.34375 758.882812 C 38.554688 758.714844 38.71875 758.53125 38.839844 758.339844 C 39.183594 757.789062 39.175781 757.242188 38.824219 756.699219 C 38.785156 756.640625 38.746094 756.585938 38.703125 756.53125 C 38.390625 756.152344 37.828125 756.09375 37.445312 756.40625 C 37.066406 756.71875 37.007812 757.28125 37.320312 757.664062 Z M 37.320312 757.664062 " fill-opacity="0.894" fill-rule="nonzero"/><path fill="#f5f0eb" d="M 82.347656 783.921875 C 85.226562 783.613281 87.203125 783.59375 88.269531 783.863281 L 88.21875 783.851562 C 90.203125 784.226562 92.023438 784.902344 93.679688 785.871094 C 97.132812 787.898438 98.351562 789.773438 97.339844 791.492188 C 97.308594 791.546875 97.273438 791.601562 97.238281 791.652344 C 97.210938 791.691406 97.183594 791.726562 97.152344 791.761719 C 96.304688 792.660156 94.84375 793.183594 92.777344 793.332031 L 92.757812 793.335938 C 90.460938 793.449219 89.070312 792.957031 88.585938 791.859375 C 88.539062 791.753906 88.515625 791.640625 88.511719 791.523438 C 88.507812 791.382812 88.519531 791.25 88.542969 791.117188 L 88.542969 791.121094 C 88.625 790.667969 88.855469 790.316406 89.234375 790.058594 C 89.597656 789.808594 90.082031 789.679688 90.683594 789.664062 C 90.863281 789.660156 91.058594 789.664062 91.265625 789.679688 L 91.257812 789.679688 C 92.226562 789.746094 93.640625 790.308594 95.503906 791.375 C 95.929688 791.617188 96.078125 792.164062 95.835938 792.589844 C 95.589844 793.019531 95.046875 793.167969 94.617188 792.921875 C 92.992188 791.992188 91.832031 791.503906 91.140625 791.460938 L 91.132812 791.457031 C 90.984375 791.449219 90.851562 791.445312 90.730469 791.445312 C 90.476562 791.453125 90.3125 791.480469 90.242188 791.53125 C 90.269531 791.507812 90.289062 791.480469 90.296875 791.445312 C 90.292969 791.453125 90.292969 791.464844 90.292969 791.480469 L 90.21875 791.140625 C 90.371094 791.488281 91.1875 791.625 92.667969 791.550781 L 92.648438 791.554688 C 94.253906 791.4375 95.324219 791.097656 95.855469 790.535156 L 95.769531 790.644531 C 95.78125 790.625 95.792969 790.605469 95.804688 790.585938 C 96.210938 789.894531 95.203125 788.835938 92.777344 787.410156 C 91.296875 786.542969 89.667969 785.941406 87.882812 785.601562 L 87.835938 785.59375 C 86.972656 785.375 85.207031 785.410156 82.535156 785.695312 C 82.046875 785.746094 81.605469 785.390625 81.554688 784.902344 C 81.5 784.410156 81.855469 783.972656 82.347656 783.921875 Z M 82.347656 783.921875 " fill-opacity="0.894" fill-rule="nonzero"/><path fill="#f5f0eb" d="M 28.546875 730.3125 C 28.84375 727.429688 28.859375 725.457031 28.585938 724.390625 L 28.597656 724.441406 C 28.214844 722.457031 27.535156 720.640625 26.558594 718.984375 C 24.519531 715.539062 22.640625 714.328125 20.925781 715.34375 C 20.871094 715.375 20.816406 715.410156 20.761719 715.449219 C 20.726562 715.472656 20.691406 715.503906 20.65625 715.535156 C 19.761719 716.386719 19.242188 717.84375 19.101562 719.914062 L 19.097656 719.933594 C 18.992188 722.230469 19.488281 723.617188 20.585938 724.097656 C 20.691406 724.144531 20.808594 724.171875 20.925781 724.171875 C 21.0625 724.175781 21.199219 724.164062 21.328125 724.140625 C 21.777344 724.054688 22.128906 723.824219 22.386719 723.445312 C 22.632812 723.082031 22.761719 722.597656 22.777344 721.992188 C 22.78125 721.8125 22.773438 721.617188 22.757812 721.410156 L 22.757812 721.417969 C 22.691406 720.453125 22.121094 719.039062 21.050781 717.183594 C 20.804688 716.753906 20.257812 716.609375 19.832031 716.855469 C 19.40625 717.101562 19.257812 717.644531 19.503906 718.070312 C 20.4375 719.695312 20.929688 720.851562 20.980469 721.542969 L 20.980469 721.550781 C 20.992188 721.699219 20.996094 721.832031 20.992188 721.957031 C 20.988281 722.207031 20.960938 722.371094 20.910156 722.445312 C 20.933594 722.414062 20.960938 722.394531 20.996094 722.386719 C 20.988281 722.390625 20.976562 722.390625 20.960938 722.390625 L 21.300781 722.464844 C 20.953125 722.3125 20.8125 721.496094 20.878906 720.015625 L 20.878906 720.035156 C 20.988281 718.429688 21.324219 717.359375 21.886719 716.828125 L 21.78125 716.914062 C 21.796875 716.898438 21.816406 716.886719 21.835938 716.878906 C 22.527344 716.46875 23.589844 717.472656 25.023438 719.890625 L 25.019531 719.890625 C 25.894531 721.367188 26.5 723 26.847656 724.78125 L 26.859375 724.828125 C 27.078125 725.691406 27.050781 727.457031 26.773438 730.128906 C 26.722656 730.617188 27.082031 731.058594 27.570312 731.105469 C 28.058594 731.15625 28.5 730.800781 28.546875 730.3125 Z M 28.546875 730.3125 " fill-opacity="0.894" fill-rule="nonzero"/><path fill="#f5f0eb" d="M 96.53125 792.101562 C 96.628906 792.011719 96.742188 791.933594 96.867188 791.871094 L 96.863281 791.871094 C 97.136719 791.726562 97.464844 791.644531 97.84375 791.625 L 97.882812 791.625 C 98.71875 791.621094 99.328125 791.613281 99.714844 791.59375 L 99.71875 791.59375 L 102.519531 791.472656 L 102.507812 791.472656 C 104.667969 791.351562 105.851562 791.289062 106.058594 791.289062 C 106.074219 791.289062 106.085938 791.289062 106.097656 791.289062 L 106.042969 791.289062 C 107.097656 791.253906 108.035156 791.234375 108.851562 791.234375 L 108.855469 791.234375 C 110.6875 791.238281 112.652344 791.339844 114.753906 791.539062 L 114.667969 791.535156 L 114.730469 791.535156 C 115.605469 791.597656 117.136719 791.832031 119.3125 792.234375 L 119.128906 792.222656 C 119.164062 792.21875 119.1875 792.21875 119.203125 792.214844 C 119.09375 792.230469 118.980469 792.292969 118.867188 792.402344 L 118.847656 792.417969 L 119.113281 792.152344 C 119.460938 791.800781 120.023438 791.796875 120.375 792.144531 C 120.726562 792.492188 120.726562 793.054688 120.382812 793.40625 L 120.097656 793.691406 C 119.933594 793.847656 119.722656 793.945312 119.453125 793.980469 L 119.457031 793.980469 C 119.371094 793.996094 119.277344 794 119.171875 794.003906 C 119.109375 794.003906 119.046875 794 118.988281 793.988281 C 116.875 793.597656 115.414062 793.371094 114.605469 793.316406 L 114.667969 793.316406 L 114.585938 793.3125 C 112.539062 793.121094 110.628906 793.019531 108.851562 793.015625 L 108.855469 793.015625 C 108.058594 793.019531 107.140625 793.035156 106.105469 793.070312 L 106.050781 793.070312 C 106.054688 793.074219 106.058594 793.074219 106.058594 793.074219 C 105.886719 793.074219 104.734375 793.132812 102.609375 793.253906 L 102.597656 793.253906 L 99.796875 793.378906 L 99.796875 793.375 C 99.386719 793.394531 98.75 793.40625 97.886719 793.410156 L 97.929688 793.40625 C 97.8125 793.414062 97.738281 793.425781 97.699219 793.445312 C 97.703125 793.445312 97.710938 793.4375 97.71875 793.429688 C 97.351562 793.757812 96.789062 793.726562 96.460938 793.359375 C 96.132812 792.992188 96.164062 792.429688 96.53125 792.101562 Z M 96.53125 792.101562 " fill-opacity="0.894" fill-rule="nonzero"/><path fill="#f5f0eb" d="M 20.316406 716.15625 C 20.40625 716.054688 20.484375 715.945312 20.546875 715.820312 C 20.691406 715.546875 20.773438 715.21875 20.789062 714.839844 L 20.789062 714.800781 C 20.789062 713.964844 20.796875 713.355469 20.8125 712.96875 L 20.925781 710.164062 L 20.925781 710.175781 C 21.039062 708.015625 21.097656 706.832031 21.097656 706.625 C 21.097656 706.609375 21.097656 706.597656 21.097656 706.585938 L 21.097656 706.640625 C 21.128906 705.585938 21.144531 704.648438 21.140625 703.832031 L 21.140625 703.828125 C 21.132812 701.996094 21.023438 700.03125 20.816406 697.933594 L 20.824219 698.015625 L 20.820312 697.953125 C 20.753906 697.078125 20.515625 695.550781 20.105469 693.375 L 20.117188 693.558594 C 20.121094 693.523438 20.121094 693.5 20.125 693.484375 C 20.109375 693.59375 20.046875 693.707031 19.941406 693.820312 L 19.921875 693.839844 L 20.1875 693.574219 C 20.535156 693.226562 20.539062 692.660156 20.191406 692.3125 C 19.84375 691.964844 19.277344 691.960938 18.929688 692.308594 L 18.644531 692.59375 C 18.488281 692.757812 18.394531 692.972656 18.355469 693.238281 C 18.34375 693.320312 18.339844 693.417969 18.335938 693.523438 C 18.335938 693.582031 18.339844 693.644531 18.351562 693.707031 C 18.75 695.816406 18.980469 697.277344 19.042969 698.085938 L 19.039062 698.023438 L 19.042969 698.105469 C 19.242188 700.152344 19.347656 702.0625 19.359375 703.839844 L 19.359375 703.835938 C 19.359375 704.632812 19.34375 705.546875 19.3125 706.585938 L 19.3125 706.640625 C 19.3125 706.636719 19.3125 706.632812 19.3125 706.628906 C 19.3125 706.804688 19.257812 707.953125 19.144531 710.082031 L 19.144531 710.09375 L 19.03125 712.894531 C 19.011719 713.304688 19.003906 713.941406 19.007812 714.804688 L 19.007812 714.761719 C 19.003906 714.875 18.988281 714.953125 18.96875 714.992188 C 18.972656 714.988281 18.976562 714.980469 18.984375 714.972656 C 18.65625 715.339844 18.691406 715.902344 19.058594 716.230469 C 19.425781 716.558594 19.992188 716.523438 20.316406 716.15625 Z M 20.316406 716.15625 " fill-opacity="0.894" fill-rule="nonzero"/><path fill="#f5f0eb" d="M 26.117188 631.039062 L 26.054688 631.039062 C 24.933594 631.085938 23.953125 631.664062 23.113281 632.773438 C 22.507812 633.757812 22.242188 634.941406 22.320312 636.316406 C 22.335938 636.574219 22.398438 636.960938 22.503906 637.46875 C 23.03125 639.59375 23.292969 640.765625 23.289062 640.976562 C 23.214844 640.386719 23.175781 639.863281 23.171875 639.40625 C 23.164062 637.945312 23.1875 636.910156 23.246094 636.292969 C 23.457031 635.132812 23.8125 634.261719 24.308594 633.671875 C 25.851562 632.058594 27.082031 632.824219 28.003906 635.964844 C 28.644531 637.953125 29.023438 641.042969 29.140625 645.234375 C 29.207031 648.25 28.980469 652.28125 28.460938 657.335938 C 27.902344 663.089844 27.054688 668.046875 25.917969 672.207031 C 25.390625 674.308594 24.445312 677.25 23.085938 681.023438 L 22.207031 683.414062 C 21.507812 684.945312 21.128906 685.835938 21.0625 686.082031 L 20.578125 686.976562 C 22.539062 683.71875 23.972656 681.121094 24.882812 679.1875 C 26.003906 676.785156 27.007812 674.304688 27.890625 671.742188 C 29.9375 665.734375 31.25 659.855469 31.832031 654.109375 C 32.472656 647.605469 32.289062 642.167969 31.277344 637.789062 C 30.058594 633.269531 28.339844 631.019531 26.117188 631.039062 " fill-opacity="1" fill-rule="nonzero"/><path fill="#f5f0eb" d="M 181.625 786.003906 L 181.625 786.0625 C 181.585938 787.1875 181.007812 788.171875 179.902344 789.015625 C 178.917969 789.625 177.738281 789.890625 176.363281 789.820312 C 176.105469 789.800781 175.71875 789.742188 175.210938 789.636719 C 173.082031 789.121094 171.910156 788.863281 171.699219 788.867188 C 172.289062 788.9375 172.816406 788.976562 173.269531 788.976562 C 174.730469 788.980469 175.765625 788.953125 176.382812 788.894531 C 177.542969 788.675781 178.414062 788.320312 179 787.820312 C 180.605469 786.273438 179.839844 785.042969 176.695312 784.132812 C 174.707031 783.5 171.613281 783.132812 167.421875 783.03125 C 164.40625 782.976562 160.375 783.214844 155.324219 783.753906 C 149.570312 784.332031 144.617188 785.195312 140.460938 786.347656 C 138.359375 786.882812 135.421875 787.835938 131.65625 789.207031 L 129.265625 790.09375 C 127.734375 790.800781 126.847656 791.183594 126.601562 791.25 L 125.710938 791.738281 C 128.960938 789.765625 131.550781 788.320312 133.480469 787.40625 C 135.878906 786.277344 138.359375 785.265625 140.917969 784.371094 C 146.917969 782.304688 152.792969 780.96875 158.539062 780.371094 C 165.039062 779.703125 170.476562 779.871094 174.859375 780.867188 C 179.382812 782.070312 181.636719 783.78125 181.625 786.003906 " fill-opacity="1" fill-rule="nonzero"/><path fill="#f5f0eb" d="M 39.242188 557.085938 L 39.082031 557.089844 C 35.0625 557.675781 31.851562 560.035156 29.449219 564.167969 C 28.023438 566.496094 26.214844 570.773438 24.015625 576.996094 C 23.046875 579.464844 22.265625 582.925781 21.675781 587.382812 C 20.617188 595.128906 20.953125 603.894531 22.6875 613.675781 C 23.730469 619.628906 25.933594 624.917969 29.289062 629.539062 C 27.214844 624.9375 25.875 619.695312 25.269531 613.820312 C 24.605469 606.457031 24.691406 599.070312 25.53125 591.652344 C 26.011719 587.980469 27.058594 583.457031 28.671875 578.085938 C 31.164062 570.558594 32.976562 565.949219 34.113281 564.257812 C 35.878906 561.839844 37.742188 560.542969 39.707031 560.367188 C 41.15625 560.800781 41.4375 562.609375 40.550781 565.792969 C 39.335938 570.238281 36.34375 572.65625 31.582031 573.035156 C 34.835938 573.125 37.152344 572.71875 38.539062 571.816406 C 40.203125 570.953125 41.636719 569.167969 42.839844 566.457031 C 43.941406 563.820312 44.179688 561.734375 43.550781 560.195312 C 42.6875 558.207031 41.25 557.167969 39.242188 557.085938 " fill-opacity="1" fill-rule="nonzero"/><path fill="#f5f0eb" d="M 255.53125 772.617188 L 255.53125 772.777344 C 254.957031 776.800781 252.609375 780.019531 248.488281 782.4375 C 246.160156 783.867188 241.890625 785.695312 235.675781 787.914062 C 233.210938 788.890625 229.75 789.683594 225.296875 790.289062 C 217.554688 791.375 208.789062 791.070312 199.003906 789.371094 C 193.042969 788.347656 187.75 786.167969 183.113281 782.824219 C 187.726562 784.882812 192.96875 786.203125 198.851562 786.789062 C 206.214844 787.429688 213.601562 787.316406 221.015625 786.449219 C 224.6875 785.957031 229.203125 784.894531 234.570312 783.261719 C 242.089844 780.746094 246.691406 778.917969 248.382812 777.773438 C 250.789062 776 252.082031 774.128906 252.25 772.164062 C 251.8125 770.71875 250 770.441406 246.824219 771.339844 C 242.378906 772.574219 239.976562 775.570312 239.609375 780.332031 C 239.507812 777.082031 239.90625 774.761719 240.804688 773.375 C 241.660156 771.707031 243.441406 770.265625 246.152344 769.050781 C 248.78125 767.941406 250.871094 767.699219 252.410156 768.320312 C 254.402344 769.179688 255.445312 770.609375 255.53125 772.617188 " fill-opacity="1" fill-rule="nonzero"/><path fill="#f5f0eb" d="M 26.394531 472.394531 L 26.289062 472.394531 C 24.394531 472.355469 22.914062 473.449219 21.847656 475.667969 C 20.90625 477.832031 20.882812 479.863281 21.769531 481.765625 C 23.359375 485.40625 25.550781 486.105469 28.347656 483.875 C 25.664062 485.484375 23.957031 484.644531 23.230469 481.351562 C 23.023438 480.578125 22.945312 480.046875 22.992188 479.753906 C 23.035156 479.011719 23.210938 478.300781 23.519531 477.609375 C 24.339844 476.015625 25.160156 475.21875 25.972656 475.226562 C 28.507812 475.238281 31.445312 477.5 34.789062 482 C 39.5 488.636719 42.035156 498.34375 42.394531 511.128906 C 42.546875 519.019531 41.546875 527.007812 39.390625 535.101562 C 38.503906 538.332031 37.253906 541.585938 35.640625 544.863281 C 35.382812 545.652344 32.972656 549.863281 28.414062 557.492188 C 28.183594 558.160156 28.441406 558.605469 29.1875 558.835938 C 28.449219 558.558594 28.210938 558.144531 28.464844 557.59375 C 28.671875 557.238281 29.035156 556.753906 29.554688 556.144531 C 31.894531 553.605469 33.3125 552.011719 33.808594 551.367188 C 34.613281 550.378906 35.609375 548.964844 36.800781 547.125 C 39.449219 542.882812 41.355469 538.949219 42.523438 535.324219 C 45.65625 526.117188 47.082031 516.851562 46.804688 507.527344 C 46.480469 498.984375 44.574219 491.394531 41.082031 484.757812 C 35.742188 476.457031 30.84375 472.335938 26.394531 472.394531 " fill-opacity="1" fill-rule="nonzero"/><path fill="#f5f0eb" d="M 340.269531 785.167969 L 340.269531 785.273438 C 340.316406 787.167969 339.226562 788.652344 337.011719 789.726562 C 334.851562 790.671875 332.820312 790.707031 330.914062 789.828125 C 327.269531 788.25 326.558594 786.058594 328.785156 783.253906 C 327.183594 785.945312 328.03125 787.648438 331.320312 788.367188 C 332.097656 788.570312 332.628906 788.644531 332.921875 788.597656 C 333.664062 788.550781 334.375 788.371094 335.0625 788.0625 C 336.65625 787.234375 337.449219 786.414062 337.441406 785.597656 C 337.417969 783.0625 335.148438 780.132812 330.632812 776.808594 C 323.984375 772.121094 314.265625 769.617188 301.480469 769.304688 C 293.589844 769.179688 285.601562 770.207031 277.515625 772.394531 C 274.289062 773.292969 271.039062 774.554688 267.769531 776.179688 C 266.980469 776.4375 262.777344 778.859375 255.167969 783.449219 C 254.5 783.679688 254.050781 783.425781 253.816406 782.679688 C 254.097656 783.414062 254.511719 783.65625 255.0625 783.398438 C 255.417969 783.191406 255.902344 782.824219 256.511719 782.304688 C 259.039062 779.953125 260.628906 778.527344 261.269531 778.03125 C 262.257812 777.222656 263.667969 776.222656 265.5 775.027344 C 269.734375 772.363281 273.664062 770.441406 277.28125 769.257812 C 286.476562 766.097656 295.738281 764.636719 305.0625 764.882812 C 313.609375 765.175781 321.207031 767.054688 327.855469 770.523438 C 336.175781 775.835938 340.3125 780.71875 340.269531 785.167969 " fill-opacity="1" fill-rule="nonzero"/><path fill="#f5f0eb" d="M 26.148438 389.726562 L 26.035156 389.730469 C 24.335938 389.855469 23.058594 390.738281 22.199219 392.375 C 21.238281 394.1875 21.105469 395.898438 21.808594 397.519531 C 23.011719 400.066406 25.507812 400.523438 29.296875 398.882812 C 26.050781 399.714844 24.0625 399.292969 23.328125 397.613281 C 23.171875 397.316406 23.0625 396.964844 23 396.566406 C 22.945312 396.480469 22.992188 395.933594 23.136719 394.921875 L 22.949219 393.984375 C 22.929688 393.855469 23.285156 393.644531 24.011719 393.351562 L 24.972656 392.417969 C 25.269531 392.234375 25.617188 392.132812 26.019531 392.113281 C 28.777344 393.007812 31.238281 394.625 33.394531 396.96875 C 35.84375 399.953125 37.328125 402.636719 37.847656 405.027344 C 38.792969 408.429688 39.183594 412.472656 39.019531 417.15625 C 38.945312 420.476562 38.351562 425.035156 37.246094 430.832031 C 36.332031 435.792969 35.164062 440.390625 33.738281 444.628906 C 30.699219 453.0625 27.160156 459.773438 23.121094 464.757812 C 25.988281 462.019531 28.5 459.050781 30.664062 455.855469 C 32.269531 453.527344 34.082031 450.078125 36.09375 445.507812 C 37.796875 441.617188 39.433594 436.628906 41.003906 430.546875 C 42.070312 426.425781 42.746094 422.257812 43.03125 418.039062 C 43.324219 410.410156 42.171875 404.386719 39.570312 399.96875 C 38.070312 397.375 35.996094 395.066406 33.347656 393.042969 C 30.546875 390.972656 28.148438 389.871094 26.148438 389.726562 " fill-opacity="1" fill-rule="nonzero"/><path fill="#f5f0eb" d="M 422.9375 785.125 L 422.9375 785.238281 C 422.816406 786.933594 421.9375 788.214844 420.304688 789.082031 C 418.496094 790.050781 416.78125 790.1875 415.160156 789.492188 C 412.609375 788.296875 412.144531 785.804688 413.769531 782.007812 C 412.949219 785.253906 413.378906 787.242188 415.0625 787.972656 C 415.359375 788.125 415.710938 788.234375 416.109375 788.296875 C 416.195312 788.347656 416.742188 788.300781 417.753906 788.15625 L 418.691406 788.335938 C 418.820312 788.355469 419.027344 788 419.320312 787.269531 L 420.25 786.3125 C 420.433594 786.011719 420.535156 785.660156 420.550781 785.261719 C 419.648438 782.503906 418.019531 780.050781 415.671875 777.902344 C 412.679688 775.464844 409.988281 773.988281 407.59375 773.476562 C 404.191406 772.542969 400.148438 772.167969 395.464844 772.351562 C 392.144531 772.4375 387.585938 773.042969 381.792969 774.171875 C 376.835938 775.101562 372.242188 776.285156 368.007812 777.726562 C 359.585938 780.796875 352.890625 784.359375 347.917969 788.414062 C 350.644531 785.539062 353.605469 783.015625 356.792969 780.839844 C 359.117188 779.226562 362.558594 777.402344 367.121094 775.375 C 371.007812 773.65625 375.988281 772.003906 382.066406 770.410156 C 386.183594 769.328125 390.351562 768.640625 394.5625 768.339844 C 402.195312 768.019531 408.222656 769.152344 412.648438 771.738281 C 415.246094 773.230469 417.5625 775.296875 419.597656 777.9375 C 421.675781 780.730469 422.789062 783.125 422.9375 785.125 " fill-opacity="1" fill-rule="nonzero"/><g clip-path="url(#8dfe2a8d7f)"><path fill="#f5f0eb" d="M 680.59375 345.421875 L 680.617188 345.457031 C 681.046875 345.980469 681.34375 346.308594 681.507812 346.441406 C 681.527344 346.460938 681.601562 346.507812 681.726562 346.585938 C 682.078125 346.78125 682.34375 346.9375 682.523438 347.054688 C 682.691406 347.164062 682.839844 347.265625 682.96875 347.367188 C 682.667969 347.0625 682.304688 346.667969 681.882812 346.183594 C 681.878906 346.171875 681.820312 346.121094 681.710938 346.027344 C 681.546875 345.890625 681.28125 345.722656 680.914062 345.523438 C 680.882812 345.5 680.828125 345.480469 680.757812 345.453125 C 680.722656 345.445312 680.679688 345.445312 680.632812 345.445312 C 680.621094 345.445312 680.609375 345.4375 680.59375 345.421875 " fill-opacity="1" fill-rule="nonzero"/></g><g clip-path="url(#ef1f87c237)"><path fill="#f5f0eb" d="M 464.941406 130.527344 L 464.90625 130.503906 C 464.378906 130.078125 464.050781 129.78125 463.921875 129.617188 C 463.902344 129.597656 463.851562 129.523438 463.773438 129.398438 C 463.578125 129.046875 463.417969 128.78125 463.300781 128.605469 C 463.195312 128.4375 463.089844 128.289062 462.988281 128.15625 C 463.292969 128.460938 463.691406 128.820312 464.175781 129.242188 C 464.1875 129.246094 464.238281 129.300781 464.332031 129.410156 C 464.46875 129.574219 464.640625 129.839844 464.839844 130.207031 C 464.863281 130.238281 464.882812 130.292969 464.910156 130.363281 C 464.917969 130.398438 464.921875 130.441406 464.917969 130.488281 C 464.921875 130.5 464.929688 130.511719 464.941406 130.527344 " fill-opacity="1" fill-rule="nonzero"/></g></svg>